%TF.GenerationSoftware,KiCad,Pcbnew,8.0.7-8.0.7-0~ubuntu22.04.1*%
%TF.CreationDate,2024-12-28T18:58:49+01:00*%
%TF.ProjectId,CrowBar,43726f77-4261-4722-9e6b-696361645f70,1.0A*%
%TF.SameCoordinates,Original*%
%TF.FileFunction,Legend,Top*%
%TF.FilePolarity,Positive*%
%FSLAX46Y46*%
G04 Gerber Fmt 4.6, Leading zero omitted, Abs format (unit mm)*
G04 Created by KiCad (PCBNEW 8.0.7-8.0.7-0~ubuntu22.04.1) date 2024-12-28 18:58:49*
%MOMM*%
%LPD*%
G01*
G04 APERTURE LIST*
%ADD10C,0.300000*%
%ADD11C,0.750000*%
%ADD12C,0.150000*%
%ADD13C,0.100000*%
%ADD14C,0.120000*%
%ADD15C,0.000000*%
%ADD16C,0.500000*%
G04 APERTURE END LIST*
D10*
X112078320Y-45344400D02*
X112364034Y-45439638D01*
X112364034Y-45439638D02*
X112840225Y-45439638D01*
X112840225Y-45439638D02*
X113030701Y-45344400D01*
X113030701Y-45344400D02*
X113125939Y-45249161D01*
X113125939Y-45249161D02*
X113221177Y-45058685D01*
X113221177Y-45058685D02*
X113221177Y-44868209D01*
X113221177Y-44868209D02*
X113125939Y-44677733D01*
X113125939Y-44677733D02*
X113030701Y-44582495D01*
X113030701Y-44582495D02*
X112840225Y-44487257D01*
X112840225Y-44487257D02*
X112459272Y-44392019D01*
X112459272Y-44392019D02*
X112268796Y-44296780D01*
X112268796Y-44296780D02*
X112173558Y-44201542D01*
X112173558Y-44201542D02*
X112078320Y-44011066D01*
X112078320Y-44011066D02*
X112078320Y-43820590D01*
X112078320Y-43820590D02*
X112173558Y-43630114D01*
X112173558Y-43630114D02*
X112268796Y-43534876D01*
X112268796Y-43534876D02*
X112459272Y-43439638D01*
X112459272Y-43439638D02*
X112935463Y-43439638D01*
X112935463Y-43439638D02*
X113221177Y-43534876D01*
X114078320Y-45439638D02*
X114078320Y-43439638D01*
X114078320Y-43439638D02*
X114840225Y-43439638D01*
X114840225Y-43439638D02*
X115030701Y-43534876D01*
X115030701Y-43534876D02*
X115125939Y-43630114D01*
X115125939Y-43630114D02*
X115221177Y-43820590D01*
X115221177Y-43820590D02*
X115221177Y-44106304D01*
X115221177Y-44106304D02*
X115125939Y-44296780D01*
X115125939Y-44296780D02*
X115030701Y-44392019D01*
X115030701Y-44392019D02*
X114840225Y-44487257D01*
X114840225Y-44487257D02*
X114078320Y-44487257D01*
X116935463Y-43439638D02*
X116554510Y-43439638D01*
X116554510Y-43439638D02*
X116364034Y-43534876D01*
X116364034Y-43534876D02*
X116268796Y-43630114D01*
X116268796Y-43630114D02*
X116078320Y-43915828D01*
X116078320Y-43915828D02*
X115983082Y-44296780D01*
X115983082Y-44296780D02*
X115983082Y-45058685D01*
X115983082Y-45058685D02*
X116078320Y-45249161D01*
X116078320Y-45249161D02*
X116173558Y-45344400D01*
X116173558Y-45344400D02*
X116364034Y-45439638D01*
X116364034Y-45439638D02*
X116744987Y-45439638D01*
X116744987Y-45439638D02*
X116935463Y-45344400D01*
X116935463Y-45344400D02*
X117030701Y-45249161D01*
X117030701Y-45249161D02*
X117125939Y-45058685D01*
X117125939Y-45058685D02*
X117125939Y-44582495D01*
X117125939Y-44582495D02*
X117030701Y-44392019D01*
X117030701Y-44392019D02*
X116935463Y-44296780D01*
X116935463Y-44296780D02*
X116744987Y-44201542D01*
X116744987Y-44201542D02*
X116364034Y-44201542D01*
X116364034Y-44201542D02*
X116173558Y-44296780D01*
X116173558Y-44296780D02*
X116078320Y-44392019D01*
X116078320Y-44392019D02*
X115983082Y-44582495D01*
X119030701Y-43534876D02*
X118840225Y-43439638D01*
X118840225Y-43439638D02*
X118554511Y-43439638D01*
X118554511Y-43439638D02*
X118268796Y-43534876D01*
X118268796Y-43534876D02*
X118078320Y-43725352D01*
X118078320Y-43725352D02*
X117983082Y-43915828D01*
X117983082Y-43915828D02*
X117887844Y-44296780D01*
X117887844Y-44296780D02*
X117887844Y-44582495D01*
X117887844Y-44582495D02*
X117983082Y-44963447D01*
X117983082Y-44963447D02*
X118078320Y-45153923D01*
X118078320Y-45153923D02*
X118268796Y-45344400D01*
X118268796Y-45344400D02*
X118554511Y-45439638D01*
X118554511Y-45439638D02*
X118744987Y-45439638D01*
X118744987Y-45439638D02*
X119030701Y-45344400D01*
X119030701Y-45344400D02*
X119125939Y-45249161D01*
X119125939Y-45249161D02*
X119125939Y-44582495D01*
X119125939Y-44582495D02*
X118744987Y-44582495D01*
X119983082Y-45439638D02*
X119983082Y-43439638D01*
X121125939Y-45439638D02*
X120268796Y-44296780D01*
X121125939Y-43439638D02*
X119983082Y-44582495D01*
X123221178Y-43439638D02*
X123887844Y-45439638D01*
X123887844Y-45439638D02*
X124554511Y-43439638D01*
X126268797Y-45439638D02*
X125125940Y-45439638D01*
X125697368Y-45439638D02*
X125697368Y-43439638D01*
X125697368Y-43439638D02*
X125506892Y-43725352D01*
X125506892Y-43725352D02*
X125316416Y-43915828D01*
X125316416Y-43915828D02*
X125125940Y-44011066D01*
X127125940Y-45249161D02*
X127221178Y-45344400D01*
X127221178Y-45344400D02*
X127125940Y-45439638D01*
X127125940Y-45439638D02*
X127030702Y-45344400D01*
X127030702Y-45344400D02*
X127125940Y-45249161D01*
X127125940Y-45249161D02*
X127125940Y-45439638D01*
X128459273Y-43439638D02*
X128649750Y-43439638D01*
X128649750Y-43439638D02*
X128840226Y-43534876D01*
X128840226Y-43534876D02*
X128935464Y-43630114D01*
X128935464Y-43630114D02*
X129030702Y-43820590D01*
X129030702Y-43820590D02*
X129125940Y-44201542D01*
X129125940Y-44201542D02*
X129125940Y-44677733D01*
X129125940Y-44677733D02*
X129030702Y-45058685D01*
X129030702Y-45058685D02*
X128935464Y-45249161D01*
X128935464Y-45249161D02*
X128840226Y-45344400D01*
X128840226Y-45344400D02*
X128649750Y-45439638D01*
X128649750Y-45439638D02*
X128459273Y-45439638D01*
X128459273Y-45439638D02*
X128268797Y-45344400D01*
X128268797Y-45344400D02*
X128173559Y-45249161D01*
X128173559Y-45249161D02*
X128078321Y-45058685D01*
X128078321Y-45058685D02*
X127983083Y-44677733D01*
X127983083Y-44677733D02*
X127983083Y-44201542D01*
X127983083Y-44201542D02*
X128078321Y-43820590D01*
X128078321Y-43820590D02*
X128173559Y-43630114D01*
X128173559Y-43630114D02*
X128268797Y-43534876D01*
X128268797Y-43534876D02*
X128459273Y-43439638D01*
X129887845Y-44868209D02*
X130840226Y-44868209D01*
X129697369Y-45439638D02*
X130364035Y-43439638D01*
X130364035Y-43439638D02*
X131030702Y-45439638D01*
X133125941Y-43630114D02*
X133221179Y-43534876D01*
X133221179Y-43534876D02*
X133411655Y-43439638D01*
X133411655Y-43439638D02*
X133887846Y-43439638D01*
X133887846Y-43439638D02*
X134078322Y-43534876D01*
X134078322Y-43534876D02*
X134173560Y-43630114D01*
X134173560Y-43630114D02*
X134268798Y-43820590D01*
X134268798Y-43820590D02*
X134268798Y-44011066D01*
X134268798Y-44011066D02*
X134173560Y-44296780D01*
X134173560Y-44296780D02*
X133030703Y-45439638D01*
X133030703Y-45439638D02*
X134268798Y-45439638D01*
X135506893Y-43439638D02*
X135697370Y-43439638D01*
X135697370Y-43439638D02*
X135887846Y-43534876D01*
X135887846Y-43534876D02*
X135983084Y-43630114D01*
X135983084Y-43630114D02*
X136078322Y-43820590D01*
X136078322Y-43820590D02*
X136173560Y-44201542D01*
X136173560Y-44201542D02*
X136173560Y-44677733D01*
X136173560Y-44677733D02*
X136078322Y-45058685D01*
X136078322Y-45058685D02*
X135983084Y-45249161D01*
X135983084Y-45249161D02*
X135887846Y-45344400D01*
X135887846Y-45344400D02*
X135697370Y-45439638D01*
X135697370Y-45439638D02*
X135506893Y-45439638D01*
X135506893Y-45439638D02*
X135316417Y-45344400D01*
X135316417Y-45344400D02*
X135221179Y-45249161D01*
X135221179Y-45249161D02*
X135125941Y-45058685D01*
X135125941Y-45058685D02*
X135030703Y-44677733D01*
X135030703Y-44677733D02*
X135030703Y-44201542D01*
X135030703Y-44201542D02*
X135125941Y-43820590D01*
X135125941Y-43820590D02*
X135221179Y-43630114D01*
X135221179Y-43630114D02*
X135316417Y-43534876D01*
X135316417Y-43534876D02*
X135506893Y-43439638D01*
X136935465Y-43630114D02*
X137030703Y-43534876D01*
X137030703Y-43534876D02*
X137221179Y-43439638D01*
X137221179Y-43439638D02*
X137697370Y-43439638D01*
X137697370Y-43439638D02*
X137887846Y-43534876D01*
X137887846Y-43534876D02*
X137983084Y-43630114D01*
X137983084Y-43630114D02*
X138078322Y-43820590D01*
X138078322Y-43820590D02*
X138078322Y-44011066D01*
X138078322Y-44011066D02*
X137983084Y-44296780D01*
X137983084Y-44296780D02*
X136840227Y-45439638D01*
X136840227Y-45439638D02*
X138078322Y-45439638D01*
X139792608Y-44106304D02*
X139792608Y-45439638D01*
X139316417Y-43344400D02*
X138840227Y-44772971D01*
X138840227Y-44772971D02*
X140078322Y-44772971D01*
D11*
X115179135Y-69936714D02*
X114893421Y-69793857D01*
X114893421Y-69793857D02*
X114464849Y-69793857D01*
X114464849Y-69793857D02*
X114036278Y-69936714D01*
X114036278Y-69936714D02*
X113750563Y-70222428D01*
X113750563Y-70222428D02*
X113607706Y-70508142D01*
X113607706Y-70508142D02*
X113464849Y-71079571D01*
X113464849Y-71079571D02*
X113464849Y-71508142D01*
X113464849Y-71508142D02*
X113607706Y-72079571D01*
X113607706Y-72079571D02*
X113750563Y-72365285D01*
X113750563Y-72365285D02*
X114036278Y-72651000D01*
X114036278Y-72651000D02*
X114464849Y-72793857D01*
X114464849Y-72793857D02*
X114750563Y-72793857D01*
X114750563Y-72793857D02*
X115179135Y-72651000D01*
X115179135Y-72651000D02*
X115321992Y-72508142D01*
X115321992Y-72508142D02*
X115321992Y-71508142D01*
X115321992Y-71508142D02*
X114750563Y-71508142D01*
X116607706Y-72793857D02*
X116607706Y-69793857D01*
X116607706Y-69793857D02*
X118321992Y-72793857D01*
X118321992Y-72793857D02*
X118321992Y-69793857D01*
X119750563Y-72793857D02*
X119750563Y-69793857D01*
X119750563Y-69793857D02*
X120464849Y-69793857D01*
X120464849Y-69793857D02*
X120893420Y-69936714D01*
X120893420Y-69936714D02*
X121179135Y-70222428D01*
X121179135Y-70222428D02*
X121321992Y-70508142D01*
X121321992Y-70508142D02*
X121464849Y-71079571D01*
X121464849Y-71079571D02*
X121464849Y-71508142D01*
X121464849Y-71508142D02*
X121321992Y-72079571D01*
X121321992Y-72079571D02*
X121179135Y-72365285D01*
X121179135Y-72365285D02*
X120893420Y-72651000D01*
X120893420Y-72651000D02*
X120464849Y-72793857D01*
X120464849Y-72793857D02*
X119750563Y-72793857D01*
X132207706Y-21093857D02*
X132207706Y-18093857D01*
X133636277Y-21093857D02*
X133636277Y-18093857D01*
X133636277Y-18093857D02*
X135350563Y-21093857D01*
X135350563Y-21093857D02*
X135350563Y-18093857D01*
X139064848Y-19951000D02*
X141350563Y-19951000D01*
X140207705Y-21093857D02*
X140207705Y-18808142D01*
D10*
X113316415Y-42149161D02*
X113221177Y-42244400D01*
X113221177Y-42244400D02*
X112935463Y-42339638D01*
X112935463Y-42339638D02*
X112744987Y-42339638D01*
X112744987Y-42339638D02*
X112459272Y-42244400D01*
X112459272Y-42244400D02*
X112268796Y-42053923D01*
X112268796Y-42053923D02*
X112173558Y-41863447D01*
X112173558Y-41863447D02*
X112078320Y-41482495D01*
X112078320Y-41482495D02*
X112078320Y-41196780D01*
X112078320Y-41196780D02*
X112173558Y-40815828D01*
X112173558Y-40815828D02*
X112268796Y-40625352D01*
X112268796Y-40625352D02*
X112459272Y-40434876D01*
X112459272Y-40434876D02*
X112744987Y-40339638D01*
X112744987Y-40339638D02*
X112935463Y-40339638D01*
X112935463Y-40339638D02*
X113221177Y-40434876D01*
X113221177Y-40434876D02*
X113316415Y-40530114D01*
X115316415Y-42339638D02*
X114649748Y-41387257D01*
X114173558Y-42339638D02*
X114173558Y-40339638D01*
X114173558Y-40339638D02*
X114935463Y-40339638D01*
X114935463Y-40339638D02*
X115125939Y-40434876D01*
X115125939Y-40434876D02*
X115221177Y-40530114D01*
X115221177Y-40530114D02*
X115316415Y-40720590D01*
X115316415Y-40720590D02*
X115316415Y-41006304D01*
X115316415Y-41006304D02*
X115221177Y-41196780D01*
X115221177Y-41196780D02*
X115125939Y-41292019D01*
X115125939Y-41292019D02*
X114935463Y-41387257D01*
X114935463Y-41387257D02*
X114173558Y-41387257D01*
X116554510Y-40339638D02*
X116935463Y-40339638D01*
X116935463Y-40339638D02*
X117125939Y-40434876D01*
X117125939Y-40434876D02*
X117316415Y-40625352D01*
X117316415Y-40625352D02*
X117411653Y-41006304D01*
X117411653Y-41006304D02*
X117411653Y-41672971D01*
X117411653Y-41672971D02*
X117316415Y-42053923D01*
X117316415Y-42053923D02*
X117125939Y-42244400D01*
X117125939Y-42244400D02*
X116935463Y-42339638D01*
X116935463Y-42339638D02*
X116554510Y-42339638D01*
X116554510Y-42339638D02*
X116364034Y-42244400D01*
X116364034Y-42244400D02*
X116173558Y-42053923D01*
X116173558Y-42053923D02*
X116078320Y-41672971D01*
X116078320Y-41672971D02*
X116078320Y-41006304D01*
X116078320Y-41006304D02*
X116173558Y-40625352D01*
X116173558Y-40625352D02*
X116364034Y-40434876D01*
X116364034Y-40434876D02*
X116554510Y-40339638D01*
X118078320Y-40339638D02*
X118554510Y-42339638D01*
X118554510Y-42339638D02*
X118935463Y-40911066D01*
X118935463Y-40911066D02*
X119316415Y-42339638D01*
X119316415Y-42339638D02*
X119792606Y-40339638D01*
X121221177Y-41292019D02*
X121506891Y-41387257D01*
X121506891Y-41387257D02*
X121602129Y-41482495D01*
X121602129Y-41482495D02*
X121697367Y-41672971D01*
X121697367Y-41672971D02*
X121697367Y-41958685D01*
X121697367Y-41958685D02*
X121602129Y-42149161D01*
X121602129Y-42149161D02*
X121506891Y-42244400D01*
X121506891Y-42244400D02*
X121316415Y-42339638D01*
X121316415Y-42339638D02*
X120554510Y-42339638D01*
X120554510Y-42339638D02*
X120554510Y-40339638D01*
X120554510Y-40339638D02*
X121221177Y-40339638D01*
X121221177Y-40339638D02*
X121411653Y-40434876D01*
X121411653Y-40434876D02*
X121506891Y-40530114D01*
X121506891Y-40530114D02*
X121602129Y-40720590D01*
X121602129Y-40720590D02*
X121602129Y-40911066D01*
X121602129Y-40911066D02*
X121506891Y-41101542D01*
X121506891Y-41101542D02*
X121411653Y-41196780D01*
X121411653Y-41196780D02*
X121221177Y-41292019D01*
X121221177Y-41292019D02*
X120554510Y-41292019D01*
X122459272Y-41768209D02*
X123411653Y-41768209D01*
X122268796Y-42339638D02*
X122935462Y-40339638D01*
X122935462Y-40339638D02*
X123602129Y-42339638D01*
X125411653Y-42339638D02*
X124744986Y-41387257D01*
X124268796Y-42339638D02*
X124268796Y-40339638D01*
X124268796Y-40339638D02*
X125030701Y-40339638D01*
X125030701Y-40339638D02*
X125221177Y-40434876D01*
X125221177Y-40434876D02*
X125316415Y-40530114D01*
X125316415Y-40530114D02*
X125411653Y-40720590D01*
X125411653Y-40720590D02*
X125411653Y-41006304D01*
X125411653Y-41006304D02*
X125316415Y-41196780D01*
X125316415Y-41196780D02*
X125221177Y-41292019D01*
X125221177Y-41292019D02*
X125030701Y-41387257D01*
X125030701Y-41387257D02*
X124268796Y-41387257D01*
X128935463Y-42149161D02*
X128840225Y-42244400D01*
X128840225Y-42244400D02*
X128554511Y-42339638D01*
X128554511Y-42339638D02*
X128364035Y-42339638D01*
X128364035Y-42339638D02*
X128078320Y-42244400D01*
X128078320Y-42244400D02*
X127887844Y-42053923D01*
X127887844Y-42053923D02*
X127792606Y-41863447D01*
X127792606Y-41863447D02*
X127697368Y-41482495D01*
X127697368Y-41482495D02*
X127697368Y-41196780D01*
X127697368Y-41196780D02*
X127792606Y-40815828D01*
X127792606Y-40815828D02*
X127887844Y-40625352D01*
X127887844Y-40625352D02*
X128078320Y-40434876D01*
X128078320Y-40434876D02*
X128364035Y-40339638D01*
X128364035Y-40339638D02*
X128554511Y-40339638D01*
X128554511Y-40339638D02*
X128840225Y-40434876D01*
X128840225Y-40434876D02*
X128935463Y-40530114D01*
X129792606Y-42339638D02*
X129792606Y-40339638D01*
X131887844Y-42339638D02*
X131221177Y-41387257D01*
X130744987Y-42339638D02*
X130744987Y-40339638D01*
X130744987Y-40339638D02*
X131506892Y-40339638D01*
X131506892Y-40339638D02*
X131697368Y-40434876D01*
X131697368Y-40434876D02*
X131792606Y-40530114D01*
X131792606Y-40530114D02*
X131887844Y-40720590D01*
X131887844Y-40720590D02*
X131887844Y-41006304D01*
X131887844Y-41006304D02*
X131792606Y-41196780D01*
X131792606Y-41196780D02*
X131697368Y-41292019D01*
X131697368Y-41292019D02*
X131506892Y-41387257D01*
X131506892Y-41387257D02*
X130744987Y-41387257D01*
X133887844Y-42149161D02*
X133792606Y-42244400D01*
X133792606Y-42244400D02*
X133506892Y-42339638D01*
X133506892Y-42339638D02*
X133316416Y-42339638D01*
X133316416Y-42339638D02*
X133030701Y-42244400D01*
X133030701Y-42244400D02*
X132840225Y-42053923D01*
X132840225Y-42053923D02*
X132744987Y-41863447D01*
X132744987Y-41863447D02*
X132649749Y-41482495D01*
X132649749Y-41482495D02*
X132649749Y-41196780D01*
X132649749Y-41196780D02*
X132744987Y-40815828D01*
X132744987Y-40815828D02*
X132840225Y-40625352D01*
X132840225Y-40625352D02*
X133030701Y-40434876D01*
X133030701Y-40434876D02*
X133316416Y-40339638D01*
X133316416Y-40339638D02*
X133506892Y-40339638D01*
X133506892Y-40339638D02*
X133792606Y-40434876D01*
X133792606Y-40434876D02*
X133887844Y-40530114D01*
X134744987Y-40339638D02*
X134744987Y-41958685D01*
X134744987Y-41958685D02*
X134840225Y-42149161D01*
X134840225Y-42149161D02*
X134935463Y-42244400D01*
X134935463Y-42244400D02*
X135125939Y-42339638D01*
X135125939Y-42339638D02*
X135506892Y-42339638D01*
X135506892Y-42339638D02*
X135697368Y-42244400D01*
X135697368Y-42244400D02*
X135792606Y-42149161D01*
X135792606Y-42149161D02*
X135887844Y-41958685D01*
X135887844Y-41958685D02*
X135887844Y-40339638D01*
X136840225Y-42339638D02*
X136840225Y-40339638D01*
X137506892Y-40339638D02*
X138649749Y-40339638D01*
X138078320Y-42339638D02*
X138078320Y-40339638D01*
X111983082Y-47006304D02*
X112364034Y-48339638D01*
X112364034Y-48339638D02*
X112744987Y-47387257D01*
X112744987Y-47387257D02*
X113125939Y-48339638D01*
X113125939Y-48339638D02*
X113506891Y-47006304D01*
X114078320Y-47006304D02*
X114459272Y-48339638D01*
X114459272Y-48339638D02*
X114840225Y-47387257D01*
X114840225Y-47387257D02*
X115221177Y-48339638D01*
X115221177Y-48339638D02*
X115602129Y-47006304D01*
X116173558Y-47006304D02*
X116554510Y-48339638D01*
X116554510Y-48339638D02*
X116935463Y-47387257D01*
X116935463Y-47387257D02*
X117316415Y-48339638D01*
X117316415Y-48339638D02*
X117697367Y-47006304D01*
X118459272Y-48149161D02*
X118554510Y-48244400D01*
X118554510Y-48244400D02*
X118459272Y-48339638D01*
X118459272Y-48339638D02*
X118364034Y-48244400D01*
X118364034Y-48244400D02*
X118459272Y-48149161D01*
X118459272Y-48149161D02*
X118459272Y-48339638D01*
X119316415Y-48244400D02*
X119506891Y-48339638D01*
X119506891Y-48339638D02*
X119887843Y-48339638D01*
X119887843Y-48339638D02*
X120078320Y-48244400D01*
X120078320Y-48244400D02*
X120173558Y-48053923D01*
X120173558Y-48053923D02*
X120173558Y-47958685D01*
X120173558Y-47958685D02*
X120078320Y-47768209D01*
X120078320Y-47768209D02*
X119887843Y-47672971D01*
X119887843Y-47672971D02*
X119602129Y-47672971D01*
X119602129Y-47672971D02*
X119411653Y-47577733D01*
X119411653Y-47577733D02*
X119316415Y-47387257D01*
X119316415Y-47387257D02*
X119316415Y-47292019D01*
X119316415Y-47292019D02*
X119411653Y-47101542D01*
X119411653Y-47101542D02*
X119602129Y-47006304D01*
X119602129Y-47006304D02*
X119887843Y-47006304D01*
X119887843Y-47006304D02*
X120078320Y-47101542D01*
X121030701Y-47006304D02*
X121030701Y-49006304D01*
X121030701Y-47101542D02*
X121221177Y-47006304D01*
X121221177Y-47006304D02*
X121602130Y-47006304D01*
X121602130Y-47006304D02*
X121792606Y-47101542D01*
X121792606Y-47101542D02*
X121887844Y-47196780D01*
X121887844Y-47196780D02*
X121983082Y-47387257D01*
X121983082Y-47387257D02*
X121983082Y-47958685D01*
X121983082Y-47958685D02*
X121887844Y-48149161D01*
X121887844Y-48149161D02*
X121792606Y-48244400D01*
X121792606Y-48244400D02*
X121602130Y-48339638D01*
X121602130Y-48339638D02*
X121221177Y-48339638D01*
X121221177Y-48339638D02*
X121030701Y-48244400D01*
X123697368Y-46339638D02*
X123316415Y-46339638D01*
X123316415Y-46339638D02*
X123125939Y-46434876D01*
X123125939Y-46434876D02*
X123030701Y-46530114D01*
X123030701Y-46530114D02*
X122840225Y-46815828D01*
X122840225Y-46815828D02*
X122744987Y-47196780D01*
X122744987Y-47196780D02*
X122744987Y-47958685D01*
X122744987Y-47958685D02*
X122840225Y-48149161D01*
X122840225Y-48149161D02*
X122935463Y-48244400D01*
X122935463Y-48244400D02*
X123125939Y-48339638D01*
X123125939Y-48339638D02*
X123506892Y-48339638D01*
X123506892Y-48339638D02*
X123697368Y-48244400D01*
X123697368Y-48244400D02*
X123792606Y-48149161D01*
X123792606Y-48149161D02*
X123887844Y-47958685D01*
X123887844Y-47958685D02*
X123887844Y-47482495D01*
X123887844Y-47482495D02*
X123792606Y-47292019D01*
X123792606Y-47292019D02*
X123697368Y-47196780D01*
X123697368Y-47196780D02*
X123506892Y-47101542D01*
X123506892Y-47101542D02*
X123125939Y-47101542D01*
X123125939Y-47101542D02*
X122935463Y-47196780D01*
X122935463Y-47196780D02*
X122840225Y-47292019D01*
X122840225Y-47292019D02*
X122744987Y-47482495D01*
X125602130Y-47006304D02*
X125602130Y-48625352D01*
X125602130Y-48625352D02*
X125506892Y-48815828D01*
X125506892Y-48815828D02*
X125411654Y-48911066D01*
X125411654Y-48911066D02*
X125221177Y-49006304D01*
X125221177Y-49006304D02*
X124935463Y-49006304D01*
X124935463Y-49006304D02*
X124744987Y-48911066D01*
X125602130Y-48244400D02*
X125411654Y-48339638D01*
X125411654Y-48339638D02*
X125030701Y-48339638D01*
X125030701Y-48339638D02*
X124840225Y-48244400D01*
X124840225Y-48244400D02*
X124744987Y-48149161D01*
X124744987Y-48149161D02*
X124649749Y-47958685D01*
X124649749Y-47958685D02*
X124649749Y-47387257D01*
X124649749Y-47387257D02*
X124744987Y-47196780D01*
X124744987Y-47196780D02*
X124840225Y-47101542D01*
X124840225Y-47101542D02*
X125030701Y-47006304D01*
X125030701Y-47006304D02*
X125411654Y-47006304D01*
X125411654Y-47006304D02*
X125602130Y-47101542D01*
X126554511Y-48339638D02*
X126554511Y-46339638D01*
X126744987Y-47577733D02*
X127316416Y-48339638D01*
X127316416Y-47006304D02*
X126554511Y-47768209D01*
X128173559Y-48149161D02*
X128268797Y-48244400D01*
X128268797Y-48244400D02*
X128173559Y-48339638D01*
X128173559Y-48339638D02*
X128078321Y-48244400D01*
X128078321Y-48244400D02*
X128173559Y-48149161D01*
X128173559Y-48149161D02*
X128173559Y-48339638D01*
X129983083Y-48244400D02*
X129792607Y-48339638D01*
X129792607Y-48339638D02*
X129411654Y-48339638D01*
X129411654Y-48339638D02*
X129221178Y-48244400D01*
X129221178Y-48244400D02*
X129125940Y-48149161D01*
X129125940Y-48149161D02*
X129030702Y-47958685D01*
X129030702Y-47958685D02*
X129030702Y-47387257D01*
X129030702Y-47387257D02*
X129125940Y-47196780D01*
X129125940Y-47196780D02*
X129221178Y-47101542D01*
X129221178Y-47101542D02*
X129411654Y-47006304D01*
X129411654Y-47006304D02*
X129792607Y-47006304D01*
X129792607Y-47006304D02*
X129983083Y-47101542D01*
X131125940Y-48339638D02*
X130935464Y-48244400D01*
X130935464Y-48244400D02*
X130840226Y-48149161D01*
X130840226Y-48149161D02*
X130744988Y-47958685D01*
X130744988Y-47958685D02*
X130744988Y-47387257D01*
X130744988Y-47387257D02*
X130840226Y-47196780D01*
X130840226Y-47196780D02*
X130935464Y-47101542D01*
X130935464Y-47101542D02*
X131125940Y-47006304D01*
X131125940Y-47006304D02*
X131411655Y-47006304D01*
X131411655Y-47006304D02*
X131602131Y-47101542D01*
X131602131Y-47101542D02*
X131697369Y-47196780D01*
X131697369Y-47196780D02*
X131792607Y-47387257D01*
X131792607Y-47387257D02*
X131792607Y-47958685D01*
X131792607Y-47958685D02*
X131697369Y-48149161D01*
X131697369Y-48149161D02*
X131602131Y-48244400D01*
X131602131Y-48244400D02*
X131411655Y-48339638D01*
X131411655Y-48339638D02*
X131125940Y-48339638D01*
X132649750Y-48339638D02*
X132649750Y-47006304D01*
X132649750Y-47196780D02*
X132744988Y-47101542D01*
X132744988Y-47101542D02*
X132935464Y-47006304D01*
X132935464Y-47006304D02*
X133221179Y-47006304D01*
X133221179Y-47006304D02*
X133411655Y-47101542D01*
X133411655Y-47101542D02*
X133506893Y-47292019D01*
X133506893Y-47292019D02*
X133506893Y-48339638D01*
X133506893Y-47292019D02*
X133602131Y-47101542D01*
X133602131Y-47101542D02*
X133792607Y-47006304D01*
X133792607Y-47006304D02*
X134078321Y-47006304D01*
X134078321Y-47006304D02*
X134268798Y-47101542D01*
X134268798Y-47101542D02*
X134364036Y-47292019D01*
X134364036Y-47292019D02*
X134364036Y-48339638D01*
D11*
X115079135Y-18236714D02*
X114793421Y-18093857D01*
X114793421Y-18093857D02*
X114364849Y-18093857D01*
X114364849Y-18093857D02*
X113936278Y-18236714D01*
X113936278Y-18236714D02*
X113650563Y-18522428D01*
X113650563Y-18522428D02*
X113507706Y-18808142D01*
X113507706Y-18808142D02*
X113364849Y-19379571D01*
X113364849Y-19379571D02*
X113364849Y-19808142D01*
X113364849Y-19808142D02*
X113507706Y-20379571D01*
X113507706Y-20379571D02*
X113650563Y-20665285D01*
X113650563Y-20665285D02*
X113936278Y-20951000D01*
X113936278Y-20951000D02*
X114364849Y-21093857D01*
X114364849Y-21093857D02*
X114650563Y-21093857D01*
X114650563Y-21093857D02*
X115079135Y-20951000D01*
X115079135Y-20951000D02*
X115221992Y-20808142D01*
X115221992Y-20808142D02*
X115221992Y-19808142D01*
X115221992Y-19808142D02*
X114650563Y-19808142D01*
X116507706Y-21093857D02*
X116507706Y-18093857D01*
X116507706Y-18093857D02*
X118221992Y-21093857D01*
X118221992Y-21093857D02*
X118221992Y-18093857D01*
X119650563Y-21093857D02*
X119650563Y-18093857D01*
X119650563Y-18093857D02*
X120364849Y-18093857D01*
X120364849Y-18093857D02*
X120793420Y-18236714D01*
X120793420Y-18236714D02*
X121079135Y-18522428D01*
X121079135Y-18522428D02*
X121221992Y-18808142D01*
X121221992Y-18808142D02*
X121364849Y-19379571D01*
X121364849Y-19379571D02*
X121364849Y-19808142D01*
X121364849Y-19808142D02*
X121221992Y-20379571D01*
X121221992Y-20379571D02*
X121079135Y-20665285D01*
X121079135Y-20665285D02*
X120793420Y-20951000D01*
X120793420Y-20951000D02*
X120364849Y-21093857D01*
X120364849Y-21093857D02*
X119650563Y-21093857D01*
X151707706Y-19522428D02*
X150707706Y-19522428D01*
X150707706Y-21093857D02*
X150707706Y-18093857D01*
X150707706Y-18093857D02*
X152136278Y-18093857D01*
X153136278Y-18379571D02*
X153279135Y-18236714D01*
X153279135Y-18236714D02*
X153564850Y-18093857D01*
X153564850Y-18093857D02*
X154279135Y-18093857D01*
X154279135Y-18093857D02*
X154564850Y-18236714D01*
X154564850Y-18236714D02*
X154707707Y-18379571D01*
X154707707Y-18379571D02*
X154850564Y-18665285D01*
X154850564Y-18665285D02*
X154850564Y-18951000D01*
X154850564Y-18951000D02*
X154707707Y-19379571D01*
X154707707Y-19379571D02*
X152993421Y-21093857D01*
X152993421Y-21093857D02*
X154850564Y-21093857D01*
X157564850Y-18093857D02*
X156136278Y-18093857D01*
X156136278Y-18093857D02*
X155993421Y-19522428D01*
X155993421Y-19522428D02*
X156136278Y-19379571D01*
X156136278Y-19379571D02*
X156421993Y-19236714D01*
X156421993Y-19236714D02*
X157136278Y-19236714D01*
X157136278Y-19236714D02*
X157421993Y-19379571D01*
X157421993Y-19379571D02*
X157564850Y-19522428D01*
X157564850Y-19522428D02*
X157707707Y-19808142D01*
X157707707Y-19808142D02*
X157707707Y-20522428D01*
X157707707Y-20522428D02*
X157564850Y-20808142D01*
X157564850Y-20808142D02*
X157421993Y-20951000D01*
X157421993Y-20951000D02*
X157136278Y-21093857D01*
X157136278Y-21093857D02*
X156421993Y-21093857D01*
X156421993Y-21093857D02*
X156136278Y-20951000D01*
X156136278Y-20951000D02*
X155993421Y-20808142D01*
X158850564Y-20236714D02*
X160279136Y-20236714D01*
X158564850Y-21093857D02*
X159564850Y-18093857D01*
X159564850Y-18093857D02*
X160564850Y-21093857D01*
X130979135Y-69793857D02*
X131550563Y-69793857D01*
X131550563Y-69793857D02*
X131836278Y-69936714D01*
X131836278Y-69936714D02*
X132121992Y-70222428D01*
X132121992Y-70222428D02*
X132264849Y-70793857D01*
X132264849Y-70793857D02*
X132264849Y-71793857D01*
X132264849Y-71793857D02*
X132121992Y-72365285D01*
X132121992Y-72365285D02*
X131836278Y-72651000D01*
X131836278Y-72651000D02*
X131550563Y-72793857D01*
X131550563Y-72793857D02*
X130979135Y-72793857D01*
X130979135Y-72793857D02*
X130693421Y-72651000D01*
X130693421Y-72651000D02*
X130407706Y-72365285D01*
X130407706Y-72365285D02*
X130264849Y-71793857D01*
X130264849Y-71793857D02*
X130264849Y-70793857D01*
X130264849Y-70793857D02*
X130407706Y-70222428D01*
X130407706Y-70222428D02*
X130693421Y-69936714D01*
X130693421Y-69936714D02*
X130979135Y-69793857D01*
X133550563Y-69793857D02*
X133550563Y-72222428D01*
X133550563Y-72222428D02*
X133693420Y-72508142D01*
X133693420Y-72508142D02*
X133836278Y-72651000D01*
X133836278Y-72651000D02*
X134121992Y-72793857D01*
X134121992Y-72793857D02*
X134693420Y-72793857D01*
X134693420Y-72793857D02*
X134979135Y-72651000D01*
X134979135Y-72651000D02*
X135121992Y-72508142D01*
X135121992Y-72508142D02*
X135264849Y-72222428D01*
X135264849Y-72222428D02*
X135264849Y-69793857D01*
X136264849Y-69793857D02*
X137979135Y-69793857D01*
X137121992Y-72793857D02*
X137121992Y-69793857D01*
X141264848Y-71651000D02*
X143550563Y-71651000D01*
X142407705Y-72793857D02*
X142407705Y-70508142D01*
D12*
X146333333Y-42504819D02*
X146000000Y-42028628D01*
X145761905Y-42504819D02*
X145761905Y-41504819D01*
X145761905Y-41504819D02*
X146142857Y-41504819D01*
X146142857Y-41504819D02*
X146238095Y-41552438D01*
X146238095Y-41552438D02*
X146285714Y-41600057D01*
X146285714Y-41600057D02*
X146333333Y-41695295D01*
X146333333Y-41695295D02*
X146333333Y-41838152D01*
X146333333Y-41838152D02*
X146285714Y-41933390D01*
X146285714Y-41933390D02*
X146238095Y-41981009D01*
X146238095Y-41981009D02*
X146142857Y-42028628D01*
X146142857Y-42028628D02*
X145761905Y-42028628D01*
X147190476Y-41838152D02*
X147190476Y-42504819D01*
X146952381Y-41457200D02*
X146714286Y-42171485D01*
X146714286Y-42171485D02*
X147333333Y-42171485D01*
X175333333Y-24204819D02*
X175000000Y-23728628D01*
X174761905Y-24204819D02*
X174761905Y-23204819D01*
X174761905Y-23204819D02*
X175142857Y-23204819D01*
X175142857Y-23204819D02*
X175238095Y-23252438D01*
X175238095Y-23252438D02*
X175285714Y-23300057D01*
X175285714Y-23300057D02*
X175333333Y-23395295D01*
X175333333Y-23395295D02*
X175333333Y-23538152D01*
X175333333Y-23538152D02*
X175285714Y-23633390D01*
X175285714Y-23633390D02*
X175238095Y-23681009D01*
X175238095Y-23681009D02*
X175142857Y-23728628D01*
X175142857Y-23728628D02*
X174761905Y-23728628D01*
X176285714Y-24204819D02*
X175714286Y-24204819D01*
X176000000Y-24204819D02*
X176000000Y-23204819D01*
X176000000Y-23204819D02*
X175904762Y-23347676D01*
X175904762Y-23347676D02*
X175809524Y-23442914D01*
X175809524Y-23442914D02*
X175714286Y-23490533D01*
D13*
X125766666Y-29357419D02*
X125766666Y-30071704D01*
X125766666Y-30071704D02*
X125719047Y-30214561D01*
X125719047Y-30214561D02*
X125623809Y-30309800D01*
X125623809Y-30309800D02*
X125480952Y-30357419D01*
X125480952Y-30357419D02*
X125385714Y-30357419D01*
X126195238Y-29452657D02*
X126242857Y-29405038D01*
X126242857Y-29405038D02*
X126338095Y-29357419D01*
X126338095Y-29357419D02*
X126576190Y-29357419D01*
X126576190Y-29357419D02*
X126671428Y-29405038D01*
X126671428Y-29405038D02*
X126719047Y-29452657D01*
X126719047Y-29452657D02*
X126766666Y-29547895D01*
X126766666Y-29547895D02*
X126766666Y-29643133D01*
X126766666Y-29643133D02*
X126719047Y-29785990D01*
X126719047Y-29785990D02*
X126147619Y-30357419D01*
X126147619Y-30357419D02*
X126766666Y-30357419D01*
X145766666Y-29357419D02*
X145766666Y-30071704D01*
X145766666Y-30071704D02*
X145719047Y-30214561D01*
X145719047Y-30214561D02*
X145623809Y-30309800D01*
X145623809Y-30309800D02*
X145480952Y-30357419D01*
X145480952Y-30357419D02*
X145385714Y-30357419D01*
X146766666Y-30357419D02*
X146195238Y-30357419D01*
X146480952Y-30357419D02*
X146480952Y-29357419D01*
X146480952Y-29357419D02*
X146385714Y-29500276D01*
X146385714Y-29500276D02*
X146290476Y-29595514D01*
X146290476Y-29595514D02*
X146195238Y-29643133D01*
D12*
X169333333Y-35454819D02*
X169000000Y-34978628D01*
X168761905Y-35454819D02*
X168761905Y-34454819D01*
X168761905Y-34454819D02*
X169142857Y-34454819D01*
X169142857Y-34454819D02*
X169238095Y-34502438D01*
X169238095Y-34502438D02*
X169285714Y-34550057D01*
X169285714Y-34550057D02*
X169333333Y-34645295D01*
X169333333Y-34645295D02*
X169333333Y-34788152D01*
X169333333Y-34788152D02*
X169285714Y-34883390D01*
X169285714Y-34883390D02*
X169238095Y-34931009D01*
X169238095Y-34931009D02*
X169142857Y-34978628D01*
X169142857Y-34978628D02*
X168761905Y-34978628D01*
X169666667Y-34454819D02*
X170285714Y-34454819D01*
X170285714Y-34454819D02*
X169952381Y-34835771D01*
X169952381Y-34835771D02*
X170095238Y-34835771D01*
X170095238Y-34835771D02*
X170190476Y-34883390D01*
X170190476Y-34883390D02*
X170238095Y-34931009D01*
X170238095Y-34931009D02*
X170285714Y-35026247D01*
X170285714Y-35026247D02*
X170285714Y-35264342D01*
X170285714Y-35264342D02*
X170238095Y-35359580D01*
X170238095Y-35359580D02*
X170190476Y-35407200D01*
X170190476Y-35407200D02*
X170095238Y-35454819D01*
X170095238Y-35454819D02*
X169809524Y-35454819D01*
X169809524Y-35454819D02*
X169714286Y-35407200D01*
X169714286Y-35407200D02*
X169666667Y-35359580D01*
X151633333Y-52759580D02*
X151585714Y-52807200D01*
X151585714Y-52807200D02*
X151442857Y-52854819D01*
X151442857Y-52854819D02*
X151347619Y-52854819D01*
X151347619Y-52854819D02*
X151204762Y-52807200D01*
X151204762Y-52807200D02*
X151109524Y-52711961D01*
X151109524Y-52711961D02*
X151061905Y-52616723D01*
X151061905Y-52616723D02*
X151014286Y-52426247D01*
X151014286Y-52426247D02*
X151014286Y-52283390D01*
X151014286Y-52283390D02*
X151061905Y-52092914D01*
X151061905Y-52092914D02*
X151109524Y-51997676D01*
X151109524Y-51997676D02*
X151204762Y-51902438D01*
X151204762Y-51902438D02*
X151347619Y-51854819D01*
X151347619Y-51854819D02*
X151442857Y-51854819D01*
X151442857Y-51854819D02*
X151585714Y-51902438D01*
X151585714Y-51902438D02*
X151633333Y-51950057D01*
X151966667Y-51854819D02*
X152585714Y-51854819D01*
X152585714Y-51854819D02*
X152252381Y-52235771D01*
X152252381Y-52235771D02*
X152395238Y-52235771D01*
X152395238Y-52235771D02*
X152490476Y-52283390D01*
X152490476Y-52283390D02*
X152538095Y-52331009D01*
X152538095Y-52331009D02*
X152585714Y-52426247D01*
X152585714Y-52426247D02*
X152585714Y-52664342D01*
X152585714Y-52664342D02*
X152538095Y-52759580D01*
X152538095Y-52759580D02*
X152490476Y-52807200D01*
X152490476Y-52807200D02*
X152395238Y-52854819D01*
X152395238Y-52854819D02*
X152109524Y-52854819D01*
X152109524Y-52854819D02*
X152014286Y-52807200D01*
X152014286Y-52807200D02*
X151966667Y-52759580D01*
X153833333Y-63959580D02*
X153785714Y-64007200D01*
X153785714Y-64007200D02*
X153642857Y-64054819D01*
X153642857Y-64054819D02*
X153547619Y-64054819D01*
X153547619Y-64054819D02*
X153404762Y-64007200D01*
X153404762Y-64007200D02*
X153309524Y-63911961D01*
X153309524Y-63911961D02*
X153261905Y-63816723D01*
X153261905Y-63816723D02*
X153214286Y-63626247D01*
X153214286Y-63626247D02*
X153214286Y-63483390D01*
X153214286Y-63483390D02*
X153261905Y-63292914D01*
X153261905Y-63292914D02*
X153309524Y-63197676D01*
X153309524Y-63197676D02*
X153404762Y-63102438D01*
X153404762Y-63102438D02*
X153547619Y-63054819D01*
X153547619Y-63054819D02*
X153642857Y-63054819D01*
X153642857Y-63054819D02*
X153785714Y-63102438D01*
X153785714Y-63102438D02*
X153833333Y-63150057D01*
X154690476Y-63388152D02*
X154690476Y-64054819D01*
X154452381Y-63007200D02*
X154214286Y-63721485D01*
X154214286Y-63721485D02*
X154833333Y-63721485D01*
X154033333Y-46904819D02*
X153700000Y-46428628D01*
X153461905Y-46904819D02*
X153461905Y-45904819D01*
X153461905Y-45904819D02*
X153842857Y-45904819D01*
X153842857Y-45904819D02*
X153938095Y-45952438D01*
X153938095Y-45952438D02*
X153985714Y-46000057D01*
X153985714Y-46000057D02*
X154033333Y-46095295D01*
X154033333Y-46095295D02*
X154033333Y-46238152D01*
X154033333Y-46238152D02*
X153985714Y-46333390D01*
X153985714Y-46333390D02*
X153938095Y-46381009D01*
X153938095Y-46381009D02*
X153842857Y-46428628D01*
X153842857Y-46428628D02*
X153461905Y-46428628D01*
X154414286Y-46000057D02*
X154461905Y-45952438D01*
X154461905Y-45952438D02*
X154557143Y-45904819D01*
X154557143Y-45904819D02*
X154795238Y-45904819D01*
X154795238Y-45904819D02*
X154890476Y-45952438D01*
X154890476Y-45952438D02*
X154938095Y-46000057D01*
X154938095Y-46000057D02*
X154985714Y-46095295D01*
X154985714Y-46095295D02*
X154985714Y-46190533D01*
X154985714Y-46190533D02*
X154938095Y-46333390D01*
X154938095Y-46333390D02*
X154366667Y-46904819D01*
X154366667Y-46904819D02*
X154985714Y-46904819D01*
X184861905Y-35054819D02*
X184861905Y-34054819D01*
X184861905Y-34054819D02*
X185100000Y-34054819D01*
X185100000Y-34054819D02*
X185242857Y-34102438D01*
X185242857Y-34102438D02*
X185338095Y-34197676D01*
X185338095Y-34197676D02*
X185385714Y-34292914D01*
X185385714Y-34292914D02*
X185433333Y-34483390D01*
X185433333Y-34483390D02*
X185433333Y-34626247D01*
X185433333Y-34626247D02*
X185385714Y-34816723D01*
X185385714Y-34816723D02*
X185338095Y-34911961D01*
X185338095Y-34911961D02*
X185242857Y-35007200D01*
X185242857Y-35007200D02*
X185100000Y-35054819D01*
X185100000Y-35054819D02*
X184861905Y-35054819D01*
X185814286Y-34150057D02*
X185861905Y-34102438D01*
X185861905Y-34102438D02*
X185957143Y-34054819D01*
X185957143Y-34054819D02*
X186195238Y-34054819D01*
X186195238Y-34054819D02*
X186290476Y-34102438D01*
X186290476Y-34102438D02*
X186338095Y-34150057D01*
X186338095Y-34150057D02*
X186385714Y-34245295D01*
X186385714Y-34245295D02*
X186385714Y-34340533D01*
X186385714Y-34340533D02*
X186338095Y-34483390D01*
X186338095Y-34483390D02*
X185766667Y-35054819D01*
X185766667Y-35054819D02*
X186385714Y-35054819D01*
X180961905Y-28804819D02*
X180961905Y-27804819D01*
X180961905Y-27804819D02*
X181200000Y-27804819D01*
X181200000Y-27804819D02*
X181342857Y-27852438D01*
X181342857Y-27852438D02*
X181438095Y-27947676D01*
X181438095Y-27947676D02*
X181485714Y-28042914D01*
X181485714Y-28042914D02*
X181533333Y-28233390D01*
X181533333Y-28233390D02*
X181533333Y-28376247D01*
X181533333Y-28376247D02*
X181485714Y-28566723D01*
X181485714Y-28566723D02*
X181438095Y-28661961D01*
X181438095Y-28661961D02*
X181342857Y-28757200D01*
X181342857Y-28757200D02*
X181200000Y-28804819D01*
X181200000Y-28804819D02*
X180961905Y-28804819D01*
X182485714Y-28804819D02*
X181914286Y-28804819D01*
X182200000Y-28804819D02*
X182200000Y-27804819D01*
X182200000Y-27804819D02*
X182104762Y-27947676D01*
X182104762Y-27947676D02*
X182009524Y-28042914D01*
X182009524Y-28042914D02*
X181914286Y-28090533D01*
X149533333Y-52809580D02*
X149485714Y-52857200D01*
X149485714Y-52857200D02*
X149342857Y-52904819D01*
X149342857Y-52904819D02*
X149247619Y-52904819D01*
X149247619Y-52904819D02*
X149104762Y-52857200D01*
X149104762Y-52857200D02*
X149009524Y-52761961D01*
X149009524Y-52761961D02*
X148961905Y-52666723D01*
X148961905Y-52666723D02*
X148914286Y-52476247D01*
X148914286Y-52476247D02*
X148914286Y-52333390D01*
X148914286Y-52333390D02*
X148961905Y-52142914D01*
X148961905Y-52142914D02*
X149009524Y-52047676D01*
X149009524Y-52047676D02*
X149104762Y-51952438D01*
X149104762Y-51952438D02*
X149247619Y-51904819D01*
X149247619Y-51904819D02*
X149342857Y-51904819D01*
X149342857Y-51904819D02*
X149485714Y-51952438D01*
X149485714Y-51952438D02*
X149533333Y-52000057D01*
X149914286Y-52000057D02*
X149961905Y-51952438D01*
X149961905Y-51952438D02*
X150057143Y-51904819D01*
X150057143Y-51904819D02*
X150295238Y-51904819D01*
X150295238Y-51904819D02*
X150390476Y-51952438D01*
X150390476Y-51952438D02*
X150438095Y-52000057D01*
X150438095Y-52000057D02*
X150485714Y-52095295D01*
X150485714Y-52095295D02*
X150485714Y-52190533D01*
X150485714Y-52190533D02*
X150438095Y-52333390D01*
X150438095Y-52333390D02*
X149866667Y-52904819D01*
X149866667Y-52904819D02*
X150485714Y-52904819D01*
X173304761Y-28687557D02*
X173209523Y-28639938D01*
X173209523Y-28639938D02*
X173114285Y-28544700D01*
X173114285Y-28544700D02*
X172971428Y-28401842D01*
X172971428Y-28401842D02*
X172876190Y-28354223D01*
X172876190Y-28354223D02*
X172780952Y-28354223D01*
X172828571Y-28592319D02*
X172733333Y-28544700D01*
X172733333Y-28544700D02*
X172638095Y-28449461D01*
X172638095Y-28449461D02*
X172590476Y-28258985D01*
X172590476Y-28258985D02*
X172590476Y-27925652D01*
X172590476Y-27925652D02*
X172638095Y-27735176D01*
X172638095Y-27735176D02*
X172733333Y-27639938D01*
X172733333Y-27639938D02*
X172828571Y-27592319D01*
X172828571Y-27592319D02*
X173019047Y-27592319D01*
X173019047Y-27592319D02*
X173114285Y-27639938D01*
X173114285Y-27639938D02*
X173209523Y-27735176D01*
X173209523Y-27735176D02*
X173257142Y-27925652D01*
X173257142Y-27925652D02*
X173257142Y-28258985D01*
X173257142Y-28258985D02*
X173209523Y-28449461D01*
X173209523Y-28449461D02*
X173114285Y-28544700D01*
X173114285Y-28544700D02*
X173019047Y-28592319D01*
X173019047Y-28592319D02*
X172828571Y-28592319D01*
X174209523Y-28592319D02*
X173638095Y-28592319D01*
X173923809Y-28592319D02*
X173923809Y-27592319D01*
X173923809Y-27592319D02*
X173828571Y-27735176D01*
X173828571Y-27735176D02*
X173733333Y-27830414D01*
X173733333Y-27830414D02*
X173638095Y-27878033D01*
X147433333Y-52759580D02*
X147385714Y-52807200D01*
X147385714Y-52807200D02*
X147242857Y-52854819D01*
X147242857Y-52854819D02*
X147147619Y-52854819D01*
X147147619Y-52854819D02*
X147004762Y-52807200D01*
X147004762Y-52807200D02*
X146909524Y-52711961D01*
X146909524Y-52711961D02*
X146861905Y-52616723D01*
X146861905Y-52616723D02*
X146814286Y-52426247D01*
X146814286Y-52426247D02*
X146814286Y-52283390D01*
X146814286Y-52283390D02*
X146861905Y-52092914D01*
X146861905Y-52092914D02*
X146909524Y-51997676D01*
X146909524Y-51997676D02*
X147004762Y-51902438D01*
X147004762Y-51902438D02*
X147147619Y-51854819D01*
X147147619Y-51854819D02*
X147242857Y-51854819D01*
X147242857Y-51854819D02*
X147385714Y-51902438D01*
X147385714Y-51902438D02*
X147433333Y-51950057D01*
X148338095Y-51854819D02*
X147861905Y-51854819D01*
X147861905Y-51854819D02*
X147814286Y-52331009D01*
X147814286Y-52331009D02*
X147861905Y-52283390D01*
X147861905Y-52283390D02*
X147957143Y-52235771D01*
X147957143Y-52235771D02*
X148195238Y-52235771D01*
X148195238Y-52235771D02*
X148290476Y-52283390D01*
X148290476Y-52283390D02*
X148338095Y-52331009D01*
X148338095Y-52331009D02*
X148385714Y-52426247D01*
X148385714Y-52426247D02*
X148385714Y-52664342D01*
X148385714Y-52664342D02*
X148338095Y-52759580D01*
X148338095Y-52759580D02*
X148290476Y-52807200D01*
X148290476Y-52807200D02*
X148195238Y-52854819D01*
X148195238Y-52854819D02*
X147957143Y-52854819D01*
X147957143Y-52854819D02*
X147861905Y-52807200D01*
X147861905Y-52807200D02*
X147814286Y-52759580D01*
X178333333Y-24359580D02*
X178285714Y-24407200D01*
X178285714Y-24407200D02*
X178142857Y-24454819D01*
X178142857Y-24454819D02*
X178047619Y-24454819D01*
X178047619Y-24454819D02*
X177904762Y-24407200D01*
X177904762Y-24407200D02*
X177809524Y-24311961D01*
X177809524Y-24311961D02*
X177761905Y-24216723D01*
X177761905Y-24216723D02*
X177714286Y-24026247D01*
X177714286Y-24026247D02*
X177714286Y-23883390D01*
X177714286Y-23883390D02*
X177761905Y-23692914D01*
X177761905Y-23692914D02*
X177809524Y-23597676D01*
X177809524Y-23597676D02*
X177904762Y-23502438D01*
X177904762Y-23502438D02*
X178047619Y-23454819D01*
X178047619Y-23454819D02*
X178142857Y-23454819D01*
X178142857Y-23454819D02*
X178285714Y-23502438D01*
X178285714Y-23502438D02*
X178333333Y-23550057D01*
X179285714Y-24454819D02*
X178714286Y-24454819D01*
X179000000Y-24454819D02*
X179000000Y-23454819D01*
X179000000Y-23454819D02*
X178904762Y-23597676D01*
X178904762Y-23597676D02*
X178809524Y-23692914D01*
X178809524Y-23692914D02*
X178714286Y-23740533D01*
D13*
X125766666Y-59357419D02*
X125766666Y-60071704D01*
X125766666Y-60071704D02*
X125719047Y-60214561D01*
X125719047Y-60214561D02*
X125623809Y-60309800D01*
X125623809Y-60309800D02*
X125480952Y-60357419D01*
X125480952Y-60357419D02*
X125385714Y-60357419D01*
X126671428Y-59690752D02*
X126671428Y-60357419D01*
X126433333Y-59309800D02*
X126195238Y-60024085D01*
X126195238Y-60024085D02*
X126814285Y-60024085D01*
X162166666Y-19433609D02*
X161833333Y-19433609D01*
X161833333Y-19957419D02*
X161833333Y-18957419D01*
X161833333Y-18957419D02*
X162309523Y-18957419D01*
X163214285Y-19957419D02*
X162642857Y-19957419D01*
X162928571Y-19957419D02*
X162928571Y-18957419D01*
X162928571Y-18957419D02*
X162833333Y-19100276D01*
X162833333Y-19100276D02*
X162738095Y-19195514D01*
X162738095Y-19195514D02*
X162642857Y-19243133D01*
D12*
X148261905Y-72954819D02*
X148261905Y-71954819D01*
X148261905Y-71954819D02*
X148500000Y-71954819D01*
X148500000Y-71954819D02*
X148642857Y-72002438D01*
X148642857Y-72002438D02*
X148738095Y-72097676D01*
X148738095Y-72097676D02*
X148785714Y-72192914D01*
X148785714Y-72192914D02*
X148833333Y-72383390D01*
X148833333Y-72383390D02*
X148833333Y-72526247D01*
X148833333Y-72526247D02*
X148785714Y-72716723D01*
X148785714Y-72716723D02*
X148738095Y-72811961D01*
X148738095Y-72811961D02*
X148642857Y-72907200D01*
X148642857Y-72907200D02*
X148500000Y-72954819D01*
X148500000Y-72954819D02*
X148261905Y-72954819D01*
X149166667Y-71954819D02*
X149785714Y-71954819D01*
X149785714Y-71954819D02*
X149452381Y-72335771D01*
X149452381Y-72335771D02*
X149595238Y-72335771D01*
X149595238Y-72335771D02*
X149690476Y-72383390D01*
X149690476Y-72383390D02*
X149738095Y-72431009D01*
X149738095Y-72431009D02*
X149785714Y-72526247D01*
X149785714Y-72526247D02*
X149785714Y-72764342D01*
X149785714Y-72764342D02*
X149738095Y-72859580D01*
X149738095Y-72859580D02*
X149690476Y-72907200D01*
X149690476Y-72907200D02*
X149595238Y-72954819D01*
X149595238Y-72954819D02*
X149309524Y-72954819D01*
X149309524Y-72954819D02*
X149214286Y-72907200D01*
X149214286Y-72907200D02*
X149166667Y-72859580D01*
D13*
X145766666Y-59357419D02*
X145766666Y-60071704D01*
X145766666Y-60071704D02*
X145719047Y-60214561D01*
X145719047Y-60214561D02*
X145623809Y-60309800D01*
X145623809Y-60309800D02*
X145480952Y-60357419D01*
X145480952Y-60357419D02*
X145385714Y-60357419D01*
X146147619Y-59357419D02*
X146766666Y-59357419D01*
X146766666Y-59357419D02*
X146433333Y-59738371D01*
X146433333Y-59738371D02*
X146576190Y-59738371D01*
X146576190Y-59738371D02*
X146671428Y-59785990D01*
X146671428Y-59785990D02*
X146719047Y-59833609D01*
X146719047Y-59833609D02*
X146766666Y-59928847D01*
X146766666Y-59928847D02*
X146766666Y-60166942D01*
X146766666Y-60166942D02*
X146719047Y-60262180D01*
X146719047Y-60262180D02*
X146671428Y-60309800D01*
X146671428Y-60309800D02*
X146576190Y-60357419D01*
X146576190Y-60357419D02*
X146290476Y-60357419D01*
X146290476Y-60357419D02*
X146195238Y-60309800D01*
X146195238Y-60309800D02*
X146147619Y-60262180D01*
D14*
%TO.C,R4*%
X145590000Y-37772936D02*
X145590000Y-39227064D01*
X147410000Y-37772936D02*
X147410000Y-39227064D01*
%TO.C,R1*%
X174715000Y-26777064D02*
X174715000Y-26322936D01*
X176185000Y-26777064D02*
X176185000Y-26322936D01*
%TO.C,R3*%
X168765000Y-37472936D02*
X168765000Y-37927064D01*
X170235000Y-37472936D02*
X170235000Y-37927064D01*
%TO.C,C3*%
X151065000Y-50261252D02*
X151065000Y-49738748D01*
X152535000Y-50261252D02*
X152535000Y-49738748D01*
%TO.C,C4*%
X153265000Y-65738748D02*
X153265000Y-66261252D01*
X154735000Y-65738748D02*
X154735000Y-66261252D01*
%TO.C,R2*%
X153290000Y-50677064D02*
X153290000Y-49222936D01*
X155110000Y-50677064D02*
X155110000Y-49222936D01*
%TO.C,D1*%
X179000000Y-33510000D02*
X179000000Y-29650000D01*
X179000000Y-33510000D02*
X181000000Y-33510000D01*
X181000000Y-33510000D02*
X181000000Y-29650000D01*
%TO.C,C2*%
X148965000Y-50261252D02*
X148965000Y-49738748D01*
X150435000Y-50261252D02*
X150435000Y-49738748D01*
%TO.C,Q1*%
X172080000Y-29177500D02*
X174660000Y-29177500D01*
X174660000Y-30157500D02*
X174660000Y-29177500D01*
X174660000Y-32917500D02*
X174660000Y-33897500D01*
X174660000Y-33897500D02*
X171940000Y-33897500D01*
X171530000Y-29327500D02*
X171290000Y-28997500D01*
X171770000Y-28997500D01*
X171530000Y-29327500D01*
G36*
X171530000Y-29327500D02*
G01*
X171290000Y-28997500D01*
X171770000Y-28997500D01*
X171530000Y-29327500D01*
G37*
%TO.C,C5*%
X146865000Y-50261252D02*
X146865000Y-49738748D01*
X148335000Y-50261252D02*
X148335000Y-49738748D01*
%TO.C,C1*%
X177615000Y-26861252D02*
X177615000Y-26338748D01*
X179085000Y-26861252D02*
X179085000Y-26338748D01*
D15*
%TO.C,G\u002A\u002A\u002A*%
G36*
X103505642Y-42897236D02*
G01*
X103515402Y-42965058D01*
X103486258Y-43066423D01*
X103415005Y-43071880D01*
X103383180Y-43046935D01*
X103369708Y-42968101D01*
X103410748Y-42879177D01*
X103463259Y-42848276D01*
X103505642Y-42897236D01*
G37*
G36*
X106427865Y-42898900D02*
G01*
X106431090Y-42903879D01*
X106460835Y-43011866D01*
X106409257Y-43076800D01*
X106376552Y-43081839D01*
X106299721Y-43040353D01*
X106296264Y-43035258D01*
X106298682Y-42952400D01*
X106322014Y-42903879D01*
X106375497Y-42848305D01*
X106427865Y-42898900D01*
G37*
G36*
X104979792Y-45562389D02*
G01*
X105211989Y-45681416D01*
X105408687Y-45843642D01*
X105517459Y-45987336D01*
X105557539Y-46140396D01*
X105559081Y-46184901D01*
X105509612Y-46344628D01*
X105381109Y-46520010D01*
X105203426Y-46684495D01*
X105006417Y-46811536D01*
X104819938Y-46874582D01*
X104780558Y-46877241D01*
X104691713Y-46846486D01*
X104553753Y-46769465D01*
X104502024Y-46735696D01*
X104260250Y-46526080D01*
X104131600Y-46308045D01*
X104116259Y-46089761D01*
X104214417Y-45879399D01*
X104426259Y-45685130D01*
X104477187Y-45652063D01*
X104732072Y-45549113D01*
X104979792Y-45562389D01*
G37*
G36*
X105675862Y-47274525D02*
G01*
X105636328Y-47328139D01*
X105530546Y-47441181D01*
X105377751Y-47593510D01*
X105297560Y-47670671D01*
X105113019Y-47841712D01*
X104991188Y-47939598D01*
X104913868Y-47975384D01*
X104862862Y-47960130D01*
X104847383Y-47944208D01*
X104764623Y-47869618D01*
X104615348Y-47755782D01*
X104431175Y-47626760D01*
X104422812Y-47621142D01*
X104224542Y-47488150D01*
X104105439Y-47406002D01*
X104048101Y-47359876D01*
X104035124Y-47334950D01*
X104049107Y-47316401D01*
X104056600Y-47309223D01*
X104126903Y-47306649D01*
X104270511Y-47337347D01*
X104393570Y-47374329D01*
X104622386Y-47424618D01*
X104876518Y-47441499D01*
X105115782Y-47426029D01*
X105299991Y-47379267D01*
X105353253Y-47349047D01*
X105447889Y-47300752D01*
X105564706Y-47267219D01*
X105654798Y-47259745D01*
X105675862Y-47274525D01*
G37*
G36*
X102870466Y-44001105D02*
G01*
X102873104Y-44086995D01*
X102917061Y-44259092D01*
X103028378Y-44383621D01*
X103158068Y-44424828D01*
X103285757Y-44458171D01*
X103369619Y-44505335D01*
X103441224Y-44569670D01*
X103440254Y-44636432D01*
X103380779Y-44736844D01*
X103306760Y-44938792D01*
X103281839Y-45240245D01*
X103273227Y-45425620D01*
X103250831Y-45553271D01*
X103224635Y-45592644D01*
X103166494Y-45545089D01*
X103084491Y-45424566D01*
X103043380Y-45349484D01*
X102952508Y-45093716D01*
X102950936Y-44911553D01*
X102968799Y-44767444D01*
X102949696Y-44726003D01*
X102881586Y-44775804D01*
X102845298Y-44811319D01*
X102771678Y-44871664D01*
X102725436Y-44863634D01*
X102699289Y-44772836D01*
X102685956Y-44584880D01*
X102682881Y-44490348D01*
X102686938Y-44260182D01*
X102718770Y-44114242D01*
X102773038Y-44032743D01*
X102845528Y-43970233D01*
X102870466Y-44001105D01*
G37*
G36*
X107001774Y-43980810D02*
G01*
X107049903Y-44041850D01*
X107087799Y-44140097D01*
X107116615Y-44301385D01*
X107134471Y-44491362D01*
X107139486Y-44675676D01*
X107129781Y-44819976D01*
X107103475Y-44889909D01*
X107096437Y-44891954D01*
X107027631Y-44856920D01*
X106950032Y-44794931D01*
X106878974Y-44737651D01*
X106859673Y-44760273D01*
X106879157Y-44879572D01*
X106880272Y-44885151D01*
X106882828Y-45067657D01*
X106811124Y-45277425D01*
X106783933Y-45332519D01*
X106698117Y-45481903D01*
X106626798Y-45575975D01*
X106600935Y-45592644D01*
X106573911Y-45539855D01*
X106556036Y-45403761D01*
X106551724Y-45273475D01*
X106531160Y-45032761D01*
X106478268Y-44810935D01*
X106451678Y-44744507D01*
X106392333Y-44604114D01*
X106389201Y-44527864D01*
X106437080Y-44480662D01*
X106558993Y-44439031D01*
X106681049Y-44425722D01*
X106839218Y-44374367D01*
X106936038Y-44231285D01*
X106962317Y-44063724D01*
X106968911Y-43969793D01*
X107001774Y-43980810D01*
G37*
G36*
X106776142Y-42670882D02*
G01*
X106990794Y-42701240D01*
X107210410Y-42743280D01*
X107398993Y-42791022D01*
X107518788Y-42837453D01*
X107564138Y-42874307D01*
X107529913Y-42894831D01*
X107401260Y-42903548D01*
X107297394Y-42904891D01*
X107106726Y-42909687D01*
X106994499Y-42934644D01*
X106922372Y-42999482D01*
X106852006Y-43123922D01*
X106845045Y-43137550D01*
X106748064Y-43292935D01*
X106636775Y-43371458D01*
X106508111Y-43402753D01*
X106313361Y-43433292D01*
X106137893Y-43460868D01*
X106128391Y-43462364D01*
X106001461Y-43459415D01*
X105962159Y-43416126D01*
X105961119Y-43191455D01*
X105989056Y-42988811D01*
X106038435Y-42831055D01*
X106101724Y-42741047D01*
X106171389Y-42741649D01*
X106181499Y-42750541D01*
X106183092Y-42819935D01*
X106153694Y-42860927D01*
X106091903Y-42993394D01*
X106101295Y-43151134D01*
X106154667Y-43245333D01*
X106268639Y-43301485D01*
X106419990Y-43314353D01*
X106558583Y-43286273D01*
X106633063Y-43223041D01*
X106664282Y-43020593D01*
X106585557Y-42853452D01*
X106549521Y-42817087D01*
X106474526Y-42729276D01*
X106494236Y-42676005D01*
X106505728Y-42669138D01*
X106602454Y-42658188D01*
X106776142Y-42670882D01*
G37*
G36*
X106497335Y-40301259D02*
G01*
X106697290Y-40342735D01*
X106814483Y-40367864D01*
X107003047Y-40410746D01*
X107096832Y-40444619D01*
X107115650Y-40482977D01*
X107079315Y-40539311D01*
X107074614Y-40545005D01*
X107035068Y-40639944D01*
X107053440Y-40680447D01*
X107153105Y-40730793D01*
X107320878Y-40786390D01*
X107509538Y-40834146D01*
X107671862Y-40860965D01*
X107711717Y-40862989D01*
X107817527Y-40891238D01*
X107821891Y-40958439D01*
X107740538Y-41027571D01*
X107676498Y-41099851D01*
X107718618Y-41172954D01*
X107857160Y-41233354D01*
X107895382Y-41242676D01*
X108017682Y-41285039D01*
X108069862Y-41333873D01*
X108069885Y-41334754D01*
X108018532Y-41370156D01*
X107887630Y-41380391D01*
X107711912Y-41364315D01*
X107631954Y-41349189D01*
X107432835Y-41292278D01*
X107232604Y-41214330D01*
X107060560Y-41129531D01*
X106946001Y-41052069D01*
X106915750Y-41002374D01*
X106878820Y-40927049D01*
X106767796Y-40840023D01*
X106731269Y-40819758D01*
X106590421Y-40730737D01*
X106499955Y-40643197D01*
X106492184Y-40629425D01*
X106435216Y-40510562D01*
X106380526Y-40403084D01*
X106345312Y-40334381D01*
X106340364Y-40295538D01*
X106384699Y-40285012D01*
X106497335Y-40301259D01*
G37*
G36*
X106785287Y-41966084D02*
G01*
X106741668Y-42027754D01*
X106722726Y-42030805D01*
X106635361Y-42068442D01*
X106564874Y-42126094D01*
X106503086Y-42194714D01*
X106532236Y-42201848D01*
X106583643Y-42187737D01*
X106745585Y-42153723D01*
X106951782Y-42127941D01*
X107159444Y-42113666D01*
X107325782Y-42114173D01*
X107396024Y-42125562D01*
X107472170Y-42165436D01*
X107478816Y-42204360D01*
X107407054Y-42245535D01*
X107247974Y-42292160D01*
X106992665Y-42347437D01*
X106632219Y-42414564D01*
X106551724Y-42428815D01*
X106311115Y-42456332D01*
X106172930Y-42435688D01*
X106156491Y-42425180D01*
X106063931Y-42403883D01*
X105979165Y-42458465D01*
X105841951Y-42522440D01*
X105753287Y-42519827D01*
X105639391Y-42519683D01*
X105591420Y-42551235D01*
X105508970Y-42611923D01*
X105427234Y-42566600D01*
X105401523Y-42518004D01*
X105419290Y-42405123D01*
X105547172Y-42258007D01*
X105550254Y-42255245D01*
X105711542Y-42141135D01*
X105855276Y-42091130D01*
X105954374Y-42112061D01*
X105977548Y-42147494D01*
X106036753Y-42160788D01*
X106166195Y-42121210D01*
X106230575Y-42092196D01*
X106462849Y-41991578D01*
X106644536Y-41937085D01*
X106757189Y-41932910D01*
X106785287Y-41966084D01*
G37*
G36*
X103347246Y-42671252D02*
G01*
X103337570Y-42748033D01*
X103281644Y-42819288D01*
X103181382Y-43000284D01*
X103175190Y-43119551D01*
X103199300Y-43227258D01*
X103262488Y-43274748D01*
X103401084Y-43286124D01*
X103426410Y-43286207D01*
X103583237Y-43274675D01*
X103667080Y-43223795D01*
X103716792Y-43120645D01*
X103746046Y-42992635D01*
X103707846Y-42920548D01*
X103674405Y-42898778D01*
X103588826Y-42822197D01*
X103585176Y-42755225D01*
X103651513Y-42731494D01*
X103741065Y-42784243D01*
X103817402Y-42920027D01*
X103863752Y-43105155D01*
X103869517Y-43169425D01*
X103873819Y-43361126D01*
X103860384Y-43458205D01*
X103825972Y-43481921D01*
X103821954Y-43481230D01*
X103738890Y-43469429D01*
X103593800Y-43452950D01*
X103573793Y-43450870D01*
X103334285Y-43418586D01*
X103180921Y-43371916D01*
X103083067Y-43295812D01*
X103010088Y-43175224D01*
X103009297Y-43173570D01*
X102902916Y-43026048D01*
X102741596Y-42941243D01*
X102500928Y-42908159D01*
X102416713Y-42906667D01*
X102313749Y-42901542D01*
X102317761Y-42870857D01*
X102380219Y-42820938D01*
X102516849Y-42760837D01*
X102691298Y-42733464D01*
X102698317Y-42733351D01*
X102898474Y-42716955D01*
X103077857Y-42682091D01*
X103258912Y-42648085D01*
X103347246Y-42671252D01*
G37*
G36*
X103445892Y-40314139D02*
G01*
X103441118Y-40387737D01*
X103401171Y-40423481D01*
X103368011Y-40499752D01*
X103375525Y-40536679D01*
X103354113Y-40623372D01*
X103260767Y-40725955D01*
X103131224Y-40815089D01*
X103001216Y-40861435D01*
X102978076Y-40862989D01*
X102896081Y-40890130D01*
X102899943Y-40972348D01*
X102900367Y-41043962D01*
X102835852Y-41107123D01*
X102685523Y-41179459D01*
X102626522Y-41203240D01*
X102387247Y-41283090D01*
X102132335Y-41346809D01*
X102026584Y-41365437D01*
X101858407Y-41385829D01*
X101785133Y-41381479D01*
X101786507Y-41347057D01*
X101814768Y-41309716D01*
X101934571Y-41232598D01*
X102033586Y-41213333D01*
X102146521Y-41197457D01*
X102159367Y-41140324D01*
X102075454Y-41027803D01*
X102012248Y-40936724D01*
X102007556Y-40891601D01*
X102076316Y-40866428D01*
X102225142Y-40830698D01*
X102381873Y-40799648D01*
X102622222Y-40747442D01*
X102757810Y-40693573D01*
X102800485Y-40630041D01*
X102762095Y-40548844D01*
X102758949Y-40545005D01*
X102714725Y-40469635D01*
X102761287Y-40434841D01*
X102764343Y-40433994D01*
X102870757Y-40402510D01*
X103027697Y-40353593D01*
X103052422Y-40345717D01*
X103217412Y-40301100D01*
X103347259Y-40279464D01*
X103358973Y-40279081D01*
X103445892Y-40314139D01*
G37*
G36*
X103151377Y-41937127D02*
G01*
X103326895Y-41983311D01*
X103531472Y-42058475D01*
X103589308Y-42083835D01*
X103743650Y-42148298D01*
X103823094Y-42158647D01*
X103854558Y-42117962D01*
X103855431Y-42114307D01*
X103879383Y-42048648D01*
X103930503Y-42040237D01*
X104041693Y-42088806D01*
X104087750Y-42112413D01*
X104267383Y-42232292D01*
X104390584Y-42366984D01*
X104435672Y-42490309D01*
X104429374Y-42524952D01*
X104365114Y-42594263D01*
X104277937Y-42613158D01*
X104219986Y-42574988D01*
X104216092Y-42552143D01*
X104167363Y-42510891D01*
X104078233Y-42507639D01*
X103926492Y-42488221D01*
X103839928Y-42442342D01*
X103728838Y-42390472D01*
X103637515Y-42422660D01*
X103483069Y-42457917D01*
X103277314Y-42436786D01*
X102927412Y-42368877D01*
X102676590Y-42317811D01*
X102509023Y-42279587D01*
X102408884Y-42250206D01*
X102360347Y-42225668D01*
X102347587Y-42201972D01*
X102347586Y-42201789D01*
X102399865Y-42176782D01*
X103281839Y-42176782D01*
X103311035Y-42205977D01*
X103340230Y-42176782D01*
X103311035Y-42147586D01*
X103281839Y-42176782D01*
X102399865Y-42176782D01*
X102401282Y-42176104D01*
X102543658Y-42156633D01*
X102746644Y-42146820D01*
X102800115Y-42146288D01*
X103252644Y-42144990D01*
X103106667Y-42024691D01*
X102960690Y-41904392D01*
X103151377Y-41937127D01*
G37*
G36*
X108478781Y-37649747D02*
G01*
X108618387Y-37812840D01*
X108752100Y-38072127D01*
X108874867Y-38417352D01*
X108981639Y-38838258D01*
X109003028Y-38942783D01*
X109089196Y-39225017D01*
X109210924Y-39405490D01*
X109329736Y-39558220D01*
X109339438Y-39708455D01*
X109259731Y-39862856D01*
X109204426Y-39992869D01*
X109158046Y-40191422D01*
X109135327Y-40367542D01*
X109125004Y-40591593D01*
X109143608Y-40748285D01*
X109199609Y-40885234D01*
X109239575Y-40953607D01*
X109373477Y-41170264D01*
X109889443Y-41131314D01*
X110405410Y-41092364D01*
X110504410Y-41299969D01*
X110564201Y-41436766D01*
X110568833Y-41512180D01*
X110516149Y-41568888D01*
X110489866Y-41587912D01*
X110302154Y-41727461D01*
X110119436Y-41874433D01*
X109969161Y-42005641D01*
X109878777Y-42097899D01*
X109868259Y-42113022D01*
X109861782Y-42203908D01*
X109883972Y-42366441D01*
X109925833Y-42561731D01*
X109978364Y-42750883D01*
X110032569Y-42895005D01*
X110059810Y-42940957D01*
X110141912Y-42987528D01*
X110300103Y-43042221D01*
X110448574Y-43080921D01*
X110731946Y-43156953D01*
X110914354Y-43238371D01*
X111011470Y-43336364D01*
X111038967Y-43462118D01*
X111036650Y-43500708D01*
X111020139Y-43590375D01*
X110976883Y-43655758D01*
X110883780Y-43712674D01*
X110717728Y-43776938D01*
X110551494Y-43832861D01*
X110311831Y-43917116D01*
X110156840Y-43997934D01*
X110067237Y-44102724D01*
X110023737Y-44258897D01*
X110007057Y-44493861D01*
X110003690Y-44611477D01*
X110004549Y-44762313D01*
X110031072Y-44863336D01*
X110105039Y-44948667D01*
X110248230Y-45052426D01*
X110312504Y-45095276D01*
X110531174Y-45246631D01*
X110664751Y-45361047D01*
X110729326Y-45459890D01*
X110740991Y-45564526D01*
X110727661Y-45646507D01*
X110689131Y-45821935D01*
X110157531Y-45838669D01*
X109625931Y-45855402D01*
X109459132Y-46147356D01*
X109361643Y-46320480D01*
X109286331Y-46458709D01*
X109257921Y-46514511D01*
X109272500Y-46594795D01*
X109341426Y-46742656D01*
X109451237Y-46930594D01*
X109493364Y-46995535D01*
X109617366Y-47187523D01*
X109711320Y-47343469D01*
X109759816Y-47437410D01*
X109763218Y-47450271D01*
X109724537Y-47520307D01*
X109630708Y-47623606D01*
X109623488Y-47630454D01*
X109483757Y-47761724D01*
X109170959Y-47631087D01*
X108991067Y-47551761D01*
X108854057Y-47483711D01*
X108802690Y-47451605D01*
X108671115Y-47405553D01*
X108494600Y-47461997D01*
X108270199Y-47622016D01*
X108221580Y-47664509D01*
X107935344Y-47921027D01*
X108011264Y-48364863D01*
X108087185Y-48808699D01*
X108355891Y-48762626D01*
X108828856Y-48721427D01*
X109235961Y-48773186D01*
X109584114Y-48919523D01*
X109826552Y-49107439D01*
X110025977Y-49300460D01*
X109522230Y-49317226D01*
X109018484Y-49333993D01*
X108660966Y-49706310D01*
X108500875Y-49879464D01*
X108377830Y-50024801D01*
X108310562Y-50119648D01*
X108303448Y-50139041D01*
X108338819Y-50208445D01*
X108430713Y-50338377D01*
X108557805Y-50502319D01*
X108698767Y-50673751D01*
X108832273Y-50826154D01*
X108936998Y-50933009D01*
X108953361Y-50947200D01*
X109051163Y-50983948D01*
X109228861Y-51014944D01*
X109449571Y-51033925D01*
X109469203Y-51034786D01*
X109679658Y-51050529D01*
X109838359Y-51076057D01*
X109914938Y-51106234D01*
X109917388Y-51110575D01*
X109884915Y-51176812D01*
X109782524Y-51274382D01*
X109728801Y-51314943D01*
X109580428Y-51423733D01*
X109464029Y-51515414D01*
X109442752Y-51533908D01*
X109333253Y-51574714D01*
X109117091Y-51599387D01*
X108833271Y-51606897D01*
X108578504Y-51604682D01*
X108404960Y-51591989D01*
X108277092Y-51559747D01*
X108159351Y-51498883D01*
X108016187Y-51400325D01*
X108011979Y-51397302D01*
X107818503Y-51236182D01*
X107639166Y-51050653D01*
X107557097Y-50944774D01*
X107393955Y-50701839D01*
X104903201Y-50686617D01*
X102412447Y-50671395D01*
X102235859Y-50928056D01*
X102091476Y-51112807D01*
X101931135Y-51282427D01*
X101867681Y-51338297D01*
X101729652Y-51449166D01*
X101623430Y-51534873D01*
X101605568Y-51549386D01*
X101520298Y-51572994D01*
X101346610Y-51590775D01*
X101112812Y-51600533D01*
X100934074Y-51601467D01*
X100333104Y-51596038D01*
X100070345Y-51339767D01*
X99807586Y-51083496D01*
X100235974Y-51082438D01*
X100664361Y-51081379D01*
X101037413Y-50723157D01*
X101210087Y-50548964D01*
X101349320Y-50392902D01*
X101432952Y-50280425D01*
X101445577Y-50254304D01*
X101437676Y-50167095D01*
X101363914Y-50035893D01*
X101215656Y-49846971D01*
X101119849Y-49736664D01*
X100759008Y-49329655D01*
X100257775Y-49329655D01*
X99756542Y-49329655D01*
X99922110Y-49156839D01*
X100222629Y-48925534D01*
X100361153Y-48872362D01*
X101766343Y-48872362D01*
X101802208Y-48932283D01*
X101897734Y-49046885D01*
X101997241Y-49154483D01*
X102123928Y-49294970D01*
X102208749Y-49405564D01*
X102230805Y-49451201D01*
X102268361Y-49527754D01*
X102349910Y-49623933D01*
X102424538Y-49683583D01*
X102519850Y-49717399D01*
X102665805Y-49730495D01*
X102892362Y-49727986D01*
X102948416Y-49726117D01*
X103187904Y-49714086D01*
X103330218Y-49695777D01*
X103394954Y-49666670D01*
X103401706Y-49622246D01*
X103401517Y-49621609D01*
X103385215Y-49524212D01*
X103365747Y-49345181D01*
X103346799Y-49119466D01*
X103343126Y-49067884D01*
X103311035Y-48601745D01*
X102989885Y-48443884D01*
X102805896Y-48359082D01*
X102656607Y-48300320D01*
X102587340Y-48282322D01*
X102509728Y-48313216D01*
X102372308Y-48395914D01*
X102203195Y-48510209D01*
X102030505Y-48635897D01*
X101882352Y-48752769D01*
X101786852Y-48840621D01*
X101766343Y-48872362D01*
X100361153Y-48872362D01*
X100585339Y-48786309D01*
X100943516Y-48745747D01*
X101110696Y-48744100D01*
X101227151Y-48726688D01*
X101310984Y-48674803D01*
X101380296Y-48569735D01*
X101453188Y-48392778D01*
X101547763Y-48125224D01*
X101549931Y-48119019D01*
X101696462Y-47699616D01*
X101415671Y-47405210D01*
X101259569Y-47257200D01*
X101119710Y-47151632D01*
X101026253Y-47111251D01*
X101025946Y-47111251D01*
X100916012Y-47127989D01*
X100735431Y-47171291D01*
X100537471Y-47227586D01*
X100340628Y-47286082D01*
X100189906Y-47327888D01*
X100118114Y-47343922D01*
X100061245Y-47301312D01*
X99972969Y-47195961D01*
X99956664Y-47173550D01*
X99835031Y-47002732D01*
X100165568Y-46613114D01*
X100496104Y-46223496D01*
X100304147Y-45826701D01*
X100302865Y-45824051D01*
X101413457Y-45824051D01*
X101461048Y-45875533D01*
X101471236Y-45882166D01*
X101567313Y-45904192D01*
X101633354Y-45863856D01*
X101631097Y-45791093D01*
X101614294Y-45770248D01*
X101519113Y-45747980D01*
X101471236Y-45770248D01*
X101413457Y-45824051D01*
X100302865Y-45824051D01*
X100112190Y-45429906D01*
X99620590Y-45388956D01*
X99378585Y-45366066D01*
X99227338Y-45340872D01*
X99141004Y-45304614D01*
X99093737Y-45248532D01*
X99074151Y-45203765D01*
X99034871Y-45078554D01*
X99039563Y-44984343D01*
X99103681Y-44900501D01*
X99242680Y-44806398D01*
X99461227Y-44687091D01*
X99903144Y-44454023D01*
X99864195Y-44016092D01*
X99840834Y-43803928D01*
X99814656Y-43643114D01*
X99790729Y-43563648D01*
X99787221Y-43560373D01*
X99481199Y-43415860D01*
X99265563Y-43307580D01*
X99124512Y-43223158D01*
X99042250Y-43150214D01*
X99002977Y-43076372D01*
X98990896Y-42989253D01*
X98990115Y-42935862D01*
X98990115Y-42702299D01*
X99486437Y-42633712D01*
X99711175Y-42602312D01*
X99885104Y-42577362D01*
X99981143Y-42562774D01*
X99991669Y-42560723D01*
X100011579Y-42507133D01*
X100056072Y-42369479D01*
X100116202Y-42175563D01*
X100127333Y-42139012D01*
X100254087Y-41721702D01*
X99921020Y-41385123D01*
X99750356Y-41204689D01*
X99654131Y-41078069D01*
X99618295Y-40982864D01*
X99624265Y-40911973D01*
X99672996Y-40757704D01*
X99734948Y-40672900D01*
X99837228Y-40647374D01*
X100006945Y-40670935D01*
X100167076Y-40707944D01*
X100375137Y-40756320D01*
X100540964Y-40791018D01*
X100629593Y-40804739D01*
X100630731Y-40804750D01*
X100661724Y-40746865D01*
X100689108Y-40575610D01*
X100712485Y-40294351D01*
X100728859Y-39972529D01*
X100747875Y-39586943D01*
X100773152Y-39278040D01*
X100810737Y-39005718D01*
X100866680Y-38729880D01*
X100947030Y-38410425D01*
X100986496Y-38264598D01*
X101066363Y-38060173D01*
X101182703Y-37863074D01*
X101313664Y-37702367D01*
X101437390Y-37607117D01*
X101491400Y-37593104D01*
X101604154Y-37622320D01*
X101766605Y-37699445D01*
X101955360Y-37808691D01*
X102147028Y-37934271D01*
X102318216Y-38060397D01*
X102445533Y-38171281D01*
X102505585Y-38251137D01*
X102502278Y-38275347D01*
X102445762Y-38259353D01*
X102317232Y-38199020D01*
X102167406Y-38119821D01*
X101858577Y-37985039D01*
X101600169Y-37947124D01*
X101397637Y-38006367D01*
X101316954Y-38074828D01*
X101211207Y-38252730D01*
X101113779Y-38527646D01*
X101026892Y-38879966D01*
X100952770Y-39290081D01*
X100893634Y-39738381D01*
X100851707Y-40205258D01*
X100829212Y-40671103D01*
X100828370Y-41116305D01*
X100851405Y-41521256D01*
X100892136Y-41823071D01*
X100923761Y-42047600D01*
X100916409Y-42180460D01*
X100892136Y-42225014D01*
X100841619Y-42330224D01*
X100829425Y-42421372D01*
X100814303Y-42541128D01*
X100774379Y-42734103D01*
X100717815Y-42961483D01*
X100708978Y-42994054D01*
X100645543Y-43269897D01*
X100613600Y-43508093D01*
X100613794Y-43688121D01*
X100646774Y-43789463D01*
X100683448Y-43803852D01*
X100781449Y-43781806D01*
X100878965Y-43754300D01*
X100963416Y-43736625D01*
X101000095Y-43770087D01*
X101003895Y-43881104D01*
X100998632Y-43966540D01*
X101008929Y-44333147D01*
X101078814Y-44747581D01*
X101199307Y-45163139D01*
X101258018Y-45315287D01*
X101323539Y-45437213D01*
X101398317Y-45465531D01*
X101512786Y-45404479D01*
X101572573Y-45359081D01*
X101717424Y-45259361D01*
X101818038Y-45234541D01*
X101883887Y-45294664D01*
X101924438Y-45449776D01*
X101949162Y-45709921D01*
X101952275Y-45761840D01*
X101978079Y-46064421D01*
X102020476Y-46287647D01*
X102087602Y-46468639D01*
X102121730Y-46534869D01*
X102245167Y-46716093D01*
X102357041Y-46800839D01*
X102446828Y-46784377D01*
X102493587Y-46701995D01*
X102559023Y-46609315D01*
X102686487Y-46596490D01*
X102802207Y-46636767D01*
X102869982Y-46745253D01*
X102891612Y-46818851D01*
X102981152Y-47146361D01*
X103089939Y-47501222D01*
X103206840Y-47850549D01*
X103320719Y-48161458D01*
X103420441Y-48401064D01*
X103444034Y-48450346D01*
X103581527Y-48682181D01*
X103755133Y-48919634D01*
X103848964Y-49027822D01*
X104094940Y-49287596D01*
X103980344Y-49433282D01*
X103887832Y-49566289D01*
X103866838Y-49654453D01*
X103928434Y-49706623D01*
X104083689Y-49731648D01*
X104343674Y-49738376D01*
X104362069Y-49738391D01*
X104586272Y-49733635D01*
X104757639Y-49720944D01*
X104849405Y-49702682D01*
X104857838Y-49694598D01*
X104833059Y-49671120D01*
X105105595Y-49671120D01*
X105121487Y-49719354D01*
X105246420Y-49737678D01*
X105296322Y-49738391D01*
X105437176Y-49725327D01*
X105494009Y-49674330D01*
X105500690Y-49621609D01*
X105459388Y-49528601D01*
X105354618Y-49510627D01*
X105215082Y-49571010D01*
X105194138Y-49586110D01*
X105105595Y-49671120D01*
X104833059Y-49671120D01*
X104808759Y-49648096D01*
X104684087Y-49577783D01*
X104590457Y-49534023D01*
X104362852Y-49423486D01*
X104247439Y-49342735D01*
X104242711Y-49294901D01*
X104347162Y-49283115D01*
X104559285Y-49310508D01*
X104685906Y-49335687D01*
X105059623Y-49360239D01*
X105441077Y-49287474D01*
X105792442Y-49127602D01*
X105982414Y-48985771D01*
X106142989Y-48840680D01*
X106142989Y-49012565D01*
X106125941Y-49195873D01*
X106087714Y-49377180D01*
X106052866Y-49539051D01*
X106072184Y-49642837D01*
X106162858Y-49703678D01*
X106342076Y-49736712D01*
X106511315Y-49750262D01*
X106837278Y-49766245D01*
X107070650Y-49761283D01*
X107234739Y-49728753D01*
X107352856Y-49662033D01*
X107448308Y-49554497D01*
X107504076Y-49468159D01*
X107593957Y-49306205D01*
X107650799Y-49178501D01*
X107661149Y-49135511D01*
X107622011Y-49062210D01*
X107518453Y-48934281D01*
X107371263Y-48776958D01*
X107340385Y-48746127D01*
X107019621Y-48429348D01*
X106697901Y-48538703D01*
X106520368Y-48592810D01*
X106391527Y-48620446D01*
X106346655Y-48618532D01*
X106353839Y-48554655D01*
X106400583Y-48414494D01*
X106476957Y-48227547D01*
X106482547Y-48214848D01*
X106581310Y-47977213D01*
X106670783Y-47737827D01*
X106722707Y-47577931D01*
X106780178Y-47386611D01*
X106834681Y-47221874D01*
X106849759Y-47181046D01*
X106892421Y-47013794D01*
X106902069Y-46910158D01*
X106938392Y-46764105D01*
X107012434Y-46637103D01*
X107122799Y-46500808D01*
X107297888Y-46688242D01*
X107398759Y-46789156D01*
X107472732Y-46824942D01*
X107541707Y-46785751D01*
X107627583Y-46661732D01*
X107721554Y-46497701D01*
X107795423Y-46334295D01*
X107840737Y-46142060D01*
X107859479Y-45942989D01*
X108186667Y-45942989D01*
X108207543Y-46080785D01*
X108271626Y-46110190D01*
X108381097Y-46032153D01*
X108384383Y-46028885D01*
X108443808Y-45913230D01*
X108411876Y-45812661D01*
X108302178Y-45767873D01*
X108297201Y-45767816D01*
X108215511Y-45798423D01*
X108187376Y-45908360D01*
X108186667Y-45942989D01*
X107859479Y-45942989D01*
X107865039Y-45883937D01*
X107870093Y-45767816D01*
X107887392Y-45271494D01*
X108045220Y-45283609D01*
X108206263Y-45333025D01*
X108330000Y-45414988D01*
X108450617Y-45512988D01*
X108514545Y-45516857D01*
X108536399Y-45424953D01*
X108537012Y-45391722D01*
X108554996Y-45270591D01*
X108586145Y-45218825D01*
X108632144Y-45140691D01*
X108683668Y-44978516D01*
X108734319Y-44764431D01*
X108777698Y-44530565D01*
X108807407Y-44309049D01*
X108817046Y-44132013D01*
X108813425Y-44077540D01*
X108810775Y-43879491D01*
X108865554Y-43775366D01*
X108973971Y-43770444D01*
X109019352Y-43790671D01*
X109131491Y-43827519D01*
X109195528Y-43785515D01*
X109213901Y-43655805D01*
X109189046Y-43429533D01*
X109160941Y-43276264D01*
X109107109Y-43021418D01*
X109050395Y-42778492D01*
X109002363Y-42596799D01*
X108998977Y-42585517D01*
X108963914Y-42446948D01*
X108942467Y-42292711D01*
X108934299Y-42101606D01*
X108939072Y-41852430D01*
X108956449Y-41523981D01*
X108977221Y-41217483D01*
X108985927Y-40444713D01*
X108907078Y-39594767D01*
X108740682Y-38667737D01*
X108671484Y-38365384D01*
X108611374Y-38237042D01*
X108503010Y-38087701D01*
X108475378Y-38056758D01*
X108348723Y-37942329D01*
X108237986Y-37907402D01*
X108146705Y-37919540D01*
X107891180Y-38010213D01*
X107588411Y-38164093D01*
X107271518Y-38359654D01*
X106973622Y-38575371D01*
X106727844Y-38789720D01*
X106613366Y-38916026D01*
X106447369Y-39084872D01*
X106288782Y-39170632D01*
X106157076Y-39164611D01*
X106118635Y-39136960D01*
X106080921Y-39099860D01*
X106043092Y-39081856D01*
X105984299Y-39089072D01*
X105883692Y-39127635D01*
X105720421Y-39203669D01*
X105473637Y-39323298D01*
X105457231Y-39331262D01*
X105281816Y-39401515D01*
X105188210Y-39395142D01*
X105165610Y-39306650D01*
X105186108Y-39193470D01*
X105204951Y-39092695D01*
X105173212Y-39056666D01*
X105063272Y-39067363D01*
X105008316Y-39077476D01*
X104805858Y-39136143D01*
X104601769Y-39224885D01*
X104583563Y-39234825D01*
X104396784Y-39314793D01*
X104276279Y-39303337D01*
X104213559Y-39198742D01*
X104206023Y-39158628D01*
X104170230Y-39059923D01*
X104157198Y-39052874D01*
X104449655Y-39052874D01*
X104496949Y-39104677D01*
X104537241Y-39111264D01*
X104614946Y-39079735D01*
X104624828Y-39052874D01*
X104577534Y-39001071D01*
X104537241Y-38994483D01*
X104459537Y-39026012D01*
X104449655Y-39052874D01*
X104157198Y-39052874D01*
X104128506Y-39037355D01*
X104041623Y-39057146D01*
X103883264Y-39092806D01*
X103770597Y-39118061D01*
X103471080Y-39185090D01*
X103142896Y-38874029D01*
X102970800Y-38702931D01*
X102871048Y-38576713D01*
X102825428Y-38466513D01*
X102815607Y-38355392D01*
X102833008Y-38162391D01*
X102896834Y-38051163D01*
X103027680Y-37989594D01*
X103054678Y-37982579D01*
X103154705Y-37973223D01*
X103247109Y-38008902D01*
X103349431Y-38104820D01*
X103479214Y-38276177D01*
X103599395Y-38454627D01*
X103781601Y-38731724D01*
X104099876Y-38710570D01*
X104399447Y-38675425D01*
X104596224Y-38614262D01*
X104702172Y-38522716D01*
X104719454Y-38484440D01*
X104805414Y-38236426D01*
X104897908Y-37998996D01*
X104984110Y-37802733D01*
X105051195Y-37678217D01*
X105065252Y-37659884D01*
X105135324Y-37611853D01*
X105230922Y-37628065D01*
X105302552Y-37659884D01*
X105393051Y-37717709D01*
X105457826Y-37806409D01*
X105511879Y-37955028D01*
X105564405Y-38166882D01*
X105617737Y-38379309D01*
X105669094Y-38545801D01*
X105708441Y-38634379D01*
X105712445Y-38638763D01*
X105819595Y-38692579D01*
X105997084Y-38748157D01*
X106199241Y-38793846D01*
X106380396Y-38817995D01*
X106420189Y-38819310D01*
X106578014Y-38783369D01*
X106719794Y-38660563D01*
X106744981Y-38629540D01*
X106939525Y-38390488D01*
X107085945Y-38235148D01*
X107199930Y-38149431D01*
X107297171Y-38119245D01*
X107313835Y-38118621D01*
X107458362Y-38079695D01*
X107569800Y-38006911D01*
X107694051Y-37912998D01*
X107869075Y-37805074D01*
X108058480Y-37702736D01*
X108225872Y-37625578D01*
X108334858Y-37593196D01*
X108338332Y-37593104D01*
X108478781Y-37649747D01*
G37*
D16*
%TO.C,F1*%
X162500000Y-38000000D02*
X162500000Y-40000000D01*
D13*
X162500000Y-48000000D02*
X162500000Y-40000000D01*
D16*
X162500000Y-50000000D02*
X162500000Y-48000000D01*
D13*
X156500000Y-66000000D02*
X167500000Y-66000000D01*
X167500000Y-22000000D01*
X156500000Y-22000000D01*
X156500000Y-66000000D01*
D16*
X160500000Y-48000000D02*
X164500000Y-48000000D01*
X164500000Y-40000000D01*
X160500000Y-40000000D01*
X160500000Y-48000000D01*
D14*
%TO.C,D3*%
X145750000Y-61590000D02*
X145750000Y-70100000D01*
X145750000Y-61590000D02*
X152250000Y-61590000D01*
X152250000Y-61590000D02*
X152250000Y-70100000D01*
%TD*%
M02*
