%TF.GenerationSoftware,KiCad,Pcbnew,8.0.7-8.0.7-0~ubuntu22.04.1*%
%TF.CreationDate,2024-12-28T18:58:49+01:00*%
%TF.ProjectId,CrowBar,43726f77-4261-4722-9e6b-696361645f70,1.0A*%
%TF.SameCoordinates,Original*%
%TF.FileFunction,Legend,Bot*%
%TF.FilePolarity,Positive*%
%FSLAX46Y46*%
G04 Gerber Fmt 4.6, Leading zero omitted, Abs format (unit mm)*
G04 Created by KiCad (PCBNEW 8.0.7-8.0.7-0~ubuntu22.04.1) date 2024-12-28 18:58:49*
%MOMM*%
%LPD*%
G01*
G04 APERTURE LIST*
%ADD10C,0.000000*%
G04 APERTURE END LIST*
D10*
%TO.C,G\u002A\u002A\u002A*%
G36*
X106389252Y-42879177D02*
G01*
X106430292Y-42968101D01*
X106416820Y-43046935D01*
X106384995Y-43071880D01*
X106313742Y-43066423D01*
X106284598Y-42965058D01*
X106294358Y-42897236D01*
X106336741Y-42848276D01*
X106389252Y-42879177D01*
G37*
G36*
X103477986Y-42903879D02*
G01*
X103501318Y-42952400D01*
X103503736Y-43035258D01*
X103500279Y-43040353D01*
X103423448Y-43081839D01*
X103390743Y-43076800D01*
X103339165Y-43011866D01*
X103368910Y-42903879D01*
X103372135Y-42898900D01*
X103424503Y-42848305D01*
X103477986Y-42903879D01*
G37*
G36*
X105322813Y-45652063D02*
G01*
X105373741Y-45685130D01*
X105585583Y-45879399D01*
X105683741Y-46089761D01*
X105668400Y-46308045D01*
X105539750Y-46526080D01*
X105297976Y-46735696D01*
X105246247Y-46769465D01*
X105108287Y-46846486D01*
X105019442Y-46877241D01*
X104980062Y-46874582D01*
X104793583Y-46811536D01*
X104596574Y-46684495D01*
X104418891Y-46520010D01*
X104290388Y-46344628D01*
X104240919Y-46184901D01*
X104242461Y-46140396D01*
X104282541Y-45987336D01*
X104391313Y-45843642D01*
X104588011Y-45681416D01*
X104820208Y-45562389D01*
X105067928Y-45549113D01*
X105322813Y-45652063D01*
G37*
G36*
X104235294Y-47267219D02*
G01*
X104352111Y-47300752D01*
X104446747Y-47349047D01*
X104500009Y-47379267D01*
X104684218Y-47426029D01*
X104923482Y-47441499D01*
X105177614Y-47424618D01*
X105406430Y-47374329D01*
X105529489Y-47337347D01*
X105673097Y-47306649D01*
X105743400Y-47309223D01*
X105750893Y-47316401D01*
X105764876Y-47334950D01*
X105751899Y-47359876D01*
X105694561Y-47406002D01*
X105575458Y-47488150D01*
X105377188Y-47621142D01*
X105368825Y-47626760D01*
X105184652Y-47755782D01*
X105035377Y-47869618D01*
X104952617Y-47944208D01*
X104937138Y-47960130D01*
X104886132Y-47975384D01*
X104808812Y-47939598D01*
X104686981Y-47841712D01*
X104502440Y-47670671D01*
X104422249Y-47593510D01*
X104269454Y-47441181D01*
X104163672Y-47328139D01*
X104124138Y-47274525D01*
X104145202Y-47259745D01*
X104235294Y-47267219D01*
G37*
G36*
X107026962Y-44032743D02*
G01*
X107081230Y-44114242D01*
X107113062Y-44260182D01*
X107117119Y-44490348D01*
X107114044Y-44584880D01*
X107100711Y-44772836D01*
X107074564Y-44863634D01*
X107028322Y-44871664D01*
X106954702Y-44811319D01*
X106918414Y-44775804D01*
X106850304Y-44726003D01*
X106831201Y-44767444D01*
X106849064Y-44911553D01*
X106847492Y-45093716D01*
X106756620Y-45349484D01*
X106715509Y-45424566D01*
X106633506Y-45545089D01*
X106575365Y-45592644D01*
X106549169Y-45553271D01*
X106526773Y-45425620D01*
X106518161Y-45240245D01*
X106493240Y-44938792D01*
X106419221Y-44736844D01*
X106359746Y-44636432D01*
X106358776Y-44569670D01*
X106430381Y-44505335D01*
X106514243Y-44458171D01*
X106641932Y-44424828D01*
X106771622Y-44383621D01*
X106882939Y-44259092D01*
X106926896Y-44086995D01*
X106929534Y-44001105D01*
X106954472Y-43970233D01*
X107026962Y-44032743D01*
G37*
G36*
X102837683Y-44063724D02*
G01*
X102863962Y-44231285D01*
X102960782Y-44374367D01*
X103118951Y-44425722D01*
X103241007Y-44439031D01*
X103362920Y-44480662D01*
X103410799Y-44527864D01*
X103407667Y-44604114D01*
X103348322Y-44744507D01*
X103321732Y-44810935D01*
X103268840Y-45032761D01*
X103248276Y-45273475D01*
X103243964Y-45403761D01*
X103226089Y-45539855D01*
X103199065Y-45592644D01*
X103173202Y-45575975D01*
X103101883Y-45481903D01*
X103016067Y-45332519D01*
X102988876Y-45277425D01*
X102917172Y-45067657D01*
X102919728Y-44885151D01*
X102920843Y-44879572D01*
X102940327Y-44760273D01*
X102921026Y-44737651D01*
X102849968Y-44794931D01*
X102772369Y-44856920D01*
X102703563Y-44891954D01*
X102696525Y-44889909D01*
X102670219Y-44819976D01*
X102660514Y-44675676D01*
X102665529Y-44491362D01*
X102683385Y-44301385D01*
X102712201Y-44140097D01*
X102750097Y-44041850D01*
X102798226Y-43980810D01*
X102831089Y-43969793D01*
X102837683Y-44063724D01*
G37*
G36*
X103294272Y-42669138D02*
G01*
X103305764Y-42676005D01*
X103325474Y-42729276D01*
X103250479Y-42817087D01*
X103214443Y-42853452D01*
X103135718Y-43020593D01*
X103166937Y-43223041D01*
X103241417Y-43286273D01*
X103380010Y-43314353D01*
X103531361Y-43301485D01*
X103645333Y-43245333D01*
X103698705Y-43151134D01*
X103708097Y-42993394D01*
X103646306Y-42860927D01*
X103616908Y-42819935D01*
X103618501Y-42750541D01*
X103628611Y-42741649D01*
X103698276Y-42741047D01*
X103761565Y-42831055D01*
X103810944Y-42988811D01*
X103838881Y-43191455D01*
X103837841Y-43416126D01*
X103798539Y-43459415D01*
X103671609Y-43462364D01*
X103662107Y-43460868D01*
X103486639Y-43433292D01*
X103291889Y-43402753D01*
X103163225Y-43371458D01*
X103051936Y-43292935D01*
X102954955Y-43137550D01*
X102947994Y-43123922D01*
X102877628Y-42999482D01*
X102805501Y-42934644D01*
X102693274Y-42909687D01*
X102502606Y-42904891D01*
X102398740Y-42903548D01*
X102270087Y-42894831D01*
X102235862Y-42874307D01*
X102281212Y-42837453D01*
X102401007Y-42791022D01*
X102589590Y-42743280D01*
X102809206Y-42701240D01*
X103023858Y-42670882D01*
X103197546Y-42658188D01*
X103294272Y-42669138D01*
G37*
G36*
X103155464Y-41937085D02*
G01*
X103337151Y-41991578D01*
X103569425Y-42092196D01*
X103633805Y-42121210D01*
X103763247Y-42160788D01*
X103822452Y-42147494D01*
X103845626Y-42112061D01*
X103944724Y-42091130D01*
X104088458Y-42141135D01*
X104249746Y-42255245D01*
X104252828Y-42258007D01*
X104380710Y-42405123D01*
X104398477Y-42518004D01*
X104372766Y-42566600D01*
X104291030Y-42611923D01*
X104208580Y-42551235D01*
X104160609Y-42519683D01*
X104046713Y-42519827D01*
X103958049Y-42522440D01*
X103820835Y-42458465D01*
X103736069Y-42403883D01*
X103643509Y-42425180D01*
X103627070Y-42435688D01*
X103488885Y-42456332D01*
X103248276Y-42428815D01*
X103167781Y-42414564D01*
X102807335Y-42347437D01*
X102552026Y-42292160D01*
X102392946Y-42245535D01*
X102321184Y-42204360D01*
X102327830Y-42165436D01*
X102403976Y-42125562D01*
X102474218Y-42114173D01*
X102640556Y-42113666D01*
X102848218Y-42127941D01*
X103054415Y-42153723D01*
X103216357Y-42187737D01*
X103267764Y-42201848D01*
X103296914Y-42194714D01*
X103235126Y-42126094D01*
X103164639Y-42068442D01*
X103077274Y-42030805D01*
X103058332Y-42027754D01*
X103014713Y-41966084D01*
X103042811Y-41932910D01*
X103155464Y-41937085D01*
G37*
G36*
X103459636Y-40295538D02*
G01*
X103454688Y-40334381D01*
X103419474Y-40403084D01*
X103364784Y-40510562D01*
X103307816Y-40629425D01*
X103300045Y-40643197D01*
X103209579Y-40730737D01*
X103068731Y-40819758D01*
X103032204Y-40840023D01*
X102921180Y-40927049D01*
X102884250Y-41002374D01*
X102853999Y-41052069D01*
X102739440Y-41129531D01*
X102567396Y-41214330D01*
X102367165Y-41292278D01*
X102168046Y-41349189D01*
X102088088Y-41364315D01*
X101912370Y-41380391D01*
X101781468Y-41370156D01*
X101730115Y-41334754D01*
X101730138Y-41333873D01*
X101782318Y-41285039D01*
X101904618Y-41242676D01*
X101942840Y-41233354D01*
X102081382Y-41172954D01*
X102123502Y-41099851D01*
X102059462Y-41027571D01*
X101978109Y-40958439D01*
X101982473Y-40891238D01*
X102088283Y-40862989D01*
X102128138Y-40860965D01*
X102290462Y-40834146D01*
X102479122Y-40786390D01*
X102646895Y-40730793D01*
X102746560Y-40680447D01*
X102764932Y-40639944D01*
X102725386Y-40545005D01*
X102720685Y-40539311D01*
X102684350Y-40482977D01*
X102703168Y-40444619D01*
X102796953Y-40410746D01*
X102985517Y-40367864D01*
X103102710Y-40342735D01*
X103302665Y-40301259D01*
X103415301Y-40285012D01*
X103459636Y-40295538D01*
G37*
G36*
X106452741Y-40279464D02*
G01*
X106582588Y-40301100D01*
X106747578Y-40345717D01*
X106772303Y-40353593D01*
X106929243Y-40402510D01*
X107035657Y-40433994D01*
X107038713Y-40434841D01*
X107085275Y-40469635D01*
X107041051Y-40545005D01*
X107037905Y-40548844D01*
X106999515Y-40630041D01*
X107042190Y-40693573D01*
X107177778Y-40747442D01*
X107418127Y-40799648D01*
X107574858Y-40830698D01*
X107723684Y-40866428D01*
X107792444Y-40891601D01*
X107787752Y-40936724D01*
X107724546Y-41027803D01*
X107640633Y-41140324D01*
X107653479Y-41197457D01*
X107766414Y-41213333D01*
X107865429Y-41232598D01*
X107985232Y-41309716D01*
X108013493Y-41347057D01*
X108014867Y-41381479D01*
X107941593Y-41385829D01*
X107773416Y-41365437D01*
X107667665Y-41346809D01*
X107412753Y-41283090D01*
X107173478Y-41203240D01*
X107114477Y-41179459D01*
X106964148Y-41107123D01*
X106899633Y-41043962D01*
X106900057Y-40972348D01*
X106903919Y-40890130D01*
X106821924Y-40862989D01*
X106798784Y-40861435D01*
X106668776Y-40815089D01*
X106539233Y-40725955D01*
X106445887Y-40623372D01*
X106424475Y-40536679D01*
X106431989Y-40499752D01*
X106398829Y-40423481D01*
X106358882Y-40387737D01*
X106354108Y-40314139D01*
X106441027Y-40279081D01*
X106452741Y-40279464D01*
G37*
G36*
X106722143Y-42682091D02*
G01*
X106901526Y-42716955D01*
X107101683Y-42733351D01*
X107108702Y-42733464D01*
X107283151Y-42760837D01*
X107419781Y-42820938D01*
X107482239Y-42870857D01*
X107486251Y-42901542D01*
X107383287Y-42906667D01*
X107299072Y-42908159D01*
X107058404Y-42941243D01*
X106897084Y-43026048D01*
X106790703Y-43173570D01*
X106789912Y-43175224D01*
X106716933Y-43295812D01*
X106619079Y-43371916D01*
X106465715Y-43418586D01*
X106226207Y-43450870D01*
X106206200Y-43452950D01*
X106061110Y-43469429D01*
X105978046Y-43481230D01*
X105974028Y-43481921D01*
X105939616Y-43458205D01*
X105926181Y-43361126D01*
X105930483Y-43169425D01*
X105936248Y-43105155D01*
X105982598Y-42920027D01*
X106058935Y-42784243D01*
X106148487Y-42731494D01*
X106214824Y-42755225D01*
X106211174Y-42822197D01*
X106125595Y-42898778D01*
X106092154Y-42920548D01*
X106053954Y-42992635D01*
X106083208Y-43120645D01*
X106132920Y-43223795D01*
X106216763Y-43274675D01*
X106373590Y-43286207D01*
X106398916Y-43286124D01*
X106537512Y-43274748D01*
X106600700Y-43227258D01*
X106624810Y-43119551D01*
X106618618Y-43000284D01*
X106518356Y-42819288D01*
X106462430Y-42748033D01*
X106452754Y-42671252D01*
X106541088Y-42648085D01*
X106722143Y-42682091D01*
G37*
G36*
X107452414Y-42201789D02*
G01*
X107452413Y-42201972D01*
X107439653Y-42225668D01*
X107391116Y-42250206D01*
X107290977Y-42279587D01*
X107123410Y-42317811D01*
X106872588Y-42368877D01*
X106522686Y-42436786D01*
X106316931Y-42457917D01*
X106162485Y-42422660D01*
X106071162Y-42390472D01*
X105960072Y-42442342D01*
X105873508Y-42488221D01*
X105721767Y-42507639D01*
X105632637Y-42510891D01*
X105583908Y-42552143D01*
X105580014Y-42574988D01*
X105522063Y-42613158D01*
X105434886Y-42594263D01*
X105370626Y-42524952D01*
X105364328Y-42490309D01*
X105409416Y-42366984D01*
X105532617Y-42232292D01*
X105615796Y-42176782D01*
X106459770Y-42176782D01*
X106488965Y-42205977D01*
X106518161Y-42176782D01*
X106488965Y-42147586D01*
X106459770Y-42176782D01*
X105615796Y-42176782D01*
X105712250Y-42112413D01*
X105758307Y-42088806D01*
X105869497Y-42040237D01*
X105920617Y-42048648D01*
X105944569Y-42114307D01*
X105945442Y-42117962D01*
X105976906Y-42158647D01*
X106056350Y-42148298D01*
X106210692Y-42083835D01*
X106268528Y-42058475D01*
X106473105Y-41983311D01*
X106648623Y-41937127D01*
X106839310Y-41904392D01*
X106693333Y-42024691D01*
X106547356Y-42144990D01*
X106999885Y-42146288D01*
X107053356Y-42146820D01*
X107256342Y-42156633D01*
X107398718Y-42176104D01*
X107400135Y-42176782D01*
X107452414Y-42201789D01*
G37*
G36*
X105629770Y-39059923D02*
G01*
X105593977Y-39158628D01*
X105586441Y-39198742D01*
X105523721Y-39303337D01*
X105403216Y-39314793D01*
X105216437Y-39234825D01*
X105198231Y-39224885D01*
X104994142Y-39136143D01*
X104791684Y-39077476D01*
X104736728Y-39067363D01*
X104626788Y-39056666D01*
X104595049Y-39092695D01*
X104613892Y-39193470D01*
X104634390Y-39306650D01*
X104611790Y-39395142D01*
X104518184Y-39401515D01*
X104342769Y-39331262D01*
X104326363Y-39323298D01*
X104079579Y-39203669D01*
X103916308Y-39127635D01*
X103815701Y-39089072D01*
X103756908Y-39081856D01*
X103719079Y-39099860D01*
X103681365Y-39136960D01*
X103642924Y-39164611D01*
X103511218Y-39170632D01*
X103352631Y-39084872D01*
X103321173Y-39052874D01*
X105175172Y-39052874D01*
X105185054Y-39079735D01*
X105262759Y-39111264D01*
X105303051Y-39104677D01*
X105350345Y-39052874D01*
X105340463Y-39026012D01*
X105262759Y-38994483D01*
X105222466Y-39001071D01*
X105175172Y-39052874D01*
X103321173Y-39052874D01*
X103186634Y-38916026D01*
X103072156Y-38789720D01*
X102826378Y-38575371D01*
X102528482Y-38359654D01*
X102211589Y-38164093D01*
X101908820Y-38010213D01*
X101653295Y-37919540D01*
X101562014Y-37907402D01*
X101451277Y-37942329D01*
X101324622Y-38056758D01*
X101296990Y-38087701D01*
X101188626Y-38237042D01*
X101128516Y-38365384D01*
X101059318Y-38667737D01*
X100892922Y-39594767D01*
X100814073Y-40444713D01*
X100822779Y-41217483D01*
X100843551Y-41523981D01*
X100860928Y-41852430D01*
X100865701Y-42101606D01*
X100857533Y-42292711D01*
X100836086Y-42446948D01*
X100801023Y-42585517D01*
X100797637Y-42596799D01*
X100749605Y-42778492D01*
X100692891Y-43021418D01*
X100639059Y-43276264D01*
X100610954Y-43429533D01*
X100586099Y-43655805D01*
X100604472Y-43785515D01*
X100668509Y-43827519D01*
X100780648Y-43790671D01*
X100826029Y-43770444D01*
X100934446Y-43775366D01*
X100989225Y-43879491D01*
X100986575Y-44077540D01*
X100982954Y-44132013D01*
X100992593Y-44309049D01*
X101022302Y-44530565D01*
X101065681Y-44764431D01*
X101116332Y-44978516D01*
X101167856Y-45140691D01*
X101213855Y-45218825D01*
X101245004Y-45270591D01*
X101262988Y-45391722D01*
X101263601Y-45424953D01*
X101285455Y-45516857D01*
X101349383Y-45512988D01*
X101470000Y-45414988D01*
X101593737Y-45333025D01*
X101754780Y-45283609D01*
X101912608Y-45271494D01*
X101929907Y-45767816D01*
X101934961Y-45883937D01*
X101940521Y-45942989D01*
X101959263Y-46142060D01*
X102004577Y-46334295D01*
X102078446Y-46497701D01*
X102172417Y-46661732D01*
X102258293Y-46785751D01*
X102327268Y-46824942D01*
X102401241Y-46789156D01*
X102502112Y-46688242D01*
X102677201Y-46500808D01*
X102787566Y-46637103D01*
X102861608Y-46764105D01*
X102897931Y-46910158D01*
X102907579Y-47013794D01*
X102950241Y-47181046D01*
X102965319Y-47221874D01*
X103019822Y-47386611D01*
X103077293Y-47577931D01*
X103129217Y-47737827D01*
X103218690Y-47977213D01*
X103317453Y-48214848D01*
X103323043Y-48227547D01*
X103399417Y-48414494D01*
X103446161Y-48554655D01*
X103453345Y-48618532D01*
X103408473Y-48620446D01*
X103279632Y-48592810D01*
X103102099Y-48538703D01*
X102780379Y-48429348D01*
X102459615Y-48746127D01*
X102428737Y-48776958D01*
X102281547Y-48934281D01*
X102177989Y-49062210D01*
X102138851Y-49135511D01*
X102149201Y-49178501D01*
X102206043Y-49306205D01*
X102295924Y-49468159D01*
X102351692Y-49554497D01*
X102447144Y-49662033D01*
X102565261Y-49728753D01*
X102729350Y-49761283D01*
X102962722Y-49766245D01*
X103288685Y-49750262D01*
X103457924Y-49736712D01*
X103637142Y-49703678D01*
X103727816Y-49642837D01*
X103731767Y-49621609D01*
X104299310Y-49621609D01*
X104305991Y-49674330D01*
X104362824Y-49725327D01*
X104503678Y-49738391D01*
X104553580Y-49737678D01*
X104678513Y-49719354D01*
X104694405Y-49671120D01*
X104605862Y-49586110D01*
X104584918Y-49571010D01*
X104445382Y-49510627D01*
X104340612Y-49528601D01*
X104299310Y-49621609D01*
X103731767Y-49621609D01*
X103747134Y-49539051D01*
X103712286Y-49377180D01*
X103674059Y-49195873D01*
X103657011Y-49012565D01*
X103657011Y-48840680D01*
X103817586Y-48985771D01*
X104007558Y-49127602D01*
X104358923Y-49287474D01*
X104740377Y-49360239D01*
X105114094Y-49335687D01*
X105240715Y-49310508D01*
X105452838Y-49283115D01*
X105557289Y-49294901D01*
X105552561Y-49342735D01*
X105437148Y-49423486D01*
X105209543Y-49534023D01*
X105115913Y-49577783D01*
X104991241Y-49648096D01*
X104966941Y-49671120D01*
X104942162Y-49694598D01*
X104950595Y-49702682D01*
X105042361Y-49720944D01*
X105213728Y-49733635D01*
X105437931Y-49738391D01*
X105456326Y-49738376D01*
X105716311Y-49731648D01*
X105871566Y-49706623D01*
X105933162Y-49654453D01*
X105925493Y-49622246D01*
X106398294Y-49622246D01*
X106405046Y-49666670D01*
X106469782Y-49695777D01*
X106612096Y-49714086D01*
X106851584Y-49726117D01*
X106907638Y-49727986D01*
X107134195Y-49730495D01*
X107280150Y-49717399D01*
X107375462Y-49683583D01*
X107450090Y-49623933D01*
X107531639Y-49527754D01*
X107569195Y-49451201D01*
X107591251Y-49405564D01*
X107676072Y-49294970D01*
X107802759Y-49154483D01*
X107902266Y-49046885D01*
X107997792Y-48932283D01*
X108033657Y-48872362D01*
X108013148Y-48840621D01*
X107917648Y-48752769D01*
X107769495Y-48635897D01*
X107596805Y-48510209D01*
X107427692Y-48395914D01*
X107290272Y-48313216D01*
X107212660Y-48282322D01*
X107143393Y-48300320D01*
X106994104Y-48359082D01*
X106810115Y-48443884D01*
X106488965Y-48601745D01*
X106456874Y-49067884D01*
X106453201Y-49119466D01*
X106434253Y-49345181D01*
X106414785Y-49524212D01*
X106398483Y-49621609D01*
X106398294Y-49622246D01*
X105925493Y-49622246D01*
X105912168Y-49566289D01*
X105819656Y-49433282D01*
X105705060Y-49287596D01*
X105951036Y-49027822D01*
X106044867Y-48919634D01*
X106218473Y-48682181D01*
X106355966Y-48450346D01*
X106379559Y-48401064D01*
X106479281Y-48161458D01*
X106593160Y-47850549D01*
X106710061Y-47501222D01*
X106818848Y-47146361D01*
X106908388Y-46818851D01*
X106930018Y-46745253D01*
X106997793Y-46636767D01*
X107113513Y-46596490D01*
X107240977Y-46609315D01*
X107306413Y-46701995D01*
X107353172Y-46784377D01*
X107442959Y-46800839D01*
X107554833Y-46716093D01*
X107678270Y-46534869D01*
X107712398Y-46468639D01*
X107779524Y-46287647D01*
X107821921Y-46064421D01*
X107839025Y-45863856D01*
X108166646Y-45863856D01*
X108232687Y-45904192D01*
X108328764Y-45882166D01*
X108338952Y-45875533D01*
X108386543Y-45824051D01*
X108328764Y-45770248D01*
X108280887Y-45747980D01*
X108185706Y-45770248D01*
X108168903Y-45791093D01*
X108166646Y-45863856D01*
X107839025Y-45863856D01*
X107847725Y-45761840D01*
X107850838Y-45709921D01*
X107875562Y-45449776D01*
X107916113Y-45294664D01*
X107981962Y-45234541D01*
X108082576Y-45259361D01*
X108227427Y-45359081D01*
X108287214Y-45404479D01*
X108401683Y-45465531D01*
X108476461Y-45437213D01*
X108541982Y-45315287D01*
X108600693Y-45163139D01*
X108721186Y-44747581D01*
X108791071Y-44333147D01*
X108801368Y-43966540D01*
X108796105Y-43881104D01*
X108799905Y-43770087D01*
X108836584Y-43736625D01*
X108921035Y-43754300D01*
X109018551Y-43781806D01*
X109116552Y-43803852D01*
X109153226Y-43789463D01*
X109186206Y-43688121D01*
X109186400Y-43508093D01*
X109154457Y-43269897D01*
X109091022Y-42994054D01*
X109082185Y-42961483D01*
X109025621Y-42734103D01*
X108985697Y-42541128D01*
X108970575Y-42421372D01*
X108958381Y-42330224D01*
X108907864Y-42225014D01*
X108883591Y-42180460D01*
X108876239Y-42047600D01*
X108907864Y-41823071D01*
X108948595Y-41521256D01*
X108971630Y-41116305D01*
X108970788Y-40671103D01*
X108948293Y-40205258D01*
X108906366Y-39738381D01*
X108847230Y-39290081D01*
X108773108Y-38879966D01*
X108686221Y-38527646D01*
X108588793Y-38252730D01*
X108483046Y-38074828D01*
X108402363Y-38006367D01*
X108199831Y-37947124D01*
X107941423Y-37985039D01*
X107632594Y-38119821D01*
X107482768Y-38199020D01*
X107354238Y-38259353D01*
X107297722Y-38275347D01*
X107294415Y-38251137D01*
X107354467Y-38171281D01*
X107481784Y-38060397D01*
X107652972Y-37934271D01*
X107844640Y-37808691D01*
X108033395Y-37699445D01*
X108195846Y-37622320D01*
X108308600Y-37593104D01*
X108362610Y-37607117D01*
X108486336Y-37702367D01*
X108617297Y-37863074D01*
X108733637Y-38060173D01*
X108813504Y-38264598D01*
X108852970Y-38410425D01*
X108933320Y-38729880D01*
X108989263Y-39005718D01*
X109026848Y-39278040D01*
X109052125Y-39586943D01*
X109071141Y-39972529D01*
X109087515Y-40294351D01*
X109110892Y-40575610D01*
X109138276Y-40746865D01*
X109169269Y-40804750D01*
X109170407Y-40804739D01*
X109259036Y-40791018D01*
X109424863Y-40756320D01*
X109632924Y-40707944D01*
X109793055Y-40670935D01*
X109962772Y-40647374D01*
X110065052Y-40672900D01*
X110127004Y-40757704D01*
X110175735Y-40911973D01*
X110181705Y-40982864D01*
X110145869Y-41078069D01*
X110049644Y-41204689D01*
X109878980Y-41385123D01*
X109545913Y-41721702D01*
X109672667Y-42139012D01*
X109683798Y-42175563D01*
X109743928Y-42369479D01*
X109788421Y-42507133D01*
X109808331Y-42560723D01*
X109818857Y-42562774D01*
X109914896Y-42577362D01*
X110088825Y-42602312D01*
X110313563Y-42633712D01*
X110809885Y-42702299D01*
X110809885Y-42935862D01*
X110809104Y-42989253D01*
X110797023Y-43076372D01*
X110757750Y-43150214D01*
X110675488Y-43223158D01*
X110534437Y-43307580D01*
X110318801Y-43415860D01*
X110012779Y-43560373D01*
X110009271Y-43563648D01*
X109985344Y-43643114D01*
X109959166Y-43803928D01*
X109935805Y-44016092D01*
X109896856Y-44454023D01*
X110338773Y-44687091D01*
X110557320Y-44806398D01*
X110696319Y-44900501D01*
X110760437Y-44984343D01*
X110765129Y-45078554D01*
X110725849Y-45203765D01*
X110706263Y-45248532D01*
X110658996Y-45304614D01*
X110572662Y-45340872D01*
X110421415Y-45366066D01*
X110179410Y-45388956D01*
X109687810Y-45429906D01*
X109497135Y-45824051D01*
X109495853Y-45826701D01*
X109303896Y-46223496D01*
X109634432Y-46613114D01*
X109964969Y-47002732D01*
X109843336Y-47173550D01*
X109827031Y-47195961D01*
X109738755Y-47301312D01*
X109681886Y-47343922D01*
X109610094Y-47327888D01*
X109459372Y-47286082D01*
X109262529Y-47227586D01*
X109064569Y-47171291D01*
X108883988Y-47127989D01*
X108774054Y-47111251D01*
X108773747Y-47111251D01*
X108680290Y-47151632D01*
X108540431Y-47257200D01*
X108384329Y-47405210D01*
X108103538Y-47699616D01*
X108250069Y-48119019D01*
X108252237Y-48125224D01*
X108346812Y-48392778D01*
X108419704Y-48569735D01*
X108489016Y-48674803D01*
X108572849Y-48726688D01*
X108689304Y-48744100D01*
X108856484Y-48745747D01*
X109214661Y-48786309D01*
X109438847Y-48872362D01*
X109577371Y-48925534D01*
X109877890Y-49156839D01*
X110043458Y-49329655D01*
X109542225Y-49329655D01*
X109040992Y-49329655D01*
X108680151Y-49736664D01*
X108584344Y-49846971D01*
X108436086Y-50035893D01*
X108362324Y-50167095D01*
X108354423Y-50254304D01*
X108367048Y-50280425D01*
X108450680Y-50392902D01*
X108589913Y-50548964D01*
X108762587Y-50723157D01*
X109135639Y-51081379D01*
X109564026Y-51082438D01*
X109992414Y-51083496D01*
X109729655Y-51339767D01*
X109466896Y-51596038D01*
X108865926Y-51601467D01*
X108687188Y-51600533D01*
X108453390Y-51590775D01*
X108279702Y-51572994D01*
X108194432Y-51549386D01*
X108176570Y-51534873D01*
X108070348Y-51449166D01*
X107932319Y-51338297D01*
X107868865Y-51282427D01*
X107708524Y-51112807D01*
X107564141Y-50928056D01*
X107387553Y-50671395D01*
X104896799Y-50686617D01*
X102406045Y-50701839D01*
X102242903Y-50944774D01*
X102160834Y-51050653D01*
X101981497Y-51236182D01*
X101788021Y-51397302D01*
X101783813Y-51400325D01*
X101640649Y-51498883D01*
X101522908Y-51559747D01*
X101395040Y-51591989D01*
X101221496Y-51604682D01*
X100966729Y-51606897D01*
X100682909Y-51599387D01*
X100466747Y-51574714D01*
X100357248Y-51533908D01*
X100335971Y-51515414D01*
X100219572Y-51423733D01*
X100071199Y-51314943D01*
X100017476Y-51274382D01*
X99915085Y-51176812D01*
X99882612Y-51110575D01*
X99885062Y-51106234D01*
X99961641Y-51076057D01*
X100120342Y-51050529D01*
X100330797Y-51034786D01*
X100350429Y-51033925D01*
X100571139Y-51014944D01*
X100748837Y-50983948D01*
X100846639Y-50947200D01*
X100863002Y-50933009D01*
X100967727Y-50826154D01*
X101101233Y-50673751D01*
X101242195Y-50502319D01*
X101369287Y-50338377D01*
X101461181Y-50208445D01*
X101496552Y-50139041D01*
X101489438Y-50119648D01*
X101422170Y-50024801D01*
X101299125Y-49879464D01*
X101139034Y-49706310D01*
X100781516Y-49333993D01*
X100277770Y-49317226D01*
X99774023Y-49300460D01*
X99973448Y-49107439D01*
X100215886Y-48919523D01*
X100564039Y-48773186D01*
X100971144Y-48721427D01*
X101444109Y-48762626D01*
X101712815Y-48808699D01*
X101788736Y-48364863D01*
X101864656Y-47921027D01*
X101578420Y-47664509D01*
X101529801Y-47622016D01*
X101305400Y-47461997D01*
X101128885Y-47405553D01*
X100997310Y-47451605D01*
X100945943Y-47483711D01*
X100808933Y-47551761D01*
X100629041Y-47631087D01*
X100316243Y-47761724D01*
X100176512Y-47630454D01*
X100169292Y-47623606D01*
X100075463Y-47520307D01*
X100036782Y-47450271D01*
X100040184Y-47437410D01*
X100088680Y-47343469D01*
X100182634Y-47187523D01*
X100306636Y-46995535D01*
X100348763Y-46930594D01*
X100458574Y-46742656D01*
X100527500Y-46594795D01*
X100542079Y-46514511D01*
X100513669Y-46458709D01*
X100438357Y-46320480D01*
X100340868Y-46147356D01*
X100207107Y-45913230D01*
X101356192Y-45913230D01*
X101415617Y-46028885D01*
X101418903Y-46032153D01*
X101528374Y-46110190D01*
X101592457Y-46080785D01*
X101613333Y-45942989D01*
X101612624Y-45908360D01*
X101584489Y-45798423D01*
X101502799Y-45767816D01*
X101497822Y-45767873D01*
X101388124Y-45812661D01*
X101356192Y-45913230D01*
X100207107Y-45913230D01*
X100174069Y-45855402D01*
X99642469Y-45838669D01*
X99110869Y-45821935D01*
X99072339Y-45646507D01*
X99059009Y-45564526D01*
X99070674Y-45459890D01*
X99135249Y-45361047D01*
X99268826Y-45246631D01*
X99487496Y-45095276D01*
X99551770Y-45052426D01*
X99694961Y-44948667D01*
X99768928Y-44863336D01*
X99795451Y-44762313D01*
X99796310Y-44611477D01*
X99792943Y-44493861D01*
X99776263Y-44258897D01*
X99732763Y-44102724D01*
X99643160Y-43997934D01*
X99488169Y-43917116D01*
X99248506Y-43832861D01*
X99082272Y-43776938D01*
X98916220Y-43712674D01*
X98823117Y-43655758D01*
X98779861Y-43590375D01*
X98763350Y-43500708D01*
X98761033Y-43462118D01*
X98788530Y-43336364D01*
X98885646Y-43238371D01*
X99068054Y-43156953D01*
X99351426Y-43080921D01*
X99499897Y-43042221D01*
X99658088Y-42987528D01*
X99740190Y-42940957D01*
X99767431Y-42895005D01*
X99821636Y-42750883D01*
X99874167Y-42561731D01*
X99916028Y-42366441D01*
X99938218Y-42203908D01*
X99931741Y-42113022D01*
X99921223Y-42097899D01*
X99830839Y-42005641D01*
X99680564Y-41874433D01*
X99497846Y-41727461D01*
X99310134Y-41587912D01*
X99283851Y-41568888D01*
X99231167Y-41512180D01*
X99235799Y-41436766D01*
X99295590Y-41299969D01*
X99394590Y-41092364D01*
X99910557Y-41131314D01*
X100426523Y-41170264D01*
X100560425Y-40953607D01*
X100600391Y-40885234D01*
X100656392Y-40748285D01*
X100674996Y-40591593D01*
X100664673Y-40367542D01*
X100641954Y-40191422D01*
X100595574Y-39992869D01*
X100540269Y-39862856D01*
X100460562Y-39708455D01*
X100470264Y-39558220D01*
X100589076Y-39405490D01*
X100710804Y-39225017D01*
X100796972Y-38942783D01*
X100818361Y-38838258D01*
X100925133Y-38417352D01*
X101047900Y-38072127D01*
X101181613Y-37812840D01*
X101321219Y-37649747D01*
X101461668Y-37593104D01*
X101465142Y-37593196D01*
X101574128Y-37625578D01*
X101741520Y-37702736D01*
X101930925Y-37805074D01*
X102105949Y-37912998D01*
X102230200Y-38006911D01*
X102341638Y-38079695D01*
X102486165Y-38118621D01*
X102502829Y-38119245D01*
X102600070Y-38149431D01*
X102714055Y-38235148D01*
X102860475Y-38390488D01*
X103055019Y-38629540D01*
X103080206Y-38660563D01*
X103221986Y-38783369D01*
X103379811Y-38819310D01*
X103419604Y-38817995D01*
X103600759Y-38793846D01*
X103802916Y-38748157D01*
X103980405Y-38692579D01*
X104087555Y-38638763D01*
X104091559Y-38634379D01*
X104130906Y-38545801D01*
X104182263Y-38379309D01*
X104235595Y-38166882D01*
X104288121Y-37955028D01*
X104342174Y-37806409D01*
X104406949Y-37717709D01*
X104497448Y-37659884D01*
X104569078Y-37628065D01*
X104664676Y-37611853D01*
X104734748Y-37659884D01*
X104748805Y-37678217D01*
X104815890Y-37802733D01*
X104902092Y-37998996D01*
X104994586Y-38236426D01*
X105080546Y-38484440D01*
X105097828Y-38522716D01*
X105203776Y-38614262D01*
X105400553Y-38675425D01*
X105700124Y-38710570D01*
X106018399Y-38731724D01*
X106200605Y-38454627D01*
X106320786Y-38276177D01*
X106450569Y-38104820D01*
X106552891Y-38008902D01*
X106645295Y-37973223D01*
X106745322Y-37982579D01*
X106772320Y-37989594D01*
X106903166Y-38051163D01*
X106966992Y-38162391D01*
X106984393Y-38355392D01*
X106974572Y-38466513D01*
X106928952Y-38576713D01*
X106829200Y-38702931D01*
X106657104Y-38874029D01*
X106328920Y-39185090D01*
X106029403Y-39118061D01*
X105916736Y-39092806D01*
X105758377Y-39057146D01*
X105671494Y-39037355D01*
X105642802Y-39052874D01*
X105629770Y-39059923D01*
G37*
%TD*%
M02*
