%TF.GenerationSoftware,KiCad,Pcbnew,8.0.7-8.0.7-0~ubuntu22.04.1*%
%TF.CreationDate,2024-12-28T18:58:49+01:00*%
%TF.ProjectId,CrowBar,43726f77-4261-4722-9e6b-696361645f70,1.0A*%
%TF.SameCoordinates,Original*%
%TF.FileFunction,Copper,L2,Bot*%
%TF.FilePolarity,Positive*%
%FSLAX46Y46*%
G04 Gerber Fmt 4.6, Leading zero omitted, Abs format (unit mm)*
G04 Created by KiCad (PCBNEW 8.0.7-8.0.7-0~ubuntu22.04.1) date 2024-12-28 18:58:49*
%MOMM*%
%LPD*%
G01*
G04 APERTURE LIST*
%TA.AperFunction,ComponentPad*%
%ADD10C,5.000000*%
%TD*%
%TA.AperFunction,ComponentPad*%
%ADD11R,2.500000X4.500000*%
%TD*%
%TA.AperFunction,ComponentPad*%
%ADD12O,2.500000X4.500000*%
%TD*%
%TA.AperFunction,ViaPad*%
%ADD13C,1.800000*%
%TD*%
%TA.AperFunction,ViaPad*%
%ADD14C,5.000000*%
%TD*%
G04 APERTURE END LIST*
D10*
%TO.P,J2,1,Pin_1*%
%TO.N,GND*%
X122250000Y-25000000D03*
X111750000Y-25000000D03*
X122250000Y-35000000D03*
X111750000Y-35000000D03*
%TD*%
%TO.P,J1,1,Pin_1*%
%TO.N,Net-(J1-Pin_1)*%
X142250000Y-25000000D03*
X131750000Y-25000000D03*
X142250000Y-35000000D03*
X131750000Y-35000000D03*
%TD*%
D11*
%TO.P,D2,1,K*%
%TO.N,GND*%
X185450000Y-38110000D03*
D12*
%TO.P,D2,2,A*%
%TO.N,Net-(D1-K)*%
X180000000Y-38110000D03*
%TO.P,D2,3,G*%
%TO.N,Net-(D2-G)*%
X174550000Y-38110000D03*
%TD*%
D10*
%TO.P,J4,1,Pin_1*%
%TO.N,GND*%
X122250000Y-55000000D03*
X111750000Y-55000000D03*
X122250000Y-65000000D03*
X111750000Y-65000000D03*
%TD*%
%TO.P,F1,1*%
%TO.N,Net-(D1-K)*%
X162500000Y-61450000D03*
X162500000Y-53850000D03*
%TO.P,F1,2*%
%TO.N,Net-(J1-Pin_1)*%
X162500000Y-34150000D03*
X162500000Y-26550000D03*
%TD*%
%TO.P,J3,1,Pin_1*%
%TO.N,Net-(D1-K)*%
X142250000Y-55000000D03*
X131750000Y-55000000D03*
X142250000Y-65000000D03*
X131750000Y-65000000D03*
%TD*%
D13*
%TO.N,GND*%
X106100000Y-29363044D03*
X175250000Y-22250000D03*
X118139132Y-72950000D03*
X111300000Y-49350000D03*
X103800000Y-53086956D03*
X187300000Y-30950000D03*
X111400000Y-42058696D03*
X124500000Y-40400000D03*
X158208696Y-18000000D03*
X152500000Y-69000000D03*
X106100000Y-65819564D03*
X103800000Y-34858696D03*
X128300000Y-45745652D03*
X129208696Y-18000000D03*
X149000000Y-40500000D03*
X180082608Y-18000000D03*
X106100000Y-47591304D03*
X119300000Y-40408696D03*
X124400000Y-47691304D03*
X101200000Y-32991304D03*
X103800000Y-31213044D03*
X176436956Y-18000000D03*
X101200000Y-36636956D03*
X106100000Y-62173912D03*
X110847828Y-72950000D03*
X107202176Y-72950000D03*
X140013044Y-72950000D03*
X114493480Y-73000000D03*
X116650000Y-42058696D03*
D14*
X104000000Y-70000000D03*
D13*
X110917392Y-19150000D03*
X154000000Y-40500000D03*
X135666666Y-42100000D03*
X136500000Y-18000000D03*
X125430436Y-72950000D03*
X103800000Y-49441304D03*
X147304348Y-73050000D03*
X103800000Y-64023912D03*
X150917392Y-18000000D03*
X101200000Y-62156520D03*
X158241304Y-72950000D03*
X101200000Y-51219564D03*
X121750000Y-49341304D03*
X161886956Y-72950000D03*
X184700000Y-29000000D03*
X190000000Y-50500000D03*
X176436956Y-73000000D03*
X103800000Y-38504348D03*
X132854348Y-18000000D03*
X143708696Y-18000000D03*
X125500000Y-19150000D03*
X103900000Y-45795652D03*
X135666666Y-45745652D03*
X106100000Y-36654348D03*
X190000000Y-61436956D03*
X172791304Y-18000000D03*
X190000000Y-54145652D03*
X129076088Y-72950000D03*
X156000000Y-70500000D03*
X116650000Y-45704348D03*
X190000000Y-47500000D03*
X116550000Y-49350000D03*
X190000000Y-40208696D03*
X172791304Y-73000000D03*
X101300000Y-43928260D03*
X106100000Y-54882608D03*
X157000000Y-42000000D03*
X190000000Y-33000000D03*
X132721740Y-72950000D03*
X178250000Y-22250000D03*
X101200000Y-54865216D03*
X101300000Y-40282608D03*
X106200000Y-40300000D03*
X106100000Y-25717392D03*
X121850000Y-45695652D03*
X118208696Y-19150000D03*
X154595652Y-72950000D03*
X150950000Y-72950000D03*
X140063044Y-18000000D03*
X119300000Y-44054348D03*
X101200000Y-65802172D03*
X103800000Y-56732608D03*
X190000000Y-43854348D03*
X151500000Y-46500000D03*
X172250000Y-22250000D03*
X131983333Y-42150000D03*
X190000000Y-57791304D03*
D14*
X186000000Y-69000000D03*
D13*
X121784784Y-72950000D03*
X128300000Y-42100000D03*
X103800000Y-27567392D03*
X190000000Y-29000000D03*
X143658696Y-72950000D03*
X165500000Y-18000000D03*
X139350000Y-45795652D03*
X165532608Y-72950000D03*
X114563044Y-19200000D03*
X114050000Y-44054348D03*
X131983333Y-45795652D03*
X107271740Y-19150000D03*
D14*
X104000000Y-22000000D03*
D13*
X119200000Y-47700000D03*
X145500000Y-71000000D03*
X111400000Y-45704348D03*
X136367392Y-72950000D03*
X124500000Y-44045652D03*
X113950000Y-47700000D03*
D14*
X145000000Y-45500000D03*
X186000000Y-21000000D03*
D13*
X101200000Y-25700000D03*
X103800000Y-60378260D03*
X190000000Y-36563044D03*
X147354348Y-18000000D03*
X101200000Y-58510868D03*
X103900000Y-42150000D03*
X190000000Y-65500000D03*
X101200000Y-47573912D03*
X106100000Y-51236956D03*
X114050000Y-40408696D03*
X169145652Y-73000000D03*
X181000000Y-25500000D03*
X184700000Y-33000000D03*
X106200000Y-43945652D03*
X121850000Y-42050000D03*
X101200000Y-29345652D03*
X149000000Y-46500000D03*
X161854348Y-18000000D03*
X169145652Y-18000000D03*
X106100000Y-33008696D03*
X106100000Y-58528260D03*
X139350000Y-42150000D03*
X157000000Y-47000000D03*
X154563044Y-18000000D03*
X121854348Y-19150000D03*
X160000000Y-70500000D03*
X180082608Y-73000000D03*
%TO.N,Net-(D1-K)*%
X166500000Y-54500000D03*
X181500000Y-44500000D03*
X186500000Y-54500000D03*
X166500000Y-44500000D03*
X186500000Y-49500000D03*
X166500000Y-49500000D03*
X176500000Y-44500000D03*
X166500000Y-59500000D03*
X148500000Y-59500000D03*
X171500000Y-59500000D03*
X152500000Y-54500000D03*
X186500000Y-59500000D03*
X156500000Y-59500000D03*
X171500000Y-54500000D03*
X181500000Y-49500000D03*
X171500000Y-44500000D03*
X156500000Y-54500000D03*
X148500000Y-54500000D03*
X176500000Y-49500000D03*
X171500000Y-49500000D03*
X186500000Y-44500000D03*
X152500000Y-59500000D03*
%TD*%
%TA.AperFunction,Conductor*%
%TO.N,Net-(D1-K)*%
G36*
X182015677Y-34519685D02*
G01*
X182036319Y-34536319D01*
X182963681Y-35463681D01*
X182997166Y-35525004D01*
X183000000Y-35551362D01*
X183000000Y-41500000D01*
X183500000Y-42000000D01*
X186198638Y-42000000D01*
X186265677Y-42019685D01*
X186286319Y-42036319D01*
X187963681Y-43713681D01*
X187997166Y-43775004D01*
X188000000Y-43801362D01*
X188000000Y-63048638D01*
X187980315Y-63115677D01*
X187963681Y-63136319D01*
X187136319Y-63963681D01*
X187074996Y-63997166D01*
X187048638Y-64000000D01*
X168500000Y-64000000D01*
X167536811Y-65444783D01*
X167483246Y-65489644D01*
X167433637Y-65500000D01*
X147599999Y-65500000D01*
X145136319Y-67963681D01*
X145074996Y-67997166D01*
X145048638Y-68000000D01*
X129124000Y-68000000D01*
X129056961Y-67980315D01*
X129011206Y-67927511D01*
X129000000Y-67876000D01*
X129000000Y-57835602D01*
X177949500Y-57835602D01*
X177949500Y-58104397D01*
X177984582Y-58370880D01*
X177984583Y-58370885D01*
X177984584Y-58370891D01*
X177984585Y-58370893D01*
X178054152Y-58630524D01*
X178157011Y-58878850D01*
X178157019Y-58878866D01*
X178237830Y-59018832D01*
X178291413Y-59111641D01*
X178291415Y-59111644D01*
X178291416Y-59111645D01*
X178455042Y-59324888D01*
X178455048Y-59324895D01*
X178645104Y-59514951D01*
X178645110Y-59514956D01*
X178858359Y-59678587D01*
X179007968Y-59764964D01*
X179091133Y-59812980D01*
X179091149Y-59812988D01*
X179246008Y-59877132D01*
X179339474Y-59915847D01*
X179599109Y-59985416D01*
X179787319Y-60010193D01*
X179865602Y-60020500D01*
X179865603Y-60020500D01*
X180134398Y-60020500D01*
X180194905Y-60012534D01*
X180400891Y-59985416D01*
X180660526Y-59915847D01*
X180847457Y-59838417D01*
X180908850Y-59812988D01*
X180908853Y-59812986D01*
X180908859Y-59812984D01*
X181141641Y-59678587D01*
X181354890Y-59514956D01*
X181544956Y-59324890D01*
X181708587Y-59111641D01*
X181842984Y-58878859D01*
X181945847Y-58630526D01*
X182015416Y-58370891D01*
X182050500Y-58104397D01*
X182050500Y-57835603D01*
X182015416Y-57569109D01*
X181945847Y-57309474D01*
X181907132Y-57216008D01*
X181842988Y-57061149D01*
X181842980Y-57061133D01*
X181794964Y-56977968D01*
X181708587Y-56828359D01*
X181544956Y-56615110D01*
X181544951Y-56615104D01*
X181354895Y-56425048D01*
X181354888Y-56425042D01*
X181141645Y-56261416D01*
X181141644Y-56261415D01*
X181141641Y-56261413D01*
X181048832Y-56207830D01*
X180908866Y-56127019D01*
X180908850Y-56127011D01*
X180660524Y-56024152D01*
X180530708Y-55989368D01*
X180400891Y-55954584D01*
X180400885Y-55954583D01*
X180400880Y-55954582D01*
X180134398Y-55919500D01*
X180134397Y-55919500D01*
X179865603Y-55919500D01*
X179865602Y-55919500D01*
X179599119Y-55954582D01*
X179599112Y-55954583D01*
X179599109Y-55954584D01*
X179544239Y-55969286D01*
X179339475Y-56024152D01*
X179091149Y-56127011D01*
X179091133Y-56127019D01*
X178858354Y-56261416D01*
X178645111Y-56425042D01*
X178645104Y-56425048D01*
X178455048Y-56615104D01*
X178455042Y-56615111D01*
X178291416Y-56828354D01*
X178157019Y-57061133D01*
X178157011Y-57061149D01*
X178054152Y-57309475D01*
X177984585Y-57569106D01*
X177984582Y-57569119D01*
X177949500Y-57835602D01*
X129000000Y-57835602D01*
X129000000Y-50624852D01*
X129019685Y-50557813D01*
X129072489Y-50512058D01*
X129124848Y-50500855D01*
X156746241Y-50690042D01*
X158199999Y-50700000D01*
X158200000Y-50700000D01*
X158200001Y-50700000D01*
X160499986Y-48600013D01*
X160499989Y-48600009D01*
X160500000Y-48600000D01*
X161700000Y-47400000D01*
X166763300Y-42038859D01*
X166823642Y-42003636D01*
X166853450Y-42000000D01*
X176500000Y-42000000D01*
X177000000Y-41500000D01*
X177000000Y-35551362D01*
X177019685Y-35484323D01*
X177036319Y-35463681D01*
X177963681Y-34536319D01*
X178025004Y-34502834D01*
X178051362Y-34500000D01*
X181948638Y-34500000D01*
X182015677Y-34519685D01*
G37*
%TD.AperFunction*%
%TD*%
%TA.AperFunction,Conductor*%
%TO.N,GND*%
G36*
X186002562Y-16500605D02*
G01*
X186449036Y-16519072D01*
X186459209Y-16519915D01*
X186900114Y-16574873D01*
X186910194Y-16576555D01*
X187345042Y-16667733D01*
X187354950Y-16670242D01*
X187780786Y-16797019D01*
X187790454Y-16800338D01*
X188131430Y-16933388D01*
X188204339Y-16961838D01*
X188213724Y-16965954D01*
X188612869Y-17161083D01*
X188621877Y-17165958D01*
X189003544Y-17393383D01*
X189012123Y-17398989D01*
X189373693Y-17657144D01*
X189381775Y-17663435D01*
X189720796Y-17950571D01*
X189728336Y-17957512D01*
X190042487Y-18271663D01*
X190049428Y-18279203D01*
X190336564Y-18618224D01*
X190342859Y-18626312D01*
X190601010Y-18987876D01*
X190606616Y-18996455D01*
X190834041Y-19378122D01*
X190838919Y-19387136D01*
X191034045Y-19786275D01*
X191038161Y-19795660D01*
X191199656Y-20209533D01*
X191202984Y-20219226D01*
X191329753Y-20645036D01*
X191332269Y-20654971D01*
X191423441Y-21089791D01*
X191425128Y-21099900D01*
X191480082Y-21540769D01*
X191480928Y-21550983D01*
X191499394Y-21997437D01*
X191499500Y-22002561D01*
X191499500Y-68997438D01*
X191499394Y-69002562D01*
X191480928Y-69449016D01*
X191480082Y-69459230D01*
X191425128Y-69900099D01*
X191423441Y-69910208D01*
X191332269Y-70345028D01*
X191329753Y-70354963D01*
X191202984Y-70780773D01*
X191199656Y-70790466D01*
X191038161Y-71204339D01*
X191034045Y-71213724D01*
X190838919Y-71612863D01*
X190834041Y-71621877D01*
X190606616Y-72003544D01*
X190601010Y-72012123D01*
X190342859Y-72373687D01*
X190336564Y-72381775D01*
X190049428Y-72720796D01*
X190042487Y-72728336D01*
X189728336Y-73042487D01*
X189720796Y-73049428D01*
X189381775Y-73336564D01*
X189373687Y-73342859D01*
X189012123Y-73601010D01*
X189003544Y-73606616D01*
X188621877Y-73834041D01*
X188612863Y-73838919D01*
X188213724Y-74034045D01*
X188204339Y-74038161D01*
X187790466Y-74199656D01*
X187780773Y-74202984D01*
X187354963Y-74329753D01*
X187345028Y-74332269D01*
X186910208Y-74423441D01*
X186900099Y-74425128D01*
X186459230Y-74480082D01*
X186449016Y-74480928D01*
X186002563Y-74499394D01*
X185997439Y-74499500D01*
X104002561Y-74499500D01*
X103997437Y-74499394D01*
X103550983Y-74480928D01*
X103540769Y-74480082D01*
X103099900Y-74425128D01*
X103089791Y-74423441D01*
X102654971Y-74332269D01*
X102645036Y-74329753D01*
X102219226Y-74202984D01*
X102209533Y-74199656D01*
X101795660Y-74038161D01*
X101786275Y-74034045D01*
X101387136Y-73838919D01*
X101378122Y-73834041D01*
X100996455Y-73606616D01*
X100987876Y-73601010D01*
X100626312Y-73342859D01*
X100618224Y-73336564D01*
X100279203Y-73049428D01*
X100271663Y-73042487D01*
X99957512Y-72728336D01*
X99950571Y-72720796D01*
X99663435Y-72381775D01*
X99657140Y-72373687D01*
X99398989Y-72012123D01*
X99393383Y-72003544D01*
X99165958Y-71621877D01*
X99161080Y-71612863D01*
X98965954Y-71213724D01*
X98961838Y-71204339D01*
X98933388Y-71131430D01*
X98800338Y-70790454D01*
X98797019Y-70780786D01*
X98670242Y-70354950D01*
X98667733Y-70345042D01*
X98576555Y-69910194D01*
X98574873Y-69900114D01*
X98519915Y-69459209D01*
X98519072Y-69449036D01*
X98501279Y-69018854D01*
X98500606Y-69002562D01*
X98500500Y-68997438D01*
X98500500Y-50624850D01*
X127994500Y-50624850D01*
X127994500Y-67875989D01*
X127994566Y-67887579D01*
X127994567Y-67887593D01*
X128017481Y-68089745D01*
X128028685Y-68141246D01*
X128053217Y-68232941D01*
X128134306Y-68419524D01*
X128134310Y-68419531D01*
X128251294Y-68585966D01*
X128251300Y-68585974D01*
X128297055Y-68638778D01*
X128413683Y-68752750D01*
X128416169Y-68755180D01*
X128552195Y-68846184D01*
X128585264Y-68868308D01*
X128746738Y-68934108D01*
X128773671Y-68945083D01*
X128773677Y-68945085D01*
X128788687Y-68949492D01*
X128840710Y-68964768D01*
X128921594Y-68984917D01*
X129039470Y-68996904D01*
X129123999Y-69005500D01*
X129124000Y-69005500D01*
X145048640Y-69005500D01*
X145059387Y-69004923D01*
X145156129Y-68999738D01*
X145182487Y-68996904D01*
X145369371Y-68958610D01*
X145556882Y-68879672D01*
X145618205Y-68846187D01*
X145689638Y-68803245D01*
X145847315Y-68674677D01*
X147980172Y-66541818D01*
X148041495Y-66508334D01*
X148067853Y-66505500D01*
X167433543Y-66505500D01*
X167433637Y-66505500D01*
X167436768Y-66505495D01*
X167639108Y-66484282D01*
X167688717Y-66473926D01*
X167772533Y-66452631D01*
X167960459Y-66374685D01*
X168128848Y-66260506D01*
X168182413Y-66215645D01*
X168244037Y-66159529D01*
X168373437Y-66002534D01*
X169001316Y-65060717D01*
X169054881Y-65015856D01*
X169104490Y-65005500D01*
X187048640Y-65005500D01*
X187059387Y-65004923D01*
X187156129Y-64999738D01*
X187182487Y-64996904D01*
X187369371Y-64958610D01*
X187556882Y-64879672D01*
X187618205Y-64846187D01*
X187689638Y-64803245D01*
X187847315Y-64674677D01*
X188674677Y-63847315D01*
X188746612Y-63767230D01*
X188763246Y-63746588D01*
X188868308Y-63587374D01*
X188945083Y-63398967D01*
X188964768Y-63331928D01*
X188984917Y-63251044D01*
X189005500Y-63048638D01*
X189005500Y-43801362D01*
X188999738Y-43693871D01*
X188996904Y-43667513D01*
X188958610Y-43480629D01*
X188879672Y-43293118D01*
X188846187Y-43231795D01*
X188846184Y-43231790D01*
X188803250Y-43160369D01*
X188803242Y-43160358D01*
X188762001Y-43109779D01*
X188674677Y-43002685D01*
X186997315Y-41325323D01*
X186988049Y-41317000D01*
X186917225Y-41253383D01*
X186896596Y-41236760D01*
X186896584Y-41236751D01*
X186737378Y-41131694D01*
X186737376Y-41131693D01*
X186737374Y-41131692D01*
X186548967Y-41054917D01*
X186548964Y-41054916D01*
X186548959Y-41054914D01*
X186548960Y-41054914D01*
X186481931Y-41035233D01*
X186481933Y-41035233D01*
X186481928Y-41035232D01*
X186401044Y-41015083D01*
X186401040Y-41015082D01*
X186401041Y-41015082D01*
X186198639Y-40994500D01*
X186198638Y-40994500D01*
X184129500Y-40994500D01*
X184062461Y-40974815D01*
X184016706Y-40922011D01*
X184005500Y-40870500D01*
X184005500Y-35551359D01*
X184004635Y-35535238D01*
X183999738Y-35443871D01*
X183996904Y-35417513D01*
X183958610Y-35230629D01*
X183879672Y-35043118D01*
X183846187Y-34981795D01*
X183841718Y-34974361D01*
X183803250Y-34910369D01*
X183803242Y-34910358D01*
X183739977Y-34832770D01*
X183674677Y-34752685D01*
X182747315Y-33825323D01*
X182738049Y-33817000D01*
X182667225Y-33753383D01*
X182646596Y-33736760D01*
X182646584Y-33736751D01*
X182487378Y-33631694D01*
X182487376Y-33631693D01*
X182487374Y-33631692D01*
X182298967Y-33554917D01*
X182298964Y-33554916D01*
X182298959Y-33554914D01*
X182298960Y-33554914D01*
X182231931Y-33535233D01*
X182231933Y-33535233D01*
X182231928Y-33535232D01*
X182151044Y-33515083D01*
X182151040Y-33515082D01*
X182151041Y-33515082D01*
X181948639Y-33494500D01*
X181948638Y-33494500D01*
X178051362Y-33494500D01*
X178051360Y-33494500D01*
X177943888Y-33500261D01*
X177943879Y-33500261D01*
X177943871Y-33500262D01*
X177943868Y-33500262D01*
X177943857Y-33500263D01*
X177917515Y-33503095D01*
X177730630Y-33541389D01*
X177543122Y-33620325D01*
X177481790Y-33653815D01*
X177410369Y-33696749D01*
X177410358Y-33696757D01*
X177252682Y-33825325D01*
X176325336Y-34752671D01*
X176325306Y-34752703D01*
X176253383Y-34832774D01*
X176236760Y-34853403D01*
X176236751Y-34853415D01*
X176131694Y-35012621D01*
X176131693Y-35012623D01*
X176054914Y-35201040D01*
X176054913Y-35201042D01*
X176051468Y-35212774D01*
X176013690Y-35271550D01*
X175950132Y-35300571D01*
X175880974Y-35290623D01*
X175857006Y-35276207D01*
X175802994Y-35234761D01*
X175547510Y-35087258D01*
X175547500Y-35087254D01*
X175274961Y-34974364D01*
X175274954Y-34974362D01*
X175274952Y-34974361D01*
X174989993Y-34898007D01*
X174941113Y-34891571D01*
X174697513Y-34859500D01*
X174697506Y-34859500D01*
X174402494Y-34859500D01*
X174402486Y-34859500D01*
X174124085Y-34896153D01*
X174110007Y-34898007D01*
X173825048Y-34974361D01*
X173825038Y-34974364D01*
X173552499Y-35087254D01*
X173552489Y-35087258D01*
X173297006Y-35234761D01*
X173062959Y-35414352D01*
X173062952Y-35414358D01*
X172854358Y-35622952D01*
X172854352Y-35622959D01*
X172674761Y-35857006D01*
X172527258Y-36112489D01*
X172527254Y-36112499D01*
X172414364Y-36385038D01*
X172414361Y-36385048D01*
X172338008Y-36670004D01*
X172338006Y-36670015D01*
X172299500Y-36962486D01*
X172299500Y-39257513D01*
X172331571Y-39501113D01*
X172338007Y-39549993D01*
X172338008Y-39549995D01*
X172414361Y-39834951D01*
X172414364Y-39834961D01*
X172527254Y-40107500D01*
X172527258Y-40107510D01*
X172674761Y-40362993D01*
X172854352Y-40597040D01*
X172854358Y-40597047D01*
X173040130Y-40782819D01*
X173073615Y-40844142D01*
X173068631Y-40913834D01*
X173026759Y-40969767D01*
X172961295Y-40994184D01*
X172952449Y-40994500D01*
X166853450Y-40994500D01*
X166833905Y-40995687D01*
X166731707Y-41001897D01*
X166701954Y-41005525D01*
X166701955Y-41005526D01*
X166700284Y-41005731D01*
X166700281Y-41005731D01*
X166501926Y-41050992D01*
X166316753Y-41135251D01*
X166316743Y-41135256D01*
X166256411Y-41170473D01*
X166186231Y-41215438D01*
X166186230Y-41215439D01*
X166032286Y-41348460D01*
X160980055Y-46697880D01*
X160977586Y-46700420D01*
X159807138Y-47870868D01*
X159803066Y-47874759D01*
X157848825Y-49659067D01*
X157786045Y-49689733D01*
X157764367Y-49691492D01*
X156753128Y-49684566D01*
X129131749Y-49495379D01*
X129131736Y-49495379D01*
X129131735Y-49495379D01*
X129116700Y-49495388D01*
X129116688Y-49495388D01*
X128914476Y-49517608D01*
X128914455Y-49517612D01*
X128862125Y-49528809D01*
X128862113Y-49528811D01*
X128862109Y-49528813D01*
X128831597Y-49536920D01*
X128767060Y-49554068D01*
X128767054Y-49554070D01*
X128580475Y-49635158D01*
X128580468Y-49635162D01*
X128414033Y-49752146D01*
X128414020Y-49752157D01*
X128361225Y-49797904D01*
X128244819Y-49917021D01*
X128131693Y-50086113D01*
X128131690Y-50086120D01*
X128054916Y-50274523D01*
X128054914Y-50274529D01*
X128035233Y-50341558D01*
X128015082Y-50422449D01*
X127994500Y-50624850D01*
X98500500Y-50624850D01*
X98500500Y-34999999D01*
X128244696Y-34999999D01*
X128244696Y-35000000D01*
X128263898Y-35366405D01*
X128297053Y-35575736D01*
X128321295Y-35728794D01*
X128367881Y-35902656D01*
X128416260Y-36083206D01*
X128547746Y-36425739D01*
X128714320Y-36752656D01*
X128914147Y-37060364D01*
X129015628Y-37185682D01*
X129145051Y-37345506D01*
X129404494Y-37604949D01*
X129442965Y-37636102D01*
X129689635Y-37835852D01*
X129997343Y-38035679D01*
X129997348Y-38035682D01*
X130324264Y-38202255D01*
X130666801Y-38333742D01*
X131021206Y-38428705D01*
X131383596Y-38486102D01*
X131729734Y-38504241D01*
X131749999Y-38505304D01*
X131750000Y-38505304D01*
X131750001Y-38505304D01*
X131769203Y-38504297D01*
X132116404Y-38486102D01*
X132478794Y-38428705D01*
X132833199Y-38333742D01*
X133175736Y-38202255D01*
X133502652Y-38035682D01*
X133810366Y-37835851D01*
X134095506Y-37604949D01*
X134354949Y-37345506D01*
X134585851Y-37060366D01*
X134785682Y-36752652D01*
X134952255Y-36425736D01*
X135083742Y-36083199D01*
X135178705Y-35728794D01*
X135236102Y-35366404D01*
X135255304Y-35000000D01*
X135255304Y-34999999D01*
X138744696Y-34999999D01*
X138744696Y-35000000D01*
X138763898Y-35366405D01*
X138797053Y-35575736D01*
X138821295Y-35728794D01*
X138867881Y-35902656D01*
X138916260Y-36083206D01*
X139047746Y-36425739D01*
X139214320Y-36752656D01*
X139414147Y-37060364D01*
X139515628Y-37185682D01*
X139645051Y-37345506D01*
X139904494Y-37604949D01*
X139942965Y-37636102D01*
X140189635Y-37835852D01*
X140497343Y-38035679D01*
X140497348Y-38035682D01*
X140824264Y-38202255D01*
X141166801Y-38333742D01*
X141521206Y-38428705D01*
X141883596Y-38486102D01*
X142229734Y-38504241D01*
X142249999Y-38505304D01*
X142250000Y-38505304D01*
X142250001Y-38505304D01*
X142269203Y-38504297D01*
X142616404Y-38486102D01*
X142978794Y-38428705D01*
X143333199Y-38333742D01*
X143675736Y-38202255D01*
X144002652Y-38035682D01*
X144310366Y-37835851D01*
X144595506Y-37604949D01*
X144854949Y-37345506D01*
X145085851Y-37060366D01*
X145285682Y-36752652D01*
X145452255Y-36425736D01*
X145583742Y-36083199D01*
X145678705Y-35728794D01*
X145736102Y-35366404D01*
X145755304Y-35000000D01*
X145736102Y-34633596D01*
X145678705Y-34271206D01*
X145646228Y-34149999D01*
X158994696Y-34149999D01*
X158994696Y-34150000D01*
X159013898Y-34516405D01*
X159071294Y-34878788D01*
X159071294Y-34878790D01*
X159166260Y-35233206D01*
X159297746Y-35575739D01*
X159464320Y-35902656D01*
X159664147Y-36210364D01*
X159664149Y-36210366D01*
X159895051Y-36495506D01*
X160154494Y-36754949D01*
X160154498Y-36754952D01*
X160439635Y-36985852D01*
X160747343Y-37185679D01*
X160747348Y-37185682D01*
X161074264Y-37352255D01*
X161416801Y-37483742D01*
X161771206Y-37578705D01*
X162133596Y-37636102D01*
X162479734Y-37654241D01*
X162499999Y-37655304D01*
X162500000Y-37655304D01*
X162500001Y-37655304D01*
X162519203Y-37654297D01*
X162866404Y-37636102D01*
X163228794Y-37578705D01*
X163583199Y-37483742D01*
X163925736Y-37352255D01*
X164252652Y-37185682D01*
X164560366Y-36985851D01*
X164845506Y-36754949D01*
X165104949Y-36495506D01*
X165335851Y-36210366D01*
X165535682Y-35902652D01*
X165702255Y-35575736D01*
X165833742Y-35233199D01*
X165928705Y-34878794D01*
X165986102Y-34516404D01*
X166005304Y-34150000D01*
X165986102Y-33783596D01*
X165928705Y-33421206D01*
X165833742Y-33066801D01*
X165702255Y-32724264D01*
X165535682Y-32397348D01*
X165535679Y-32397343D01*
X165335852Y-32089635D01*
X165104952Y-31804498D01*
X165104949Y-31804494D01*
X164845506Y-31545051D01*
X164560366Y-31314149D01*
X164560364Y-31314147D01*
X164252656Y-31114320D01*
X163925739Y-30947746D01*
X163583206Y-30816260D01*
X163583199Y-30816258D01*
X163228794Y-30721295D01*
X163228790Y-30721294D01*
X163228789Y-30721294D01*
X162866405Y-30663898D01*
X162500001Y-30644696D01*
X162499999Y-30644696D01*
X162133594Y-30663898D01*
X161771211Y-30721294D01*
X161771209Y-30721294D01*
X161416793Y-30816260D01*
X161074260Y-30947746D01*
X160747343Y-31114320D01*
X160439635Y-31314147D01*
X160154498Y-31545047D01*
X160154490Y-31545054D01*
X159895054Y-31804490D01*
X159895047Y-31804498D01*
X159664147Y-32089635D01*
X159464320Y-32397343D01*
X159297746Y-32724260D01*
X159166260Y-33066793D01*
X159071294Y-33421209D01*
X159071294Y-33421211D01*
X159013898Y-33783594D01*
X158994696Y-34149999D01*
X145646228Y-34149999D01*
X145583742Y-33916801D01*
X145452255Y-33574264D01*
X145285682Y-33247348D01*
X145085851Y-32939634D01*
X144854949Y-32654494D01*
X144595506Y-32395051D01*
X144310366Y-32164149D01*
X144310364Y-32164147D01*
X144002656Y-31964320D01*
X143675739Y-31797746D01*
X143333206Y-31666260D01*
X143333199Y-31666258D01*
X142978794Y-31571295D01*
X142978790Y-31571294D01*
X142978789Y-31571294D01*
X142616405Y-31513898D01*
X142250001Y-31494696D01*
X142249999Y-31494696D01*
X141883594Y-31513898D01*
X141521211Y-31571294D01*
X141521209Y-31571294D01*
X141166793Y-31666260D01*
X140824260Y-31797746D01*
X140497343Y-31964320D01*
X140189635Y-32164147D01*
X139904498Y-32395047D01*
X139904490Y-32395054D01*
X139645054Y-32654490D01*
X139645047Y-32654498D01*
X139414147Y-32939635D01*
X139214320Y-33247343D01*
X139047746Y-33574260D01*
X138916260Y-33916793D01*
X138821294Y-34271209D01*
X138821294Y-34271211D01*
X138763898Y-34633594D01*
X138744696Y-34999999D01*
X135255304Y-34999999D01*
X135236102Y-34633596D01*
X135178705Y-34271206D01*
X135083742Y-33916801D01*
X134952255Y-33574264D01*
X134785682Y-33247348D01*
X134585851Y-32939634D01*
X134354949Y-32654494D01*
X134095506Y-32395051D01*
X133810366Y-32164149D01*
X133810364Y-32164147D01*
X133502656Y-31964320D01*
X133175739Y-31797746D01*
X132833206Y-31666260D01*
X132833199Y-31666258D01*
X132478794Y-31571295D01*
X132478790Y-31571294D01*
X132478789Y-31571294D01*
X132116405Y-31513898D01*
X131750001Y-31494696D01*
X131749999Y-31494696D01*
X131383594Y-31513898D01*
X131021211Y-31571294D01*
X131021209Y-31571294D01*
X130666793Y-31666260D01*
X130324260Y-31797746D01*
X129997343Y-31964320D01*
X129689635Y-32164147D01*
X129404498Y-32395047D01*
X129404490Y-32395054D01*
X129145054Y-32654490D01*
X129145047Y-32654498D01*
X128914147Y-32939635D01*
X128714320Y-33247343D01*
X128547746Y-33574260D01*
X128416260Y-33916793D01*
X128321294Y-34271209D01*
X128321294Y-34271211D01*
X128263898Y-34633594D01*
X128244696Y-34999999D01*
X98500500Y-34999999D01*
X98500500Y-24999999D01*
X128244696Y-24999999D01*
X128244696Y-25000000D01*
X128263898Y-25366405D01*
X128321294Y-25728788D01*
X128321294Y-25728790D01*
X128416260Y-26083206D01*
X128547746Y-26425739D01*
X128714320Y-26752656D01*
X128914147Y-27060364D01*
X128914149Y-27060366D01*
X129145051Y-27345506D01*
X129404494Y-27604949D01*
X129563311Y-27733557D01*
X129689635Y-27835852D01*
X129997343Y-28035679D01*
X129997348Y-28035682D01*
X130324264Y-28202255D01*
X130666801Y-28333742D01*
X131021206Y-28428705D01*
X131383596Y-28486102D01*
X131729734Y-28504241D01*
X131749999Y-28505304D01*
X131750000Y-28505304D01*
X131750001Y-28505304D01*
X131769203Y-28504297D01*
X132116404Y-28486102D01*
X132478794Y-28428705D01*
X132833199Y-28333742D01*
X133175736Y-28202255D01*
X133502652Y-28035682D01*
X133810366Y-27835851D01*
X134095506Y-27604949D01*
X134354949Y-27345506D01*
X134585851Y-27060366D01*
X134785682Y-26752652D01*
X134952255Y-26425736D01*
X135083742Y-26083199D01*
X135178705Y-25728794D01*
X135236102Y-25366404D01*
X135255304Y-25000000D01*
X135255304Y-24999999D01*
X138744696Y-24999999D01*
X138744696Y-25000000D01*
X138763898Y-25366405D01*
X138821294Y-25728788D01*
X138821294Y-25728790D01*
X138916260Y-26083206D01*
X139047746Y-26425739D01*
X139214320Y-26752656D01*
X139414147Y-27060364D01*
X139414149Y-27060366D01*
X139645051Y-27345506D01*
X139904494Y-27604949D01*
X140063311Y-27733557D01*
X140189635Y-27835852D01*
X140497343Y-28035679D01*
X140497348Y-28035682D01*
X140824264Y-28202255D01*
X141166801Y-28333742D01*
X141521206Y-28428705D01*
X141883596Y-28486102D01*
X142229734Y-28504241D01*
X142249999Y-28505304D01*
X142250000Y-28505304D01*
X142250001Y-28505304D01*
X142269203Y-28504297D01*
X142616404Y-28486102D01*
X142978794Y-28428705D01*
X143333199Y-28333742D01*
X143675736Y-28202255D01*
X144002652Y-28035682D01*
X144310366Y-27835851D01*
X144595506Y-27604949D01*
X144854949Y-27345506D01*
X145085851Y-27060366D01*
X145285682Y-26752652D01*
X145388939Y-26549999D01*
X158994696Y-26549999D01*
X158994696Y-26550000D01*
X159005316Y-26752656D01*
X159013898Y-26916404D01*
X159071295Y-27278794D01*
X159158688Y-27604949D01*
X159166260Y-27633206D01*
X159297746Y-27975739D01*
X159464320Y-28302656D01*
X159664147Y-28610364D01*
X159664149Y-28610366D01*
X159895051Y-28895506D01*
X160154494Y-29154949D01*
X160154498Y-29154952D01*
X160439635Y-29385852D01*
X160747343Y-29585679D01*
X160747348Y-29585682D01*
X161074264Y-29752255D01*
X161416801Y-29883742D01*
X161771206Y-29978705D01*
X162133596Y-30036102D01*
X162479734Y-30054241D01*
X162499999Y-30055304D01*
X162500000Y-30055304D01*
X162500001Y-30055304D01*
X162519203Y-30054297D01*
X162866404Y-30036102D01*
X163228794Y-29978705D01*
X163583199Y-29883742D01*
X163925736Y-29752255D01*
X164252652Y-29585682D01*
X164560366Y-29385851D01*
X164845506Y-29154949D01*
X165104949Y-28895506D01*
X165335851Y-28610366D01*
X165535682Y-28302652D01*
X165702255Y-27975736D01*
X165833742Y-27633199D01*
X165928705Y-27278794D01*
X165986102Y-26916404D01*
X166005304Y-26550000D01*
X165986102Y-26183596D01*
X165928705Y-25821206D01*
X165833742Y-25466801D01*
X165702255Y-25124264D01*
X165535682Y-24797348D01*
X165429341Y-24633596D01*
X165335852Y-24489635D01*
X165104952Y-24204498D01*
X165104949Y-24204494D01*
X164845506Y-23945051D01*
X164560366Y-23714149D01*
X164560364Y-23714147D01*
X164252656Y-23514320D01*
X163925739Y-23347746D01*
X163583206Y-23216260D01*
X163583199Y-23216258D01*
X163228794Y-23121295D01*
X163228790Y-23121294D01*
X163228789Y-23121294D01*
X162866405Y-23063898D01*
X162500001Y-23044696D01*
X162499999Y-23044696D01*
X162133594Y-23063898D01*
X161771211Y-23121294D01*
X161771209Y-23121294D01*
X161416793Y-23216260D01*
X161074260Y-23347746D01*
X160747343Y-23514320D01*
X160439635Y-23714147D01*
X160154498Y-23945047D01*
X160154490Y-23945054D01*
X159895054Y-24204490D01*
X159895047Y-24204498D01*
X159664147Y-24489635D01*
X159464320Y-24797343D01*
X159297746Y-25124260D01*
X159166260Y-25466793D01*
X159071294Y-25821209D01*
X159071294Y-25821211D01*
X159013898Y-26183594D01*
X158994696Y-26549999D01*
X145388939Y-26549999D01*
X145452255Y-26425736D01*
X145583742Y-26083199D01*
X145678705Y-25728794D01*
X145736102Y-25366404D01*
X145755304Y-25000000D01*
X145736102Y-24633596D01*
X145678705Y-24271206D01*
X145583742Y-23916801D01*
X145452255Y-23574264D01*
X145285682Y-23247348D01*
X145285679Y-23247343D01*
X145085852Y-22939635D01*
X144854952Y-22654498D01*
X144854949Y-22654494D01*
X144595506Y-22395051D01*
X144310366Y-22164149D01*
X144310364Y-22164147D01*
X144002656Y-21964320D01*
X143675739Y-21797746D01*
X143333206Y-21666260D01*
X143333199Y-21666258D01*
X142978794Y-21571295D01*
X142978790Y-21571294D01*
X142978789Y-21571294D01*
X142616405Y-21513898D01*
X142250001Y-21494696D01*
X142249999Y-21494696D01*
X141883594Y-21513898D01*
X141521211Y-21571294D01*
X141521209Y-21571294D01*
X141166793Y-21666260D01*
X140824260Y-21797746D01*
X140497343Y-21964320D01*
X140189635Y-22164147D01*
X139904498Y-22395047D01*
X139904490Y-22395054D01*
X139645054Y-22654490D01*
X139645047Y-22654498D01*
X139414147Y-22939635D01*
X139214320Y-23247343D01*
X139047746Y-23574260D01*
X138916260Y-23916793D01*
X138821294Y-24271209D01*
X138821294Y-24271211D01*
X138763898Y-24633594D01*
X138744696Y-24999999D01*
X135255304Y-24999999D01*
X135236102Y-24633596D01*
X135178705Y-24271206D01*
X135083742Y-23916801D01*
X134952255Y-23574264D01*
X134785682Y-23247348D01*
X134785679Y-23247343D01*
X134585852Y-22939635D01*
X134354952Y-22654498D01*
X134354949Y-22654494D01*
X134095506Y-22395051D01*
X133810366Y-22164149D01*
X133810364Y-22164147D01*
X133502656Y-21964320D01*
X133175739Y-21797746D01*
X132833206Y-21666260D01*
X132833199Y-21666258D01*
X132478794Y-21571295D01*
X132478790Y-21571294D01*
X132478789Y-21571294D01*
X132116405Y-21513898D01*
X131750001Y-21494696D01*
X131749999Y-21494696D01*
X131383594Y-21513898D01*
X131021211Y-21571294D01*
X131021209Y-21571294D01*
X130666793Y-21666260D01*
X130324260Y-21797746D01*
X129997343Y-21964320D01*
X129689635Y-22164147D01*
X129404498Y-22395047D01*
X129404490Y-22395054D01*
X129145054Y-22654490D01*
X129145047Y-22654498D01*
X128914147Y-22939635D01*
X128714320Y-23247343D01*
X128547746Y-23574260D01*
X128416260Y-23916793D01*
X128321294Y-24271209D01*
X128321294Y-24271211D01*
X128263898Y-24633594D01*
X128244696Y-24999999D01*
X98500500Y-24999999D01*
X98500500Y-22002561D01*
X98500606Y-21997437D01*
X98508865Y-21797746D01*
X98519072Y-21550961D01*
X98519915Y-21540792D01*
X98574874Y-21099881D01*
X98576554Y-21089809D01*
X98667734Y-20654951D01*
X98670241Y-20645055D01*
X98797022Y-20219205D01*
X98800336Y-20209553D01*
X98961840Y-19795654D01*
X98965954Y-19786275D01*
X99161088Y-19387120D01*
X99165949Y-19378136D01*
X99393389Y-18996445D01*
X99398982Y-18987885D01*
X99657153Y-18626294D01*
X99663422Y-18618240D01*
X99950581Y-18279191D01*
X99957500Y-18271675D01*
X100271675Y-17957500D01*
X100279191Y-17950581D01*
X100618240Y-17663422D01*
X100626294Y-17657153D01*
X100987885Y-17398982D01*
X100996445Y-17393389D01*
X101378136Y-17165949D01*
X101387120Y-17161088D01*
X101786280Y-16965951D01*
X101795654Y-16961840D01*
X102209553Y-16800336D01*
X102219205Y-16797022D01*
X102645055Y-16670241D01*
X102654951Y-16667734D01*
X103089809Y-16576554D01*
X103099881Y-16574874D01*
X103540792Y-16519915D01*
X103550961Y-16519072D01*
X103997437Y-16500605D01*
X104002561Y-16500500D01*
X104065892Y-16500500D01*
X185934108Y-16500500D01*
X185997439Y-16500500D01*
X186002562Y-16500605D01*
G37*
%TD.AperFunction*%
%TD*%
M02*
