M48
; DRILL file {KiCad 8.0.7-8.0.7-0~ubuntu22.04.1} date 2024-12-28T18:58:45+0100
; FORMAT={-:-/ absolute / inch / decimal}
; #@! TF.CreationDate,2024-12-28T18:58:45+01:00
; #@! TF.GenerationSoftware,Kicad,Pcbnew,8.0.7-8.0.7-0~ubuntu22.04.1
; #@! TF.FileFunction,Plated,1,2,PTH
FMAT,2
INCH
; #@! TA.AperFunction,Plated,PTH,ViaDrill
T1C0.0354
; #@! TA.AperFunction,Plated,PTH,ComponentDrill
T2C0.0591
; #@! TA.AperFunction,Plated,PTH,ComponentDrill
T3C0.0787
; #@! TA.AperFunction,Plated,PTH,ComponentDrill
T4C0.1181
; #@! TA.AperFunction,Plated,PTH,ViaDrill
T5C0.1260
%
G90
G05
T1
X3.9843Y-1.0118
X3.9843Y-1.1553
X3.9843Y-1.2989
X3.9843Y-1.4424
X3.9843Y-1.873
X3.9843Y-2.0165
X3.9843Y-2.16
X3.9843Y-2.3036
X3.9843Y-2.4471
X3.9843Y-2.5906
X3.9882Y-1.5859
X3.9882Y-1.7295
X4.0866Y-1.0853
X4.0866Y-1.2289
X4.0866Y-1.3724
X4.0866Y-1.5159
X4.0866Y-1.9465
X4.0866Y-2.09
X4.0866Y-2.2336
X4.0866Y-2.3771
X4.0866Y-2.5206
X4.0906Y-1.6594
X4.0906Y-1.803
X4.1772Y-1.0125
X4.1772Y-1.156
X4.1772Y-1.2996
X4.1772Y-1.4431
X4.1772Y-1.8737
X4.1772Y-2.0172
X4.1772Y-2.1607
X4.1772Y-2.3043
X4.1772Y-2.4478
X4.1772Y-2.5913
X4.1811Y-1.5866
X4.1811Y-1.7301
X4.2206Y-2.872
X4.2233Y-0.7539
X4.3641Y-2.872
X4.3668Y-0.7539
X4.3819Y-1.9429
X4.3858Y-1.6559
X4.3858Y-1.7994
X4.4862Y-1.878
X4.4902Y-1.5909
X4.4902Y-1.7344
X4.5076Y-2.874
X4.5104Y-0.7559
X4.5886Y-1.9429
X4.5925Y-1.6559
X4.5925Y-1.7994
X4.6511Y-2.872
X4.6539Y-0.7539
X4.6929Y-1.878
X4.6969Y-1.5909
X4.6969Y-1.7344
X4.7933Y-1.9426
X4.7947Y-2.872
X4.7972Y-1.6555
X4.7972Y-1.799
X4.7974Y-0.7539
X4.8976Y-1.8776
X4.9016Y-1.5906
X4.9016Y-1.7341
X4.9382Y-2.872
X4.9409Y-0.7539
X5.0512Y-1.6575
X5.0512Y-1.801
X5.0817Y-2.872
X5.087Y-0.7087
X5.1962Y-1.6594
X5.1962Y-1.803
X5.2253Y-2.872
X5.2305Y-0.7087
X5.3412Y-1.6575
X5.3412Y-1.801
X5.3688Y-2.872
X5.374Y-0.7087
X5.4862Y-1.6594
X5.4862Y-1.803
X5.5123Y-2.872
X5.5143Y-0.7087
X5.6559Y-2.872
X5.6578Y-0.7087
X5.7283Y-2.7953
X5.7994Y-2.876
X5.8014Y-0.7087
X5.8465Y-2.1457
X5.8465Y-2.3425
X5.8661Y-1.5945
X5.8661Y-1.8307
X5.9416Y-0.7087
X5.9429Y-2.872
X5.9646Y-1.8307
X6.0039Y-2.1457
X6.0039Y-2.3425
X6.0039Y-2.7165
X6.063Y-1.5945
X6.0852Y-0.7087
X6.0864Y-2.872
X6.1417Y-2.7756
X6.1614Y-2.1457
X6.1614Y-2.3425
X6.1811Y-1.6535
X6.1811Y-1.8504
X6.2287Y-0.7087
X6.23Y-2.872
X6.2992Y-2.7756
X6.3722Y-0.7087
X6.3735Y-2.872
X6.5157Y-0.7087
X6.517Y-2.872
X6.5551Y-1.752
X6.5551Y-1.9488
X6.5551Y-2.1457
X6.5551Y-2.3425
X6.6593Y-0.7087
X6.6593Y-2.874
X6.752Y-1.752
X6.752Y-1.9488
X6.752Y-2.1457
X6.752Y-2.3425
X6.7815Y-0.876
X6.8028Y-0.7087
X6.8028Y-2.874
X6.8996Y-0.876
X6.9463Y-0.7087
X6.9463Y-2.874
X6.9488Y-1.752
X6.9488Y-1.9488
X7.0177Y-0.876
X7.0899Y-0.7087
X7.0899Y-2.874
X7.126Y-1.0039
X7.1457Y-1.752
X7.1457Y-1.9488
X7.2717Y-1.1417
X7.2717Y-1.2992
X7.3425Y-1.752
X7.3425Y-1.9488
X7.3425Y-2.1457
X7.3425Y-2.3425
X7.374Y-1.2185
X7.4803Y-1.1417
X7.4803Y-1.2992
X7.4803Y-1.4395
X7.4803Y-1.583
X7.4803Y-1.7265
X7.4803Y-1.8701
X7.4803Y-1.9882
X7.4803Y-2.1317
X7.4803Y-2.2752
X7.4803Y-2.4188
X7.4803Y-2.5787
T2
X6.872Y-1.5004
X7.0866Y-1.5004
X7.3012Y-1.5004
T3
X6.3976Y-1.0453
X6.3976Y-1.3445
X6.3976Y-2.1201
X6.3976Y-2.4193
T4
X4.3996Y-0.9843
X4.3996Y-1.378
X4.3996Y-2.1654
X4.3996Y-2.5591
X4.813Y-0.9843
X4.813Y-1.378
X4.813Y-2.1654
X4.813Y-2.5591
X5.187Y-0.9843
X5.187Y-1.378
X5.187Y-2.1654
X5.187Y-2.5591
X5.6004Y-0.9843
X5.6004Y-1.378
X5.6004Y-2.1654
X5.6004Y-2.5591
T5
X4.0945Y-0.8661
X4.0945Y-2.7559
X5.7087Y-1.7913
X7.3228Y-0.8268
X7.3228Y-2.7165
M30
