%TF.GenerationSoftware,KiCad,Pcbnew,8.0.7-8.0.7-0~ubuntu22.04.1*%
%TF.CreationDate,2024-12-28T18:58:44+01:00*%
%TF.ProjectId,CrowBar,43726f77-4261-4722-9e6b-696361645f70,1.0A*%
%TF.SameCoordinates,Original*%
%TF.FileFunction,Drillmap*%
%TF.FilePolarity,Positive*%
%FSLAX45Y45*%
G04 Gerber Fmt 4.5, Leading zero omitted, Abs format (unit mm)*
G04 Created by KiCad (PCBNEW 8.0.7-8.0.7-0~ubuntu22.04.1) date 2024-12-28 18:58:44*
%MOMM*%
%LPD*%
G01*
G04 APERTURE LIST*
%ADD10C,0.050000*%
%ADD11C,0.200000*%
%ADD12C,0.360000*%
G04 APERTURE END LIST*
D10*
X10400000Y-7500000D02*
X18600000Y-7500000D01*
X9800000Y-2200000D02*
G75*
G02*
X10400000Y-1600000I600000J0D01*
G01*
X19200000Y-6900000D02*
G75*
G02*
X18600000Y-7500000I-600000J0D01*
G01*
X9800000Y-2200000D02*
X9800000Y-6900000D01*
X18600000Y-1600000D02*
G75*
G02*
X19200000Y-2200000I0J-600000D01*
G01*
X19200000Y-6900000D02*
X19200000Y-2200000D01*
X18600000Y-1600000D02*
X10400000Y-1600000D01*
X10400000Y-7500000D02*
G75*
G02*
X9800000Y-6900000I0J600000D01*
G01*
D11*
D12*
X17820000Y-5617000D02*
X18180000Y-5977000D01*
X18180000Y-5617000D02*
X17820000Y-5977000D01*
D11*
X10058277Y-7813984D02*
X10058277Y-7613984D01*
X10058277Y-7613984D02*
X10105896Y-7613984D01*
X10105896Y-7613984D02*
X10134467Y-7623508D01*
X10134467Y-7623508D02*
X10153515Y-7642555D01*
X10153515Y-7642555D02*
X10163039Y-7661603D01*
X10163039Y-7661603D02*
X10172563Y-7699698D01*
X10172563Y-7699698D02*
X10172563Y-7728269D01*
X10172563Y-7728269D02*
X10163039Y-7766365D01*
X10163039Y-7766365D02*
X10153515Y-7785412D01*
X10153515Y-7785412D02*
X10134467Y-7804460D01*
X10134467Y-7804460D02*
X10105896Y-7813984D01*
X10105896Y-7813984D02*
X10058277Y-7813984D01*
X10258277Y-7813984D02*
X10258277Y-7680650D01*
X10258277Y-7718746D02*
X10267801Y-7699698D01*
X10267801Y-7699698D02*
X10277324Y-7690174D01*
X10277324Y-7690174D02*
X10296372Y-7680650D01*
X10296372Y-7680650D02*
X10315420Y-7680650D01*
X10382086Y-7813984D02*
X10382086Y-7680650D01*
X10382086Y-7613984D02*
X10372563Y-7623508D01*
X10372563Y-7623508D02*
X10382086Y-7633031D01*
X10382086Y-7633031D02*
X10391610Y-7623508D01*
X10391610Y-7623508D02*
X10382086Y-7613984D01*
X10382086Y-7613984D02*
X10382086Y-7633031D01*
X10505896Y-7813984D02*
X10486848Y-7804460D01*
X10486848Y-7804460D02*
X10477324Y-7785412D01*
X10477324Y-7785412D02*
X10477324Y-7613984D01*
X10610658Y-7813984D02*
X10591610Y-7804460D01*
X10591610Y-7804460D02*
X10582086Y-7785412D01*
X10582086Y-7785412D02*
X10582086Y-7613984D01*
X10839229Y-7813984D02*
X10839229Y-7613984D01*
X10839229Y-7613984D02*
X10905896Y-7756841D01*
X10905896Y-7756841D02*
X10972563Y-7613984D01*
X10972563Y-7613984D02*
X10972563Y-7813984D01*
X11153515Y-7813984D02*
X11153515Y-7709222D01*
X11153515Y-7709222D02*
X11143991Y-7690174D01*
X11143991Y-7690174D02*
X11124944Y-7680650D01*
X11124944Y-7680650D02*
X11086848Y-7680650D01*
X11086848Y-7680650D02*
X11067801Y-7690174D01*
X11153515Y-7804460D02*
X11134467Y-7813984D01*
X11134467Y-7813984D02*
X11086848Y-7813984D01*
X11086848Y-7813984D02*
X11067801Y-7804460D01*
X11067801Y-7804460D02*
X11058277Y-7785412D01*
X11058277Y-7785412D02*
X11058277Y-7766365D01*
X11058277Y-7766365D02*
X11067801Y-7747317D01*
X11067801Y-7747317D02*
X11086848Y-7737793D01*
X11086848Y-7737793D02*
X11134467Y-7737793D01*
X11134467Y-7737793D02*
X11153515Y-7728269D01*
X11248753Y-7680650D02*
X11248753Y-7880650D01*
X11248753Y-7690174D02*
X11267801Y-7680650D01*
X11267801Y-7680650D02*
X11305896Y-7680650D01*
X11305896Y-7680650D02*
X11324943Y-7690174D01*
X11324943Y-7690174D02*
X11334467Y-7699698D01*
X11334467Y-7699698D02*
X11343991Y-7718746D01*
X11343991Y-7718746D02*
X11343991Y-7775888D01*
X11343991Y-7775888D02*
X11334467Y-7794936D01*
X11334467Y-7794936D02*
X11324943Y-7804460D01*
X11324943Y-7804460D02*
X11305896Y-7813984D01*
X11305896Y-7813984D02*
X11267801Y-7813984D01*
X11267801Y-7813984D02*
X11248753Y-7804460D01*
X11429705Y-7794936D02*
X11439229Y-7804460D01*
X11439229Y-7804460D02*
X11429705Y-7813984D01*
X11429705Y-7813984D02*
X11420182Y-7804460D01*
X11420182Y-7804460D02*
X11429705Y-7794936D01*
X11429705Y-7794936D02*
X11429705Y-7813984D01*
X11429705Y-7690174D02*
X11439229Y-7699698D01*
X11439229Y-7699698D02*
X11429705Y-7709222D01*
X11429705Y-7709222D02*
X11420182Y-7699698D01*
X11420182Y-7699698D02*
X11429705Y-7690174D01*
X11429705Y-7690174D02*
X11429705Y-7709222D01*
X9597500Y-8042500D02*
X9797500Y-8242500D01*
X9797500Y-8042500D02*
X9597500Y-8242500D01*
X10039229Y-8033984D02*
X10163039Y-8033984D01*
X10163039Y-8033984D02*
X10096372Y-8110174D01*
X10096372Y-8110174D02*
X10124944Y-8110174D01*
X10124944Y-8110174D02*
X10143991Y-8119698D01*
X10143991Y-8119698D02*
X10153515Y-8129222D01*
X10153515Y-8129222D02*
X10163039Y-8148269D01*
X10163039Y-8148269D02*
X10163039Y-8195888D01*
X10163039Y-8195888D02*
X10153515Y-8214936D01*
X10153515Y-8214936D02*
X10143991Y-8224460D01*
X10143991Y-8224460D02*
X10124944Y-8233984D01*
X10124944Y-8233984D02*
X10067801Y-8233984D01*
X10067801Y-8233984D02*
X10048753Y-8224460D01*
X10048753Y-8224460D02*
X10039229Y-8214936D01*
X10248753Y-8214936D02*
X10258277Y-8224460D01*
X10258277Y-8224460D02*
X10248753Y-8233984D01*
X10248753Y-8233984D02*
X10239229Y-8224460D01*
X10239229Y-8224460D02*
X10248753Y-8214936D01*
X10248753Y-8214936D02*
X10248753Y-8233984D01*
X10429705Y-8033984D02*
X10391610Y-8033984D01*
X10391610Y-8033984D02*
X10372563Y-8043508D01*
X10372563Y-8043508D02*
X10363039Y-8053031D01*
X10363039Y-8053031D02*
X10343991Y-8081603D01*
X10343991Y-8081603D02*
X10334467Y-8119698D01*
X10334467Y-8119698D02*
X10334467Y-8195888D01*
X10334467Y-8195888D02*
X10343991Y-8214936D01*
X10343991Y-8214936D02*
X10353515Y-8224460D01*
X10353515Y-8224460D02*
X10372563Y-8233984D01*
X10372563Y-8233984D02*
X10410658Y-8233984D01*
X10410658Y-8233984D02*
X10429705Y-8224460D01*
X10429705Y-8224460D02*
X10439229Y-8214936D01*
X10439229Y-8214936D02*
X10448753Y-8195888D01*
X10448753Y-8195888D02*
X10448753Y-8148269D01*
X10448753Y-8148269D02*
X10439229Y-8129222D01*
X10439229Y-8129222D02*
X10429705Y-8119698D01*
X10429705Y-8119698D02*
X10410658Y-8110174D01*
X10410658Y-8110174D02*
X10372563Y-8110174D01*
X10372563Y-8110174D02*
X10353515Y-8119698D01*
X10353515Y-8119698D02*
X10343991Y-8129222D01*
X10343991Y-8129222D02*
X10334467Y-8148269D01*
X10572563Y-8033984D02*
X10591610Y-8033984D01*
X10591610Y-8033984D02*
X10610658Y-8043508D01*
X10610658Y-8043508D02*
X10620182Y-8053031D01*
X10620182Y-8053031D02*
X10629705Y-8072079D01*
X10629705Y-8072079D02*
X10639229Y-8110174D01*
X10639229Y-8110174D02*
X10639229Y-8157793D01*
X10639229Y-8157793D02*
X10629705Y-8195888D01*
X10629705Y-8195888D02*
X10620182Y-8214936D01*
X10620182Y-8214936D02*
X10610658Y-8224460D01*
X10610658Y-8224460D02*
X10591610Y-8233984D01*
X10591610Y-8233984D02*
X10572563Y-8233984D01*
X10572563Y-8233984D02*
X10553515Y-8224460D01*
X10553515Y-8224460D02*
X10543991Y-8214936D01*
X10543991Y-8214936D02*
X10534467Y-8195888D01*
X10534467Y-8195888D02*
X10524944Y-8157793D01*
X10524944Y-8157793D02*
X10524944Y-8110174D01*
X10524944Y-8110174D02*
X10534467Y-8072079D01*
X10534467Y-8072079D02*
X10543991Y-8053031D01*
X10543991Y-8053031D02*
X10553515Y-8043508D01*
X10553515Y-8043508D02*
X10572563Y-8033984D01*
X10763039Y-8033984D02*
X10782086Y-8033984D01*
X10782086Y-8033984D02*
X10801134Y-8043508D01*
X10801134Y-8043508D02*
X10810658Y-8053031D01*
X10810658Y-8053031D02*
X10820182Y-8072079D01*
X10820182Y-8072079D02*
X10829705Y-8110174D01*
X10829705Y-8110174D02*
X10829705Y-8157793D01*
X10829705Y-8157793D02*
X10820182Y-8195888D01*
X10820182Y-8195888D02*
X10810658Y-8214936D01*
X10810658Y-8214936D02*
X10801134Y-8224460D01*
X10801134Y-8224460D02*
X10782086Y-8233984D01*
X10782086Y-8233984D02*
X10763039Y-8233984D01*
X10763039Y-8233984D02*
X10743991Y-8224460D01*
X10743991Y-8224460D02*
X10734467Y-8214936D01*
X10734467Y-8214936D02*
X10724944Y-8195888D01*
X10724944Y-8195888D02*
X10715420Y-8157793D01*
X10715420Y-8157793D02*
X10715420Y-8110174D01*
X10715420Y-8110174D02*
X10724944Y-8072079D01*
X10724944Y-8072079D02*
X10734467Y-8053031D01*
X10734467Y-8053031D02*
X10743991Y-8043508D01*
X10743991Y-8043508D02*
X10763039Y-8033984D01*
X10915420Y-8233984D02*
X10915420Y-8100650D01*
X10915420Y-8119698D02*
X10924944Y-8110174D01*
X10924944Y-8110174D02*
X10943991Y-8100650D01*
X10943991Y-8100650D02*
X10972563Y-8100650D01*
X10972563Y-8100650D02*
X10991610Y-8110174D01*
X10991610Y-8110174D02*
X11001134Y-8129222D01*
X11001134Y-8129222D02*
X11001134Y-8233984D01*
X11001134Y-8129222D02*
X11010658Y-8110174D01*
X11010658Y-8110174D02*
X11029705Y-8100650D01*
X11029705Y-8100650D02*
X11058277Y-8100650D01*
X11058277Y-8100650D02*
X11077325Y-8110174D01*
X11077325Y-8110174D02*
X11086848Y-8129222D01*
X11086848Y-8129222D02*
X11086848Y-8233984D01*
X11182086Y-8233984D02*
X11182086Y-8100650D01*
X11182086Y-8119698D02*
X11191610Y-8110174D01*
X11191610Y-8110174D02*
X11210658Y-8100650D01*
X11210658Y-8100650D02*
X11239229Y-8100650D01*
X11239229Y-8100650D02*
X11258277Y-8110174D01*
X11258277Y-8110174D02*
X11267801Y-8129222D01*
X11267801Y-8129222D02*
X11267801Y-8233984D01*
X11267801Y-8129222D02*
X11277324Y-8110174D01*
X11277324Y-8110174D02*
X11296372Y-8100650D01*
X11296372Y-8100650D02*
X11324943Y-8100650D01*
X11324943Y-8100650D02*
X11343991Y-8110174D01*
X11343991Y-8110174D02*
X11353515Y-8129222D01*
X11353515Y-8129222D02*
X11353515Y-8233984D01*
X11743991Y-8024460D02*
X11572563Y-8281603D01*
X12001134Y-8033984D02*
X12020182Y-8033984D01*
X12020182Y-8033984D02*
X12039229Y-8043508D01*
X12039229Y-8043508D02*
X12048753Y-8053031D01*
X12048753Y-8053031D02*
X12058277Y-8072079D01*
X12058277Y-8072079D02*
X12067801Y-8110174D01*
X12067801Y-8110174D02*
X12067801Y-8157793D01*
X12067801Y-8157793D02*
X12058277Y-8195888D01*
X12058277Y-8195888D02*
X12048753Y-8214936D01*
X12048753Y-8214936D02*
X12039229Y-8224460D01*
X12039229Y-8224460D02*
X12020182Y-8233984D01*
X12020182Y-8233984D02*
X12001134Y-8233984D01*
X12001134Y-8233984D02*
X11982086Y-8224460D01*
X11982086Y-8224460D02*
X11972563Y-8214936D01*
X11972563Y-8214936D02*
X11963039Y-8195888D01*
X11963039Y-8195888D02*
X11953515Y-8157793D01*
X11953515Y-8157793D02*
X11953515Y-8110174D01*
X11953515Y-8110174D02*
X11963039Y-8072079D01*
X11963039Y-8072079D02*
X11972563Y-8053031D01*
X11972563Y-8053031D02*
X11982086Y-8043508D01*
X11982086Y-8043508D02*
X12001134Y-8033984D01*
X12153515Y-8214936D02*
X12163039Y-8224460D01*
X12163039Y-8224460D02*
X12153515Y-8233984D01*
X12153515Y-8233984D02*
X12143991Y-8224460D01*
X12143991Y-8224460D02*
X12153515Y-8214936D01*
X12153515Y-8214936D02*
X12153515Y-8233984D01*
X12353515Y-8233984D02*
X12239229Y-8233984D01*
X12296372Y-8233984D02*
X12296372Y-8033984D01*
X12296372Y-8033984D02*
X12277325Y-8062555D01*
X12277325Y-8062555D02*
X12258277Y-8081603D01*
X12258277Y-8081603D02*
X12239229Y-8091127D01*
X12524944Y-8100650D02*
X12524944Y-8233984D01*
X12477325Y-8024460D02*
X12429706Y-8167317D01*
X12429706Y-8167317D02*
X12553515Y-8167317D01*
X12734467Y-8233984D02*
X12620182Y-8233984D01*
X12677325Y-8233984D02*
X12677325Y-8033984D01*
X12677325Y-8033984D02*
X12658277Y-8062555D01*
X12658277Y-8062555D02*
X12639229Y-8081603D01*
X12639229Y-8081603D02*
X12620182Y-8091127D01*
X12801134Y-8033984D02*
X12934467Y-8033984D01*
X12934467Y-8033984D02*
X12848753Y-8233984D01*
X13001134Y-8033984D02*
X13001134Y-8072079D01*
X13077325Y-8033984D02*
X13077325Y-8072079D01*
X13372563Y-8310174D02*
X13363039Y-8300650D01*
X13363039Y-8300650D02*
X13343991Y-8272079D01*
X13343991Y-8272079D02*
X13334468Y-8253031D01*
X13334468Y-8253031D02*
X13324944Y-8224460D01*
X13324944Y-8224460D02*
X13315420Y-8176841D01*
X13315420Y-8176841D02*
X13315420Y-8138746D01*
X13315420Y-8138746D02*
X13324944Y-8091127D01*
X13324944Y-8091127D02*
X13334468Y-8062555D01*
X13334468Y-8062555D02*
X13343991Y-8043508D01*
X13343991Y-8043508D02*
X13363039Y-8014936D01*
X13363039Y-8014936D02*
X13372563Y-8005412D01*
X13553515Y-8233984D02*
X13439229Y-8233984D01*
X13496372Y-8233984D02*
X13496372Y-8033984D01*
X13496372Y-8033984D02*
X13477325Y-8062555D01*
X13477325Y-8062555D02*
X13458277Y-8081603D01*
X13458277Y-8081603D02*
X13439229Y-8091127D01*
X13791610Y-8233984D02*
X13791610Y-8033984D01*
X13877325Y-8233984D02*
X13877325Y-8129222D01*
X13877325Y-8129222D02*
X13867801Y-8110174D01*
X13867801Y-8110174D02*
X13848753Y-8100650D01*
X13848753Y-8100650D02*
X13820182Y-8100650D01*
X13820182Y-8100650D02*
X13801134Y-8110174D01*
X13801134Y-8110174D02*
X13791610Y-8119698D01*
X14001134Y-8233984D02*
X13982087Y-8224460D01*
X13982087Y-8224460D02*
X13972563Y-8214936D01*
X13972563Y-8214936D02*
X13963039Y-8195888D01*
X13963039Y-8195888D02*
X13963039Y-8138746D01*
X13963039Y-8138746D02*
X13972563Y-8119698D01*
X13972563Y-8119698D02*
X13982087Y-8110174D01*
X13982087Y-8110174D02*
X14001134Y-8100650D01*
X14001134Y-8100650D02*
X14029706Y-8100650D01*
X14029706Y-8100650D02*
X14048753Y-8110174D01*
X14048753Y-8110174D02*
X14058277Y-8119698D01*
X14058277Y-8119698D02*
X14067801Y-8138746D01*
X14067801Y-8138746D02*
X14067801Y-8195888D01*
X14067801Y-8195888D02*
X14058277Y-8214936D01*
X14058277Y-8214936D02*
X14048753Y-8224460D01*
X14048753Y-8224460D02*
X14029706Y-8233984D01*
X14029706Y-8233984D02*
X14001134Y-8233984D01*
X14182087Y-8233984D02*
X14163039Y-8224460D01*
X14163039Y-8224460D02*
X14153515Y-8205412D01*
X14153515Y-8205412D02*
X14153515Y-8033984D01*
X14334468Y-8224460D02*
X14315420Y-8233984D01*
X14315420Y-8233984D02*
X14277325Y-8233984D01*
X14277325Y-8233984D02*
X14258277Y-8224460D01*
X14258277Y-8224460D02*
X14248753Y-8205412D01*
X14248753Y-8205412D02*
X14248753Y-8129222D01*
X14248753Y-8129222D02*
X14258277Y-8110174D01*
X14258277Y-8110174D02*
X14277325Y-8100650D01*
X14277325Y-8100650D02*
X14315420Y-8100650D01*
X14315420Y-8100650D02*
X14334468Y-8110174D01*
X14334468Y-8110174D02*
X14343991Y-8129222D01*
X14343991Y-8129222D02*
X14343991Y-8148269D01*
X14343991Y-8148269D02*
X14248753Y-8167317D01*
X14410658Y-8310174D02*
X14420182Y-8300650D01*
X14420182Y-8300650D02*
X14439230Y-8272079D01*
X14439230Y-8272079D02*
X14448753Y-8253031D01*
X14448753Y-8253031D02*
X14458277Y-8224460D01*
X14458277Y-8224460D02*
X14467801Y-8176841D01*
X14467801Y-8176841D02*
X14467801Y-8138746D01*
X14467801Y-8138746D02*
X14458277Y-8091127D01*
X14458277Y-8091127D02*
X14448753Y-8062555D01*
X14448753Y-8062555D02*
X14439230Y-8043508D01*
X14439230Y-8043508D02*
X14420182Y-8014936D01*
X14420182Y-8014936D02*
X14410658Y-8005412D01*
X14772563Y-8310174D02*
X14763039Y-8300650D01*
X14763039Y-8300650D02*
X14743991Y-8272079D01*
X14743991Y-8272079D02*
X14734468Y-8253031D01*
X14734468Y-8253031D02*
X14724944Y-8224460D01*
X14724944Y-8224460D02*
X14715420Y-8176841D01*
X14715420Y-8176841D02*
X14715420Y-8138746D01*
X14715420Y-8138746D02*
X14724944Y-8091127D01*
X14724944Y-8091127D02*
X14734468Y-8062555D01*
X14734468Y-8062555D02*
X14743991Y-8043508D01*
X14743991Y-8043508D02*
X14763039Y-8014936D01*
X14763039Y-8014936D02*
X14772563Y-8005412D01*
X14848753Y-8100650D02*
X14848753Y-8233984D01*
X14848753Y-8119698D02*
X14858277Y-8110174D01*
X14858277Y-8110174D02*
X14877325Y-8100650D01*
X14877325Y-8100650D02*
X14905896Y-8100650D01*
X14905896Y-8100650D02*
X14924944Y-8110174D01*
X14924944Y-8110174D02*
X14934468Y-8129222D01*
X14934468Y-8129222D02*
X14934468Y-8233984D01*
X15058277Y-8233984D02*
X15039230Y-8224460D01*
X15039230Y-8224460D02*
X15029706Y-8214936D01*
X15029706Y-8214936D02*
X15020182Y-8195888D01*
X15020182Y-8195888D02*
X15020182Y-8138746D01*
X15020182Y-8138746D02*
X15029706Y-8119698D01*
X15029706Y-8119698D02*
X15039230Y-8110174D01*
X15039230Y-8110174D02*
X15058277Y-8100650D01*
X15058277Y-8100650D02*
X15086849Y-8100650D01*
X15086849Y-8100650D02*
X15105896Y-8110174D01*
X15105896Y-8110174D02*
X15115420Y-8119698D01*
X15115420Y-8119698D02*
X15124944Y-8138746D01*
X15124944Y-8138746D02*
X15124944Y-8195888D01*
X15124944Y-8195888D02*
X15115420Y-8214936D01*
X15115420Y-8214936D02*
X15105896Y-8224460D01*
X15105896Y-8224460D02*
X15086849Y-8233984D01*
X15086849Y-8233984D02*
X15058277Y-8233984D01*
X15182087Y-8100650D02*
X15258277Y-8100650D01*
X15210658Y-8033984D02*
X15210658Y-8205412D01*
X15210658Y-8205412D02*
X15220182Y-8224460D01*
X15220182Y-8224460D02*
X15239230Y-8233984D01*
X15239230Y-8233984D02*
X15258277Y-8233984D01*
X15477325Y-8100650D02*
X15477325Y-8300650D01*
X15477325Y-8110174D02*
X15496372Y-8100650D01*
X15496372Y-8100650D02*
X15534468Y-8100650D01*
X15534468Y-8100650D02*
X15553515Y-8110174D01*
X15553515Y-8110174D02*
X15563039Y-8119698D01*
X15563039Y-8119698D02*
X15572563Y-8138746D01*
X15572563Y-8138746D02*
X15572563Y-8195888D01*
X15572563Y-8195888D02*
X15563039Y-8214936D01*
X15563039Y-8214936D02*
X15553515Y-8224460D01*
X15553515Y-8224460D02*
X15534468Y-8233984D01*
X15534468Y-8233984D02*
X15496372Y-8233984D01*
X15496372Y-8233984D02*
X15477325Y-8224460D01*
X15686849Y-8233984D02*
X15667801Y-8224460D01*
X15667801Y-8224460D02*
X15658277Y-8205412D01*
X15658277Y-8205412D02*
X15658277Y-8033984D01*
X15848753Y-8233984D02*
X15848753Y-8129222D01*
X15848753Y-8129222D02*
X15839230Y-8110174D01*
X15839230Y-8110174D02*
X15820182Y-8100650D01*
X15820182Y-8100650D02*
X15782087Y-8100650D01*
X15782087Y-8100650D02*
X15763039Y-8110174D01*
X15848753Y-8224460D02*
X15829706Y-8233984D01*
X15829706Y-8233984D02*
X15782087Y-8233984D01*
X15782087Y-8233984D02*
X15763039Y-8224460D01*
X15763039Y-8224460D02*
X15753515Y-8205412D01*
X15753515Y-8205412D02*
X15753515Y-8186365D01*
X15753515Y-8186365D02*
X15763039Y-8167317D01*
X15763039Y-8167317D02*
X15782087Y-8157793D01*
X15782087Y-8157793D02*
X15829706Y-8157793D01*
X15829706Y-8157793D02*
X15848753Y-8148269D01*
X15915420Y-8100650D02*
X15991611Y-8100650D01*
X15943992Y-8033984D02*
X15943992Y-8205412D01*
X15943992Y-8205412D02*
X15953515Y-8224460D01*
X15953515Y-8224460D02*
X15972563Y-8233984D01*
X15972563Y-8233984D02*
X15991611Y-8233984D01*
X16134468Y-8224460D02*
X16115420Y-8233984D01*
X16115420Y-8233984D02*
X16077325Y-8233984D01*
X16077325Y-8233984D02*
X16058277Y-8224460D01*
X16058277Y-8224460D02*
X16048753Y-8205412D01*
X16048753Y-8205412D02*
X16048753Y-8129222D01*
X16048753Y-8129222D02*
X16058277Y-8110174D01*
X16058277Y-8110174D02*
X16077325Y-8100650D01*
X16077325Y-8100650D02*
X16115420Y-8100650D01*
X16115420Y-8100650D02*
X16134468Y-8110174D01*
X16134468Y-8110174D02*
X16143992Y-8129222D01*
X16143992Y-8129222D02*
X16143992Y-8148269D01*
X16143992Y-8148269D02*
X16048753Y-8167317D01*
X16315420Y-8233984D02*
X16315420Y-8033984D01*
X16315420Y-8224460D02*
X16296373Y-8233984D01*
X16296373Y-8233984D02*
X16258277Y-8233984D01*
X16258277Y-8233984D02*
X16239230Y-8224460D01*
X16239230Y-8224460D02*
X16229706Y-8214936D01*
X16229706Y-8214936D02*
X16220182Y-8195888D01*
X16220182Y-8195888D02*
X16220182Y-8138746D01*
X16220182Y-8138746D02*
X16229706Y-8119698D01*
X16229706Y-8119698D02*
X16239230Y-8110174D01*
X16239230Y-8110174D02*
X16258277Y-8100650D01*
X16258277Y-8100650D02*
X16296373Y-8100650D01*
X16296373Y-8100650D02*
X16315420Y-8110174D01*
X16391611Y-8310174D02*
X16401134Y-8300650D01*
X16401134Y-8300650D02*
X16420182Y-8272079D01*
X16420182Y-8272079D02*
X16429706Y-8253031D01*
X16429706Y-8253031D02*
X16439230Y-8224460D01*
X16439230Y-8224460D02*
X16448753Y-8176841D01*
X16448753Y-8176841D02*
X16448753Y-8138746D01*
X16448753Y-8138746D02*
X16439230Y-8091127D01*
X16439230Y-8091127D02*
X16429706Y-8062555D01*
X16429706Y-8062555D02*
X16420182Y-8043508D01*
X16420182Y-8043508D02*
X16401134Y-8014936D01*
X16401134Y-8014936D02*
X16391611Y-8005412D01*
M02*
