%TF.GenerationSoftware,KiCad,Pcbnew,8.0.7-8.0.7-0~ubuntu22.04.1*%
%TF.CreationDate,2024-12-28T18:58:49+01:00*%
%TF.ProjectId,CrowBar,43726f77-4261-4722-9e6b-696361645f70,1.0A*%
%TF.SameCoordinates,Original*%
%TF.FileFunction,Soldermask,Bot*%
%TF.FilePolarity,Negative*%
%FSLAX46Y46*%
G04 Gerber Fmt 4.6, Leading zero omitted, Abs format (unit mm)*
G04 Created by KiCad (PCBNEW 8.0.7-8.0.7-0~ubuntu22.04.1) date 2024-12-28 18:58:49*
%MOMM*%
%LPD*%
G01*
G04 APERTURE LIST*
%ADD10C,3.550000*%
%ADD11C,5.000000*%
%ADD12O,3.600000X3.600000*%
%ADD13R,2.500000X4.500000*%
%ADD14O,2.500000X4.500000*%
G04 APERTURE END LIST*
D10*
X187775000Y-69000000D02*
G75*
G02*
X184225000Y-69000000I-1775000J0D01*
G01*
X184225000Y-69000000D02*
G75*
G02*
X187775000Y-69000000I1775000J0D01*
G01*
X105775000Y-70000000D02*
G75*
G02*
X102225000Y-70000000I-1775000J0D01*
G01*
X102225000Y-70000000D02*
G75*
G02*
X105775000Y-70000000I1775000J0D01*
G01*
X105775000Y-22000000D02*
G75*
G02*
X102225000Y-22000000I-1775000J0D01*
G01*
X102225000Y-22000000D02*
G75*
G02*
X105775000Y-22000000I1775000J0D01*
G01*
X187775000Y-21000000D02*
G75*
G02*
X184225000Y-21000000I-1775000J0D01*
G01*
X184225000Y-21000000D02*
G75*
G02*
X187775000Y-21000000I1775000J0D01*
G01*
D11*
%TO.C,J2*%
X122250000Y-25000000D03*
X111750000Y-25000000D03*
X122250000Y-35000000D03*
X111750000Y-35000000D03*
%TD*%
%TO.C,J1*%
X142250000Y-25000000D03*
X131750000Y-25000000D03*
X142250000Y-35000000D03*
X131750000Y-35000000D03*
%TD*%
D12*
%TO.C,D2*%
X180000000Y-57970000D03*
D13*
X185450000Y-38110000D03*
D14*
X180000000Y-38110000D03*
X174550000Y-38110000D03*
%TD*%
D11*
%TO.C,J4*%
X122250000Y-55000000D03*
X111750000Y-55000000D03*
X122250000Y-65000000D03*
X111750000Y-65000000D03*
%TD*%
%TO.C,F1*%
X162500000Y-61450000D03*
X162500000Y-53850000D03*
X162500000Y-34150000D03*
X162500000Y-26550000D03*
%TD*%
%TO.C,J3*%
X142250000Y-55000000D03*
X131750000Y-55000000D03*
X142250000Y-65000000D03*
X131750000Y-65000000D03*
%TD*%
M02*
