%TF.GenerationSoftware,KiCad,Pcbnew,8.0.7-8.0.7-0~ubuntu22.04.1*%
%TF.CreationDate,2024-12-28T18:58:44+01:00*%
%TF.ProjectId,CrowBar,43726f77-4261-4722-9e6b-696361645f70,1.0A*%
%TF.SameCoordinates,Original*%
%TF.FileFunction,Drillmap*%
%TF.FilePolarity,Positive*%
%FSLAX45Y45*%
G04 Gerber Fmt 4.5, Leading zero omitted, Abs format (unit mm)*
G04 Created by KiCad (PCBNEW 8.0.7-8.0.7-0~ubuntu22.04.1) date 2024-12-28 18:58:44*
%MOMM*%
%LPD*%
G01*
G04 APERTURE LIST*
%ADD10C,0.050000*%
%ADD11C,0.200000*%
%ADD12C,0.100000*%
%ADD13C,0.150000*%
%ADD14C,0.300000*%
%ADD15C,0.320000*%
G04 APERTURE END LIST*
D10*
X10400000Y-7500000D02*
X18600000Y-7500000D01*
X9800000Y-2200000D02*
G75*
G02*
X10400000Y-1600000I600000J0D01*
G01*
X19200000Y-6900000D02*
G75*
G02*
X18600000Y-7500000I-600000J0D01*
G01*
X9800000Y-2200000D02*
X9800000Y-6900000D01*
X18600000Y-1600000D02*
G75*
G02*
X19200000Y-2200000I0J-600000D01*
G01*
X19200000Y-6900000D02*
X19200000Y-2200000D01*
X18600000Y-1600000D02*
X10400000Y-1600000D01*
X10400000Y-7500000D02*
G75*
G02*
X9800000Y-6900000I0J600000D01*
G01*
D11*
D12*
X10075000Y-2525000D02*
X10165000Y-2615000D01*
X10165000Y-2525000D02*
X10075000Y-2615000D01*
X10075000Y-2889565D02*
X10165000Y-2979565D01*
X10165000Y-2889565D02*
X10075000Y-2979565D01*
X10075000Y-3254130D02*
X10165000Y-3344130D01*
X10165000Y-3254130D02*
X10075000Y-3344130D01*
X10075000Y-3618696D02*
X10165000Y-3708696D01*
X10165000Y-3618696D02*
X10075000Y-3708696D01*
X10075000Y-4712391D02*
X10165000Y-4802391D01*
X10165000Y-4712391D02*
X10075000Y-4802391D01*
X10075000Y-5076956D02*
X10165000Y-5166956D01*
X10165000Y-5076956D02*
X10075000Y-5166956D01*
X10075000Y-5441522D02*
X10165000Y-5531522D01*
X10165000Y-5441522D02*
X10075000Y-5531522D01*
X10075000Y-5806087D02*
X10165000Y-5896087D01*
X10165000Y-5806087D02*
X10075000Y-5896087D01*
X10075000Y-6170652D02*
X10165000Y-6260652D01*
X10165000Y-6170652D02*
X10075000Y-6260652D01*
X10075000Y-6535217D02*
X10165000Y-6625217D01*
X10165000Y-6535217D02*
X10075000Y-6625217D01*
X10085000Y-3983261D02*
X10175000Y-4073261D01*
X10175000Y-3983261D02*
X10085000Y-4073261D01*
X10085000Y-4347826D02*
X10175000Y-4437826D01*
X10175000Y-4347826D02*
X10085000Y-4437826D01*
X10335000Y-2711739D02*
X10425000Y-2801739D01*
X10425000Y-2711739D02*
X10335000Y-2801739D01*
X10335000Y-3076304D02*
X10425000Y-3166304D01*
X10425000Y-3076304D02*
X10335000Y-3166304D01*
X10335000Y-3440870D02*
X10425000Y-3530870D01*
X10425000Y-3440870D02*
X10335000Y-3530870D01*
X10335000Y-3805435D02*
X10425000Y-3895435D01*
X10425000Y-3805435D02*
X10335000Y-3895435D01*
X10335000Y-4899130D02*
X10425000Y-4989130D01*
X10425000Y-4899130D02*
X10335000Y-4989130D01*
X10335000Y-5263696D02*
X10425000Y-5353696D01*
X10425000Y-5263696D02*
X10335000Y-5353696D01*
X10335000Y-5628261D02*
X10425000Y-5718261D01*
X10425000Y-5628261D02*
X10335000Y-5718261D01*
X10335000Y-5992826D02*
X10425000Y-6082826D01*
X10425000Y-5992826D02*
X10335000Y-6082826D01*
X10335000Y-6357391D02*
X10425000Y-6447391D01*
X10425000Y-6357391D02*
X10335000Y-6447391D01*
X10345000Y-4170000D02*
X10435000Y-4260000D01*
X10435000Y-4170000D02*
X10345000Y-4260000D01*
X10345000Y-4534565D02*
X10435000Y-4624565D01*
X10435000Y-4534565D02*
X10345000Y-4624565D01*
X10565000Y-2526739D02*
X10655000Y-2616739D01*
X10655000Y-2526739D02*
X10565000Y-2616739D01*
X10565000Y-2891304D02*
X10655000Y-2981304D01*
X10655000Y-2891304D02*
X10565000Y-2981304D01*
X10565000Y-3255870D02*
X10655000Y-3345870D01*
X10655000Y-3255870D02*
X10565000Y-3345870D01*
X10565000Y-3620435D02*
X10655000Y-3710435D01*
X10655000Y-3620435D02*
X10565000Y-3710435D01*
X10565000Y-4714130D02*
X10655000Y-4804130D01*
X10655000Y-4714130D02*
X10565000Y-4804130D01*
X10565000Y-5078696D02*
X10655000Y-5168696D01*
X10655000Y-5078696D02*
X10565000Y-5168696D01*
X10565000Y-5443261D02*
X10655000Y-5533261D01*
X10655000Y-5443261D02*
X10565000Y-5533261D01*
X10565000Y-5807826D02*
X10655000Y-5897826D01*
X10655000Y-5807826D02*
X10565000Y-5897826D01*
X10565000Y-6172391D02*
X10655000Y-6262391D01*
X10655000Y-6172391D02*
X10565000Y-6262391D01*
X10565000Y-6536956D02*
X10655000Y-6626956D01*
X10655000Y-6536956D02*
X10565000Y-6626956D01*
X10575000Y-3985000D02*
X10665000Y-4075000D01*
X10665000Y-3985000D02*
X10575000Y-4075000D01*
X10575000Y-4349565D02*
X10665000Y-4439565D01*
X10665000Y-4349565D02*
X10575000Y-4439565D01*
X10675218Y-7250000D02*
X10765218Y-7340000D01*
X10765218Y-7250000D02*
X10675218Y-7340000D01*
X10682174Y-1870000D02*
X10772174Y-1960000D01*
X10772174Y-1870000D02*
X10682174Y-1960000D01*
X11039783Y-7250000D02*
X11129783Y-7340000D01*
X11129783Y-7250000D02*
X11039783Y-7340000D01*
X11046739Y-1870000D02*
X11136739Y-1960000D01*
X11136739Y-1870000D02*
X11046739Y-1960000D01*
X11085000Y-4890000D02*
X11175000Y-4980000D01*
X11175000Y-4890000D02*
X11085000Y-4980000D01*
X11095000Y-4160870D02*
X11185000Y-4250870D01*
X11185000Y-4160870D02*
X11095000Y-4250870D01*
X11095000Y-4525435D02*
X11185000Y-4615435D01*
X11185000Y-4525435D02*
X11095000Y-4615435D01*
X11350000Y-4725000D02*
X11440000Y-4815000D01*
X11440000Y-4725000D02*
X11350000Y-4815000D01*
X11360000Y-3995870D02*
X11450000Y-4085870D01*
X11450000Y-3995870D02*
X11360000Y-4085870D01*
X11360000Y-4360435D02*
X11450000Y-4450435D01*
X11450000Y-4360435D02*
X11360000Y-4450435D01*
X11404348Y-7255000D02*
X11494348Y-7345000D01*
X11494348Y-7255000D02*
X11404348Y-7345000D01*
X11411304Y-1875000D02*
X11501304Y-1965000D01*
X11501304Y-1875000D02*
X11411304Y-1965000D01*
X11610000Y-4890000D02*
X11700000Y-4980000D01*
X11700000Y-4890000D02*
X11610000Y-4980000D01*
X11620000Y-4160870D02*
X11710000Y-4250870D01*
X11710000Y-4160870D02*
X11620000Y-4250870D01*
X11620000Y-4525435D02*
X11710000Y-4615435D01*
X11710000Y-4525435D02*
X11620000Y-4615435D01*
X11768913Y-7250000D02*
X11858913Y-7340000D01*
X11858913Y-7250000D02*
X11768913Y-7340000D01*
X11775870Y-1870000D02*
X11865870Y-1960000D01*
X11865870Y-1870000D02*
X11775870Y-1960000D01*
X11875000Y-4725000D02*
X11965000Y-4815000D01*
X11965000Y-4725000D02*
X11875000Y-4815000D01*
X11885000Y-3995870D02*
X11975000Y-4085870D01*
X11975000Y-3995870D02*
X11885000Y-4085870D01*
X11885000Y-4360435D02*
X11975000Y-4450435D01*
X11975000Y-4360435D02*
X11885000Y-4450435D01*
X12130000Y-4889130D02*
X12220000Y-4979130D01*
X12220000Y-4889130D02*
X12130000Y-4979130D01*
X12133478Y-7250000D02*
X12223478Y-7340000D01*
X12223478Y-7250000D02*
X12133478Y-7340000D01*
X12140000Y-4160000D02*
X12230000Y-4250000D01*
X12230000Y-4160000D02*
X12140000Y-4250000D01*
X12140000Y-4524565D02*
X12230000Y-4614565D01*
X12230000Y-4524565D02*
X12140000Y-4614565D01*
X12140435Y-1870000D02*
X12230435Y-1960000D01*
X12230435Y-1870000D02*
X12140435Y-1960000D01*
X12395000Y-4724130D02*
X12485000Y-4814130D01*
X12485000Y-4724130D02*
X12395000Y-4814130D01*
X12405000Y-3995000D02*
X12495000Y-4085000D01*
X12495000Y-3995000D02*
X12405000Y-4085000D01*
X12405000Y-4359565D02*
X12495000Y-4449565D01*
X12495000Y-4359565D02*
X12405000Y-4449565D01*
X12498044Y-7250000D02*
X12588044Y-7340000D01*
X12588044Y-7250000D02*
X12498044Y-7340000D01*
X12505000Y-1870000D02*
X12595000Y-1960000D01*
X12595000Y-1870000D02*
X12505000Y-1960000D01*
X12785000Y-4165000D02*
X12875000Y-4255000D01*
X12875000Y-4165000D02*
X12785000Y-4255000D01*
X12785000Y-4529565D02*
X12875000Y-4619565D01*
X12875000Y-4529565D02*
X12785000Y-4619565D01*
X12862609Y-7250000D02*
X12952609Y-7340000D01*
X12952609Y-7250000D02*
X12862609Y-7340000D01*
X12875870Y-1755000D02*
X12965870Y-1845000D01*
X12965870Y-1755000D02*
X12875870Y-1845000D01*
X13153333Y-4170000D02*
X13243333Y-4260000D01*
X13243333Y-4170000D02*
X13153333Y-4260000D01*
X13153333Y-4534565D02*
X13243333Y-4624565D01*
X13243333Y-4534565D02*
X13153333Y-4624565D01*
X13227174Y-7250000D02*
X13317174Y-7340000D01*
X13317174Y-7250000D02*
X13227174Y-7340000D01*
X13240435Y-1755000D02*
X13330435Y-1845000D01*
X13330435Y-1755000D02*
X13240435Y-1845000D01*
X13521667Y-4165000D02*
X13611667Y-4255000D01*
X13611667Y-4165000D02*
X13521667Y-4255000D01*
X13521667Y-4529565D02*
X13611667Y-4619565D01*
X13611667Y-4529565D02*
X13521667Y-4619565D01*
X13591739Y-7250000D02*
X13681739Y-7340000D01*
X13681739Y-7250000D02*
X13591739Y-7340000D01*
X13605000Y-1755000D02*
X13695000Y-1845000D01*
X13695000Y-1755000D02*
X13605000Y-1845000D01*
X13890000Y-4170000D02*
X13980000Y-4260000D01*
X13980000Y-4170000D02*
X13890000Y-4260000D01*
X13890000Y-4534565D02*
X13980000Y-4624565D01*
X13980000Y-4534565D02*
X13890000Y-4624565D01*
X13956304Y-7250000D02*
X14046304Y-7340000D01*
X14046304Y-7250000D02*
X13956304Y-7340000D01*
X13961304Y-1755000D02*
X14051304Y-1845000D01*
X14051304Y-1755000D02*
X13961304Y-1845000D01*
X14320870Y-7250000D02*
X14410870Y-7340000D01*
X14410870Y-7250000D02*
X14320870Y-7340000D01*
X14325870Y-1755000D02*
X14415870Y-1845000D01*
X14415870Y-1755000D02*
X14325870Y-1845000D01*
X14505000Y-7055000D02*
X14595000Y-7145000D01*
X14595000Y-7055000D02*
X14505000Y-7145000D01*
X14685435Y-7260000D02*
X14775435Y-7350000D01*
X14775435Y-7260000D02*
X14685435Y-7350000D01*
X14690435Y-1755000D02*
X14780435Y-1845000D01*
X14780435Y-1755000D02*
X14690435Y-1845000D01*
X14805000Y-5405000D02*
X14895000Y-5495000D01*
X14895000Y-5405000D02*
X14805000Y-5495000D01*
X14805000Y-5905000D02*
X14895000Y-5995000D01*
X14895000Y-5905000D02*
X14805000Y-5995000D01*
X14855000Y-4005000D02*
X14945000Y-4095000D01*
X14945000Y-4005000D02*
X14855000Y-4095000D01*
X14855000Y-4605000D02*
X14945000Y-4695000D01*
X14945000Y-4605000D02*
X14855000Y-4695000D01*
X15046739Y-1755000D02*
X15136739Y-1845000D01*
X15136739Y-1755000D02*
X15046739Y-1845000D01*
X15050000Y-7250000D02*
X15140000Y-7340000D01*
X15140000Y-7250000D02*
X15050000Y-7340000D01*
X15105000Y-4605000D02*
X15195000Y-4695000D01*
X15195000Y-4605000D02*
X15105000Y-4695000D01*
X15205000Y-5405000D02*
X15295000Y-5495000D01*
X15295000Y-5405000D02*
X15205000Y-5495000D01*
X15205000Y-5905000D02*
X15295000Y-5995000D01*
X15295000Y-5905000D02*
X15205000Y-5995000D01*
X15205000Y-6855000D02*
X15295000Y-6945000D01*
X15295000Y-6855000D02*
X15205000Y-6945000D01*
X15355000Y-4005000D02*
X15445000Y-4095000D01*
X15445000Y-4005000D02*
X15355000Y-4095000D01*
X15411304Y-1755000D02*
X15501304Y-1845000D01*
X15501304Y-1755000D02*
X15411304Y-1845000D01*
X15414565Y-7250000D02*
X15504565Y-7340000D01*
X15504565Y-7250000D02*
X15414565Y-7340000D01*
X15555000Y-7005000D02*
X15645000Y-7095000D01*
X15645000Y-7005000D02*
X15555000Y-7095000D01*
X15605000Y-5405000D02*
X15695000Y-5495000D01*
X15695000Y-5405000D02*
X15605000Y-5495000D01*
X15605000Y-5905000D02*
X15695000Y-5995000D01*
X15695000Y-5905000D02*
X15605000Y-5995000D01*
X15655000Y-4155000D02*
X15745000Y-4245000D01*
X15745000Y-4155000D02*
X15655000Y-4245000D01*
X15655000Y-4655000D02*
X15745000Y-4745000D01*
X15745000Y-4655000D02*
X15655000Y-4745000D01*
X15775870Y-1755000D02*
X15865870Y-1845000D01*
X15865870Y-1755000D02*
X15775870Y-1845000D01*
X15779130Y-7250000D02*
X15869130Y-7340000D01*
X15869130Y-7250000D02*
X15779130Y-7340000D01*
X15955000Y-7005000D02*
X16045000Y-7095000D01*
X16045000Y-7005000D02*
X15955000Y-7095000D01*
X16140435Y-1755000D02*
X16230435Y-1845000D01*
X16230435Y-1755000D02*
X16140435Y-1845000D01*
X16143696Y-7250000D02*
X16233696Y-7340000D01*
X16233696Y-7250000D02*
X16143696Y-7340000D01*
X16505000Y-1755000D02*
X16595000Y-1845000D01*
X16595000Y-1755000D02*
X16505000Y-1845000D01*
X16508261Y-7250000D02*
X16598261Y-7340000D01*
X16598261Y-7250000D02*
X16508261Y-7340000D01*
X16605000Y-4405000D02*
X16695000Y-4495000D01*
X16695000Y-4405000D02*
X16605000Y-4495000D01*
X16605000Y-4905000D02*
X16695000Y-4995000D01*
X16695000Y-4905000D02*
X16605000Y-4995000D01*
X16605000Y-5405000D02*
X16695000Y-5495000D01*
X16695000Y-5405000D02*
X16605000Y-5495000D01*
X16605000Y-5905000D02*
X16695000Y-5995000D01*
X16695000Y-5905000D02*
X16605000Y-5995000D01*
X16869565Y-1755000D02*
X16959565Y-1845000D01*
X16959565Y-1755000D02*
X16869565Y-1845000D01*
X16869565Y-7255000D02*
X16959565Y-7345000D01*
X16959565Y-7255000D02*
X16869565Y-7345000D01*
X17105000Y-4405000D02*
X17195000Y-4495000D01*
X17195000Y-4405000D02*
X17105000Y-4495000D01*
X17105000Y-4905000D02*
X17195000Y-4995000D01*
X17195000Y-4905000D02*
X17105000Y-4995000D01*
X17105000Y-5405000D02*
X17195000Y-5495000D01*
X17195000Y-5405000D02*
X17105000Y-5495000D01*
X17105000Y-5905000D02*
X17195000Y-5995000D01*
X17195000Y-5905000D02*
X17105000Y-5995000D01*
X17180000Y-2180000D02*
X17270000Y-2270000D01*
X17270000Y-2180000D02*
X17180000Y-2270000D01*
X17234130Y-1755000D02*
X17324130Y-1845000D01*
X17324130Y-1755000D02*
X17234130Y-1845000D01*
X17234130Y-7255000D02*
X17324130Y-7345000D01*
X17324130Y-7255000D02*
X17234130Y-7345000D01*
X17480000Y-2180000D02*
X17570000Y-2270000D01*
X17570000Y-2180000D02*
X17480000Y-2270000D01*
X17598696Y-1755000D02*
X17688696Y-1845000D01*
X17688696Y-1755000D02*
X17598696Y-1845000D01*
X17598696Y-7255000D02*
X17688696Y-7345000D01*
X17688696Y-7255000D02*
X17598696Y-7345000D01*
X17605000Y-4405000D02*
X17695000Y-4495000D01*
X17695000Y-4405000D02*
X17605000Y-4495000D01*
X17605000Y-4905000D02*
X17695000Y-4995000D01*
X17695000Y-4905000D02*
X17605000Y-4995000D01*
X17780000Y-2180000D02*
X17870000Y-2270000D01*
X17870000Y-2180000D02*
X17780000Y-2270000D01*
X17963261Y-1755000D02*
X18053261Y-1845000D01*
X18053261Y-1755000D02*
X17963261Y-1845000D01*
X17963261Y-7255000D02*
X18053261Y-7345000D01*
X18053261Y-7255000D02*
X17963261Y-7345000D01*
X18055000Y-2505000D02*
X18145000Y-2595000D01*
X18145000Y-2505000D02*
X18055000Y-2595000D01*
X18105000Y-4405000D02*
X18195000Y-4495000D01*
X18195000Y-4405000D02*
X18105000Y-4495000D01*
X18105000Y-4905000D02*
X18195000Y-4995000D01*
X18195000Y-4905000D02*
X18105000Y-4995000D01*
X18425000Y-2855000D02*
X18515000Y-2945000D01*
X18515000Y-2855000D02*
X18425000Y-2945000D01*
X18425000Y-3255000D02*
X18515000Y-3345000D01*
X18515000Y-3255000D02*
X18425000Y-3345000D01*
X18605000Y-4405000D02*
X18695000Y-4495000D01*
X18695000Y-4405000D02*
X18605000Y-4495000D01*
X18605000Y-4905000D02*
X18695000Y-4995000D01*
X18695000Y-4905000D02*
X18605000Y-4995000D01*
X18605000Y-5405000D02*
X18695000Y-5495000D01*
X18695000Y-5405000D02*
X18605000Y-5495000D01*
X18605000Y-5905000D02*
X18695000Y-5995000D01*
X18695000Y-5905000D02*
X18605000Y-5995000D01*
X18685000Y-3050000D02*
X18775000Y-3140000D01*
X18775000Y-3050000D02*
X18685000Y-3140000D01*
X18955000Y-2855000D02*
X19045000Y-2945000D01*
X19045000Y-2855000D02*
X18955000Y-2945000D01*
X18955000Y-3255000D02*
X19045000Y-3345000D01*
X19045000Y-3255000D02*
X18955000Y-3345000D01*
X18955000Y-3611304D02*
X19045000Y-3701304D01*
X19045000Y-3611304D02*
X18955000Y-3701304D01*
X18955000Y-3975870D02*
X19045000Y-4065870D01*
X19045000Y-3975870D02*
X18955000Y-4065870D01*
X18955000Y-4340435D02*
X19045000Y-4430435D01*
X19045000Y-4340435D02*
X18955000Y-4430435D01*
X18955000Y-4705000D02*
X19045000Y-4795000D01*
X19045000Y-4705000D02*
X18955000Y-4795000D01*
X18955000Y-5005000D02*
X19045000Y-5095000D01*
X19045000Y-5005000D02*
X18955000Y-5095000D01*
X18955000Y-5369565D02*
X19045000Y-5459565D01*
X19045000Y-5369565D02*
X18955000Y-5459565D01*
X18955000Y-5734130D02*
X19045000Y-5824130D01*
X19045000Y-5734130D02*
X18955000Y-5824130D01*
X18955000Y-6098696D02*
X19045000Y-6188696D01*
X19045000Y-6098696D02*
X18955000Y-6188696D01*
X18955000Y-6505000D02*
X19045000Y-6595000D01*
X19045000Y-6505000D02*
X18955000Y-6595000D01*
D13*
X17530000Y-3811000D02*
G75*
G02*
X17380000Y-3811000I-75000J0D01*
G01*
X17380000Y-3811000D02*
G75*
G02*
X17530000Y-3811000I75000J0D01*
G01*
X18075000Y-3811000D02*
G75*
G02*
X17925000Y-3811000I-75000J0D01*
G01*
X17925000Y-3811000D02*
G75*
G02*
X18075000Y-3811000I75000J0D01*
G01*
X18620000Y-3811000D02*
G75*
G02*
X18470000Y-3811000I-75000J0D01*
G01*
X18470000Y-3811000D02*
G75*
G02*
X18620000Y-3811000I75000J0D01*
G01*
D11*
X16250000Y-2555000D02*
X16250000Y-2755000D01*
X16150000Y-2655000D02*
X16350000Y-2655000D01*
X16250000Y-3315000D02*
X16250000Y-3515000D01*
X16150000Y-3415000D02*
X16350000Y-3415000D01*
X16250000Y-5285000D02*
X16250000Y-5485000D01*
X16150000Y-5385000D02*
X16350000Y-5385000D01*
X16250000Y-6045000D02*
X16250000Y-6245000D01*
X16150000Y-6145000D02*
X16350000Y-6145000D01*
D14*
X11281067Y-2606067D02*
X11281067Y-2393933D01*
X11068933Y-2393933D01*
X11068933Y-2606067D01*
X11281067Y-2606067D01*
X11281067Y-3606067D02*
X11281067Y-3393933D01*
X11068933Y-3393933D01*
X11068933Y-3606067D01*
X11281067Y-3606067D01*
X11281067Y-5606067D02*
X11281067Y-5393933D01*
X11068933Y-5393933D01*
X11068933Y-5606067D01*
X11281067Y-5606067D01*
X11281067Y-6606067D02*
X11281067Y-6393933D01*
X11068933Y-6393933D01*
X11068933Y-6606067D01*
X11281067Y-6606067D01*
X12331067Y-2606067D02*
X12331067Y-2393933D01*
X12118933Y-2393933D01*
X12118933Y-2606067D01*
X12331067Y-2606067D01*
X12331067Y-3606067D02*
X12331067Y-3393933D01*
X12118933Y-3393933D01*
X12118933Y-3606067D01*
X12331067Y-3606067D01*
X12331067Y-5606067D02*
X12331067Y-5393933D01*
X12118933Y-5393933D01*
X12118933Y-5606067D01*
X12331067Y-5606067D01*
X12331067Y-6606067D02*
X12331067Y-6393933D01*
X12118933Y-6393933D01*
X12118933Y-6606067D01*
X12331067Y-6606067D01*
X13281067Y-2606067D02*
X13281067Y-2393933D01*
X13068933Y-2393933D01*
X13068933Y-2606067D01*
X13281067Y-2606067D01*
X13281067Y-3606067D02*
X13281067Y-3393933D01*
X13068933Y-3393933D01*
X13068933Y-3606067D01*
X13281067Y-3606067D01*
X13281067Y-5606067D02*
X13281067Y-5393933D01*
X13068933Y-5393933D01*
X13068933Y-5606067D01*
X13281067Y-5606067D01*
X13281067Y-6606067D02*
X13281067Y-6393933D01*
X13068933Y-6393933D01*
X13068933Y-6606067D01*
X13281067Y-6606067D01*
X14331067Y-2606067D02*
X14331067Y-2393933D01*
X14118933Y-2393933D01*
X14118933Y-2606067D01*
X14331067Y-2606067D01*
X14331067Y-3606067D02*
X14331067Y-3393933D01*
X14118933Y-3393933D01*
X14118933Y-3606067D01*
X14331067Y-3606067D01*
X14331067Y-5606067D02*
X14331067Y-5393933D01*
X14118933Y-5393933D01*
X14118933Y-5606067D01*
X14331067Y-5606067D01*
X14331067Y-6606067D02*
X14331067Y-6393933D01*
X14118933Y-6393933D01*
X14118933Y-6606067D01*
X14331067Y-6606067D01*
D15*
X10400000Y-2360000D02*
X10560000Y-2200000D01*
X10400000Y-2040000D01*
X10240000Y-2200000D01*
X10400000Y-2360000D01*
X10400000Y-7160000D02*
X10560000Y-7000000D01*
X10400000Y-6840000D01*
X10240000Y-7000000D01*
X10400000Y-7160000D01*
X14500000Y-4710000D02*
X14660000Y-4550000D01*
X14500000Y-4390000D01*
X14340000Y-4550000D01*
X14500000Y-4710000D01*
X18600000Y-2260000D02*
X18760000Y-2100000D01*
X18600000Y-1940000D01*
X18440000Y-2100000D01*
X18600000Y-2260000D01*
X18600000Y-7060000D02*
X18760000Y-6900000D01*
X18600000Y-6740000D01*
X18440000Y-6900000D01*
X18600000Y-7060000D01*
D11*
X10058277Y-7813984D02*
X10058277Y-7613984D01*
X10058277Y-7613984D02*
X10105896Y-7613984D01*
X10105896Y-7613984D02*
X10134467Y-7623508D01*
X10134467Y-7623508D02*
X10153515Y-7642555D01*
X10153515Y-7642555D02*
X10163039Y-7661603D01*
X10163039Y-7661603D02*
X10172563Y-7699698D01*
X10172563Y-7699698D02*
X10172563Y-7728269D01*
X10172563Y-7728269D02*
X10163039Y-7766365D01*
X10163039Y-7766365D02*
X10153515Y-7785412D01*
X10153515Y-7785412D02*
X10134467Y-7804460D01*
X10134467Y-7804460D02*
X10105896Y-7813984D01*
X10105896Y-7813984D02*
X10058277Y-7813984D01*
X10258277Y-7813984D02*
X10258277Y-7680650D01*
X10258277Y-7718746D02*
X10267801Y-7699698D01*
X10267801Y-7699698D02*
X10277324Y-7690174D01*
X10277324Y-7690174D02*
X10296372Y-7680650D01*
X10296372Y-7680650D02*
X10315420Y-7680650D01*
X10382086Y-7813984D02*
X10382086Y-7680650D01*
X10382086Y-7613984D02*
X10372563Y-7623508D01*
X10372563Y-7623508D02*
X10382086Y-7633031D01*
X10382086Y-7633031D02*
X10391610Y-7623508D01*
X10391610Y-7623508D02*
X10382086Y-7613984D01*
X10382086Y-7613984D02*
X10382086Y-7633031D01*
X10505896Y-7813984D02*
X10486848Y-7804460D01*
X10486848Y-7804460D02*
X10477324Y-7785412D01*
X10477324Y-7785412D02*
X10477324Y-7613984D01*
X10610658Y-7813984D02*
X10591610Y-7804460D01*
X10591610Y-7804460D02*
X10582086Y-7785412D01*
X10582086Y-7785412D02*
X10582086Y-7613984D01*
X10839229Y-7813984D02*
X10839229Y-7613984D01*
X10839229Y-7613984D02*
X10905896Y-7756841D01*
X10905896Y-7756841D02*
X10972563Y-7613984D01*
X10972563Y-7613984D02*
X10972563Y-7813984D01*
X11153515Y-7813984D02*
X11153515Y-7709222D01*
X11153515Y-7709222D02*
X11143991Y-7690174D01*
X11143991Y-7690174D02*
X11124944Y-7680650D01*
X11124944Y-7680650D02*
X11086848Y-7680650D01*
X11086848Y-7680650D02*
X11067801Y-7690174D01*
X11153515Y-7804460D02*
X11134467Y-7813984D01*
X11134467Y-7813984D02*
X11086848Y-7813984D01*
X11086848Y-7813984D02*
X11067801Y-7804460D01*
X11067801Y-7804460D02*
X11058277Y-7785412D01*
X11058277Y-7785412D02*
X11058277Y-7766365D01*
X11058277Y-7766365D02*
X11067801Y-7747317D01*
X11067801Y-7747317D02*
X11086848Y-7737793D01*
X11086848Y-7737793D02*
X11134467Y-7737793D01*
X11134467Y-7737793D02*
X11153515Y-7728269D01*
X11248753Y-7680650D02*
X11248753Y-7880650D01*
X11248753Y-7690174D02*
X11267801Y-7680650D01*
X11267801Y-7680650D02*
X11305896Y-7680650D01*
X11305896Y-7680650D02*
X11324943Y-7690174D01*
X11324943Y-7690174D02*
X11334467Y-7699698D01*
X11334467Y-7699698D02*
X11343991Y-7718746D01*
X11343991Y-7718746D02*
X11343991Y-7775888D01*
X11343991Y-7775888D02*
X11334467Y-7794936D01*
X11334467Y-7794936D02*
X11324943Y-7804460D01*
X11324943Y-7804460D02*
X11305896Y-7813984D01*
X11305896Y-7813984D02*
X11267801Y-7813984D01*
X11267801Y-7813984D02*
X11248753Y-7804460D01*
X11429705Y-7794936D02*
X11439229Y-7804460D01*
X11439229Y-7804460D02*
X11429705Y-7813984D01*
X11429705Y-7813984D02*
X11420182Y-7804460D01*
X11420182Y-7804460D02*
X11429705Y-7794936D01*
X11429705Y-7794936D02*
X11429705Y-7813984D01*
X11429705Y-7690174D02*
X11439229Y-7699698D01*
X11439229Y-7699698D02*
X11429705Y-7709222D01*
X11429705Y-7709222D02*
X11420182Y-7699698D01*
X11420182Y-7699698D02*
X11429705Y-7690174D01*
X11429705Y-7690174D02*
X11429705Y-7709222D01*
D12*
X9707500Y-8097500D02*
X9797500Y-8187500D01*
X9797500Y-8097500D02*
X9707500Y-8187500D01*
D11*
X10096372Y-8033984D02*
X10115420Y-8033984D01*
X10115420Y-8033984D02*
X10134467Y-8043508D01*
X10134467Y-8043508D02*
X10143991Y-8053031D01*
X10143991Y-8053031D02*
X10153515Y-8072079D01*
X10153515Y-8072079D02*
X10163039Y-8110174D01*
X10163039Y-8110174D02*
X10163039Y-8157793D01*
X10163039Y-8157793D02*
X10153515Y-8195888D01*
X10153515Y-8195888D02*
X10143991Y-8214936D01*
X10143991Y-8214936D02*
X10134467Y-8224460D01*
X10134467Y-8224460D02*
X10115420Y-8233984D01*
X10115420Y-8233984D02*
X10096372Y-8233984D01*
X10096372Y-8233984D02*
X10077324Y-8224460D01*
X10077324Y-8224460D02*
X10067801Y-8214936D01*
X10067801Y-8214936D02*
X10058277Y-8195888D01*
X10058277Y-8195888D02*
X10048753Y-8157793D01*
X10048753Y-8157793D02*
X10048753Y-8110174D01*
X10048753Y-8110174D02*
X10058277Y-8072079D01*
X10058277Y-8072079D02*
X10067801Y-8053031D01*
X10067801Y-8053031D02*
X10077324Y-8043508D01*
X10077324Y-8043508D02*
X10096372Y-8033984D01*
X10248753Y-8214936D02*
X10258277Y-8224460D01*
X10258277Y-8224460D02*
X10248753Y-8233984D01*
X10248753Y-8233984D02*
X10239229Y-8224460D01*
X10239229Y-8224460D02*
X10248753Y-8214936D01*
X10248753Y-8214936D02*
X10248753Y-8233984D01*
X10353515Y-8233984D02*
X10391610Y-8233984D01*
X10391610Y-8233984D02*
X10410658Y-8224460D01*
X10410658Y-8224460D02*
X10420182Y-8214936D01*
X10420182Y-8214936D02*
X10439229Y-8186365D01*
X10439229Y-8186365D02*
X10448753Y-8148269D01*
X10448753Y-8148269D02*
X10448753Y-8072079D01*
X10448753Y-8072079D02*
X10439229Y-8053031D01*
X10439229Y-8053031D02*
X10429705Y-8043508D01*
X10429705Y-8043508D02*
X10410658Y-8033984D01*
X10410658Y-8033984D02*
X10372563Y-8033984D01*
X10372563Y-8033984D02*
X10353515Y-8043508D01*
X10353515Y-8043508D02*
X10343991Y-8053031D01*
X10343991Y-8053031D02*
X10334467Y-8072079D01*
X10334467Y-8072079D02*
X10334467Y-8119698D01*
X10334467Y-8119698D02*
X10343991Y-8138746D01*
X10343991Y-8138746D02*
X10353515Y-8148269D01*
X10353515Y-8148269D02*
X10372563Y-8157793D01*
X10372563Y-8157793D02*
X10410658Y-8157793D01*
X10410658Y-8157793D02*
X10429705Y-8148269D01*
X10429705Y-8148269D02*
X10439229Y-8138746D01*
X10439229Y-8138746D02*
X10448753Y-8119698D01*
X10572563Y-8033984D02*
X10591610Y-8033984D01*
X10591610Y-8033984D02*
X10610658Y-8043508D01*
X10610658Y-8043508D02*
X10620182Y-8053031D01*
X10620182Y-8053031D02*
X10629705Y-8072079D01*
X10629705Y-8072079D02*
X10639229Y-8110174D01*
X10639229Y-8110174D02*
X10639229Y-8157793D01*
X10639229Y-8157793D02*
X10629705Y-8195888D01*
X10629705Y-8195888D02*
X10620182Y-8214936D01*
X10620182Y-8214936D02*
X10610658Y-8224460D01*
X10610658Y-8224460D02*
X10591610Y-8233984D01*
X10591610Y-8233984D02*
X10572563Y-8233984D01*
X10572563Y-8233984D02*
X10553515Y-8224460D01*
X10553515Y-8224460D02*
X10543991Y-8214936D01*
X10543991Y-8214936D02*
X10534467Y-8195888D01*
X10534467Y-8195888D02*
X10524944Y-8157793D01*
X10524944Y-8157793D02*
X10524944Y-8110174D01*
X10524944Y-8110174D02*
X10534467Y-8072079D01*
X10534467Y-8072079D02*
X10543991Y-8053031D01*
X10543991Y-8053031D02*
X10553515Y-8043508D01*
X10553515Y-8043508D02*
X10572563Y-8033984D01*
X10763039Y-8033984D02*
X10782086Y-8033984D01*
X10782086Y-8033984D02*
X10801134Y-8043508D01*
X10801134Y-8043508D02*
X10810658Y-8053031D01*
X10810658Y-8053031D02*
X10820182Y-8072079D01*
X10820182Y-8072079D02*
X10829705Y-8110174D01*
X10829705Y-8110174D02*
X10829705Y-8157793D01*
X10829705Y-8157793D02*
X10820182Y-8195888D01*
X10820182Y-8195888D02*
X10810658Y-8214936D01*
X10810658Y-8214936D02*
X10801134Y-8224460D01*
X10801134Y-8224460D02*
X10782086Y-8233984D01*
X10782086Y-8233984D02*
X10763039Y-8233984D01*
X10763039Y-8233984D02*
X10743991Y-8224460D01*
X10743991Y-8224460D02*
X10734467Y-8214936D01*
X10734467Y-8214936D02*
X10724944Y-8195888D01*
X10724944Y-8195888D02*
X10715420Y-8157793D01*
X10715420Y-8157793D02*
X10715420Y-8110174D01*
X10715420Y-8110174D02*
X10724944Y-8072079D01*
X10724944Y-8072079D02*
X10734467Y-8053031D01*
X10734467Y-8053031D02*
X10743991Y-8043508D01*
X10743991Y-8043508D02*
X10763039Y-8033984D01*
X10915420Y-8233984D02*
X10915420Y-8100650D01*
X10915420Y-8119698D02*
X10924944Y-8110174D01*
X10924944Y-8110174D02*
X10943991Y-8100650D01*
X10943991Y-8100650D02*
X10972563Y-8100650D01*
X10972563Y-8100650D02*
X10991610Y-8110174D01*
X10991610Y-8110174D02*
X11001134Y-8129222D01*
X11001134Y-8129222D02*
X11001134Y-8233984D01*
X11001134Y-8129222D02*
X11010658Y-8110174D01*
X11010658Y-8110174D02*
X11029705Y-8100650D01*
X11029705Y-8100650D02*
X11058277Y-8100650D01*
X11058277Y-8100650D02*
X11077325Y-8110174D01*
X11077325Y-8110174D02*
X11086848Y-8129222D01*
X11086848Y-8129222D02*
X11086848Y-8233984D01*
X11182086Y-8233984D02*
X11182086Y-8100650D01*
X11182086Y-8119698D02*
X11191610Y-8110174D01*
X11191610Y-8110174D02*
X11210658Y-8100650D01*
X11210658Y-8100650D02*
X11239229Y-8100650D01*
X11239229Y-8100650D02*
X11258277Y-8110174D01*
X11258277Y-8110174D02*
X11267801Y-8129222D01*
X11267801Y-8129222D02*
X11267801Y-8233984D01*
X11267801Y-8129222D02*
X11277324Y-8110174D01*
X11277324Y-8110174D02*
X11296372Y-8100650D01*
X11296372Y-8100650D02*
X11324943Y-8100650D01*
X11324943Y-8100650D02*
X11343991Y-8110174D01*
X11343991Y-8110174D02*
X11353515Y-8129222D01*
X11353515Y-8129222D02*
X11353515Y-8233984D01*
X11743991Y-8024460D02*
X11572563Y-8281603D01*
X12001134Y-8033984D02*
X12020182Y-8033984D01*
X12020182Y-8033984D02*
X12039229Y-8043508D01*
X12039229Y-8043508D02*
X12048753Y-8053031D01*
X12048753Y-8053031D02*
X12058277Y-8072079D01*
X12058277Y-8072079D02*
X12067801Y-8110174D01*
X12067801Y-8110174D02*
X12067801Y-8157793D01*
X12067801Y-8157793D02*
X12058277Y-8195888D01*
X12058277Y-8195888D02*
X12048753Y-8214936D01*
X12048753Y-8214936D02*
X12039229Y-8224460D01*
X12039229Y-8224460D02*
X12020182Y-8233984D01*
X12020182Y-8233984D02*
X12001134Y-8233984D01*
X12001134Y-8233984D02*
X11982086Y-8224460D01*
X11982086Y-8224460D02*
X11972563Y-8214936D01*
X11972563Y-8214936D02*
X11963039Y-8195888D01*
X11963039Y-8195888D02*
X11953515Y-8157793D01*
X11953515Y-8157793D02*
X11953515Y-8110174D01*
X11953515Y-8110174D02*
X11963039Y-8072079D01*
X11963039Y-8072079D02*
X11972563Y-8053031D01*
X11972563Y-8053031D02*
X11982086Y-8043508D01*
X11982086Y-8043508D02*
X12001134Y-8033984D01*
X12153515Y-8214936D02*
X12163039Y-8224460D01*
X12163039Y-8224460D02*
X12153515Y-8233984D01*
X12153515Y-8233984D02*
X12143991Y-8224460D01*
X12143991Y-8224460D02*
X12153515Y-8214936D01*
X12153515Y-8214936D02*
X12153515Y-8233984D01*
X12286848Y-8033984D02*
X12305896Y-8033984D01*
X12305896Y-8033984D02*
X12324944Y-8043508D01*
X12324944Y-8043508D02*
X12334467Y-8053031D01*
X12334467Y-8053031D02*
X12343991Y-8072079D01*
X12343991Y-8072079D02*
X12353515Y-8110174D01*
X12353515Y-8110174D02*
X12353515Y-8157793D01*
X12353515Y-8157793D02*
X12343991Y-8195888D01*
X12343991Y-8195888D02*
X12334467Y-8214936D01*
X12334467Y-8214936D02*
X12324944Y-8224460D01*
X12324944Y-8224460D02*
X12305896Y-8233984D01*
X12305896Y-8233984D02*
X12286848Y-8233984D01*
X12286848Y-8233984D02*
X12267801Y-8224460D01*
X12267801Y-8224460D02*
X12258277Y-8214936D01*
X12258277Y-8214936D02*
X12248753Y-8195888D01*
X12248753Y-8195888D02*
X12239229Y-8157793D01*
X12239229Y-8157793D02*
X12239229Y-8110174D01*
X12239229Y-8110174D02*
X12248753Y-8072079D01*
X12248753Y-8072079D02*
X12258277Y-8053031D01*
X12258277Y-8053031D02*
X12267801Y-8043508D01*
X12267801Y-8043508D02*
X12286848Y-8033984D01*
X12420182Y-8033984D02*
X12543991Y-8033984D01*
X12543991Y-8033984D02*
X12477325Y-8110174D01*
X12477325Y-8110174D02*
X12505896Y-8110174D01*
X12505896Y-8110174D02*
X12524944Y-8119698D01*
X12524944Y-8119698D02*
X12534467Y-8129222D01*
X12534467Y-8129222D02*
X12543991Y-8148269D01*
X12543991Y-8148269D02*
X12543991Y-8195888D01*
X12543991Y-8195888D02*
X12534467Y-8214936D01*
X12534467Y-8214936D02*
X12524944Y-8224460D01*
X12524944Y-8224460D02*
X12505896Y-8233984D01*
X12505896Y-8233984D02*
X12448753Y-8233984D01*
X12448753Y-8233984D02*
X12429706Y-8224460D01*
X12429706Y-8224460D02*
X12420182Y-8214936D01*
X12724944Y-8033984D02*
X12629706Y-8033984D01*
X12629706Y-8033984D02*
X12620182Y-8129222D01*
X12620182Y-8129222D02*
X12629706Y-8119698D01*
X12629706Y-8119698D02*
X12648753Y-8110174D01*
X12648753Y-8110174D02*
X12696372Y-8110174D01*
X12696372Y-8110174D02*
X12715420Y-8119698D01*
X12715420Y-8119698D02*
X12724944Y-8129222D01*
X12724944Y-8129222D02*
X12734467Y-8148269D01*
X12734467Y-8148269D02*
X12734467Y-8195888D01*
X12734467Y-8195888D02*
X12724944Y-8214936D01*
X12724944Y-8214936D02*
X12715420Y-8224460D01*
X12715420Y-8224460D02*
X12696372Y-8233984D01*
X12696372Y-8233984D02*
X12648753Y-8233984D01*
X12648753Y-8233984D02*
X12629706Y-8224460D01*
X12629706Y-8224460D02*
X12620182Y-8214936D01*
X12905896Y-8100650D02*
X12905896Y-8233984D01*
X12858277Y-8024460D02*
X12810658Y-8167317D01*
X12810658Y-8167317D02*
X12934467Y-8167317D01*
X13001134Y-8033984D02*
X13001134Y-8072079D01*
X13077325Y-8033984D02*
X13077325Y-8072079D01*
X13372563Y-8310174D02*
X13363039Y-8300650D01*
X13363039Y-8300650D02*
X13343991Y-8272079D01*
X13343991Y-8272079D02*
X13334468Y-8253031D01*
X13334468Y-8253031D02*
X13324944Y-8224460D01*
X13324944Y-8224460D02*
X13315420Y-8176841D01*
X13315420Y-8176841D02*
X13315420Y-8138746D01*
X13315420Y-8138746D02*
X13324944Y-8091127D01*
X13324944Y-8091127D02*
X13334468Y-8062555D01*
X13334468Y-8062555D02*
X13343991Y-8043508D01*
X13343991Y-8043508D02*
X13363039Y-8014936D01*
X13363039Y-8014936D02*
X13372563Y-8005412D01*
X13553515Y-8233984D02*
X13439229Y-8233984D01*
X13496372Y-8233984D02*
X13496372Y-8033984D01*
X13496372Y-8033984D02*
X13477325Y-8062555D01*
X13477325Y-8062555D02*
X13458277Y-8081603D01*
X13458277Y-8081603D02*
X13439229Y-8091127D01*
X13734468Y-8033984D02*
X13639229Y-8033984D01*
X13639229Y-8033984D02*
X13629706Y-8129222D01*
X13629706Y-8129222D02*
X13639229Y-8119698D01*
X13639229Y-8119698D02*
X13658277Y-8110174D01*
X13658277Y-8110174D02*
X13705896Y-8110174D01*
X13705896Y-8110174D02*
X13724944Y-8119698D01*
X13724944Y-8119698D02*
X13734468Y-8129222D01*
X13734468Y-8129222D02*
X13743991Y-8148269D01*
X13743991Y-8148269D02*
X13743991Y-8195888D01*
X13743991Y-8195888D02*
X13734468Y-8214936D01*
X13734468Y-8214936D02*
X13724944Y-8224460D01*
X13724944Y-8224460D02*
X13705896Y-8233984D01*
X13705896Y-8233984D02*
X13658277Y-8233984D01*
X13658277Y-8233984D02*
X13639229Y-8224460D01*
X13639229Y-8224460D02*
X13629706Y-8214936D01*
X13810658Y-8033984D02*
X13934468Y-8033984D01*
X13934468Y-8033984D02*
X13867801Y-8110174D01*
X13867801Y-8110174D02*
X13896372Y-8110174D01*
X13896372Y-8110174D02*
X13915420Y-8119698D01*
X13915420Y-8119698D02*
X13924944Y-8129222D01*
X13924944Y-8129222D02*
X13934468Y-8148269D01*
X13934468Y-8148269D02*
X13934468Y-8195888D01*
X13934468Y-8195888D02*
X13924944Y-8214936D01*
X13924944Y-8214936D02*
X13915420Y-8224460D01*
X13915420Y-8224460D02*
X13896372Y-8233984D01*
X13896372Y-8233984D02*
X13839229Y-8233984D01*
X13839229Y-8233984D02*
X13820182Y-8224460D01*
X13820182Y-8224460D02*
X13810658Y-8214936D01*
X14172563Y-8233984D02*
X14172563Y-8033984D01*
X14258277Y-8233984D02*
X14258277Y-8129222D01*
X14258277Y-8129222D02*
X14248753Y-8110174D01*
X14248753Y-8110174D02*
X14229706Y-8100650D01*
X14229706Y-8100650D02*
X14201134Y-8100650D01*
X14201134Y-8100650D02*
X14182087Y-8110174D01*
X14182087Y-8110174D02*
X14172563Y-8119698D01*
X14382087Y-8233984D02*
X14363039Y-8224460D01*
X14363039Y-8224460D02*
X14353515Y-8214936D01*
X14353515Y-8214936D02*
X14343991Y-8195888D01*
X14343991Y-8195888D02*
X14343991Y-8138746D01*
X14343991Y-8138746D02*
X14353515Y-8119698D01*
X14353515Y-8119698D02*
X14363039Y-8110174D01*
X14363039Y-8110174D02*
X14382087Y-8100650D01*
X14382087Y-8100650D02*
X14410658Y-8100650D01*
X14410658Y-8100650D02*
X14429706Y-8110174D01*
X14429706Y-8110174D02*
X14439230Y-8119698D01*
X14439230Y-8119698D02*
X14448753Y-8138746D01*
X14448753Y-8138746D02*
X14448753Y-8195888D01*
X14448753Y-8195888D02*
X14439230Y-8214936D01*
X14439230Y-8214936D02*
X14429706Y-8224460D01*
X14429706Y-8224460D02*
X14410658Y-8233984D01*
X14410658Y-8233984D02*
X14382087Y-8233984D01*
X14563039Y-8233984D02*
X14543991Y-8224460D01*
X14543991Y-8224460D02*
X14534468Y-8205412D01*
X14534468Y-8205412D02*
X14534468Y-8033984D01*
X14715420Y-8224460D02*
X14696372Y-8233984D01*
X14696372Y-8233984D02*
X14658277Y-8233984D01*
X14658277Y-8233984D02*
X14639230Y-8224460D01*
X14639230Y-8224460D02*
X14629706Y-8205412D01*
X14629706Y-8205412D02*
X14629706Y-8129222D01*
X14629706Y-8129222D02*
X14639230Y-8110174D01*
X14639230Y-8110174D02*
X14658277Y-8100650D01*
X14658277Y-8100650D02*
X14696372Y-8100650D01*
X14696372Y-8100650D02*
X14715420Y-8110174D01*
X14715420Y-8110174D02*
X14724944Y-8129222D01*
X14724944Y-8129222D02*
X14724944Y-8148269D01*
X14724944Y-8148269D02*
X14629706Y-8167317D01*
X14801134Y-8224460D02*
X14820182Y-8233984D01*
X14820182Y-8233984D02*
X14858277Y-8233984D01*
X14858277Y-8233984D02*
X14877325Y-8224460D01*
X14877325Y-8224460D02*
X14886849Y-8205412D01*
X14886849Y-8205412D02*
X14886849Y-8195888D01*
X14886849Y-8195888D02*
X14877325Y-8176841D01*
X14877325Y-8176841D02*
X14858277Y-8167317D01*
X14858277Y-8167317D02*
X14829706Y-8167317D01*
X14829706Y-8167317D02*
X14810658Y-8157793D01*
X14810658Y-8157793D02*
X14801134Y-8138746D01*
X14801134Y-8138746D02*
X14801134Y-8129222D01*
X14801134Y-8129222D02*
X14810658Y-8110174D01*
X14810658Y-8110174D02*
X14829706Y-8100650D01*
X14829706Y-8100650D02*
X14858277Y-8100650D01*
X14858277Y-8100650D02*
X14877325Y-8110174D01*
X14953515Y-8310174D02*
X14963039Y-8300650D01*
X14963039Y-8300650D02*
X14982087Y-8272079D01*
X14982087Y-8272079D02*
X14991611Y-8253031D01*
X14991611Y-8253031D02*
X15001134Y-8224460D01*
X15001134Y-8224460D02*
X15010658Y-8176841D01*
X15010658Y-8176841D02*
X15010658Y-8138746D01*
X15010658Y-8138746D02*
X15001134Y-8091127D01*
X15001134Y-8091127D02*
X14991611Y-8062555D01*
X14991611Y-8062555D02*
X14982087Y-8043508D01*
X14982087Y-8043508D02*
X14963039Y-8014936D01*
X14963039Y-8014936D02*
X14953515Y-8005412D01*
D13*
X9797500Y-8406500D02*
G75*
G02*
X9647500Y-8406500I-75000J0D01*
G01*
X9647500Y-8406500D02*
G75*
G02*
X9797500Y-8406500I75000J0D01*
G01*
D11*
X10163039Y-8497984D02*
X10048753Y-8497984D01*
X10105896Y-8497984D02*
X10105896Y-8297984D01*
X10105896Y-8297984D02*
X10086848Y-8326555D01*
X10086848Y-8326555D02*
X10067801Y-8345603D01*
X10067801Y-8345603D02*
X10048753Y-8355127D01*
X10248753Y-8478936D02*
X10258277Y-8488460D01*
X10258277Y-8488460D02*
X10248753Y-8497984D01*
X10248753Y-8497984D02*
X10239229Y-8488460D01*
X10239229Y-8488460D02*
X10248753Y-8478936D01*
X10248753Y-8478936D02*
X10248753Y-8497984D01*
X10439229Y-8297984D02*
X10343991Y-8297984D01*
X10343991Y-8297984D02*
X10334467Y-8393222D01*
X10334467Y-8393222D02*
X10343991Y-8383698D01*
X10343991Y-8383698D02*
X10363039Y-8374174D01*
X10363039Y-8374174D02*
X10410658Y-8374174D01*
X10410658Y-8374174D02*
X10429705Y-8383698D01*
X10429705Y-8383698D02*
X10439229Y-8393222D01*
X10439229Y-8393222D02*
X10448753Y-8412270D01*
X10448753Y-8412270D02*
X10448753Y-8459889D01*
X10448753Y-8459889D02*
X10439229Y-8478936D01*
X10439229Y-8478936D02*
X10429705Y-8488460D01*
X10429705Y-8488460D02*
X10410658Y-8497984D01*
X10410658Y-8497984D02*
X10363039Y-8497984D01*
X10363039Y-8497984D02*
X10343991Y-8488460D01*
X10343991Y-8488460D02*
X10334467Y-8478936D01*
X10572563Y-8297984D02*
X10591610Y-8297984D01*
X10591610Y-8297984D02*
X10610658Y-8307508D01*
X10610658Y-8307508D02*
X10620182Y-8317031D01*
X10620182Y-8317031D02*
X10629705Y-8336079D01*
X10629705Y-8336079D02*
X10639229Y-8374174D01*
X10639229Y-8374174D02*
X10639229Y-8421793D01*
X10639229Y-8421793D02*
X10629705Y-8459889D01*
X10629705Y-8459889D02*
X10620182Y-8478936D01*
X10620182Y-8478936D02*
X10610658Y-8488460D01*
X10610658Y-8488460D02*
X10591610Y-8497984D01*
X10591610Y-8497984D02*
X10572563Y-8497984D01*
X10572563Y-8497984D02*
X10553515Y-8488460D01*
X10553515Y-8488460D02*
X10543991Y-8478936D01*
X10543991Y-8478936D02*
X10534467Y-8459889D01*
X10534467Y-8459889D02*
X10524944Y-8421793D01*
X10524944Y-8421793D02*
X10524944Y-8374174D01*
X10524944Y-8374174D02*
X10534467Y-8336079D01*
X10534467Y-8336079D02*
X10543991Y-8317031D01*
X10543991Y-8317031D02*
X10553515Y-8307508D01*
X10553515Y-8307508D02*
X10572563Y-8297984D01*
X10763039Y-8297984D02*
X10782086Y-8297984D01*
X10782086Y-8297984D02*
X10801134Y-8307508D01*
X10801134Y-8307508D02*
X10810658Y-8317031D01*
X10810658Y-8317031D02*
X10820182Y-8336079D01*
X10820182Y-8336079D02*
X10829705Y-8374174D01*
X10829705Y-8374174D02*
X10829705Y-8421793D01*
X10829705Y-8421793D02*
X10820182Y-8459889D01*
X10820182Y-8459889D02*
X10810658Y-8478936D01*
X10810658Y-8478936D02*
X10801134Y-8488460D01*
X10801134Y-8488460D02*
X10782086Y-8497984D01*
X10782086Y-8497984D02*
X10763039Y-8497984D01*
X10763039Y-8497984D02*
X10743991Y-8488460D01*
X10743991Y-8488460D02*
X10734467Y-8478936D01*
X10734467Y-8478936D02*
X10724944Y-8459889D01*
X10724944Y-8459889D02*
X10715420Y-8421793D01*
X10715420Y-8421793D02*
X10715420Y-8374174D01*
X10715420Y-8374174D02*
X10724944Y-8336079D01*
X10724944Y-8336079D02*
X10734467Y-8317031D01*
X10734467Y-8317031D02*
X10743991Y-8307508D01*
X10743991Y-8307508D02*
X10763039Y-8297984D01*
X10915420Y-8497984D02*
X10915420Y-8364650D01*
X10915420Y-8383698D02*
X10924944Y-8374174D01*
X10924944Y-8374174D02*
X10943991Y-8364650D01*
X10943991Y-8364650D02*
X10972563Y-8364650D01*
X10972563Y-8364650D02*
X10991610Y-8374174D01*
X10991610Y-8374174D02*
X11001134Y-8393222D01*
X11001134Y-8393222D02*
X11001134Y-8497984D01*
X11001134Y-8393222D02*
X11010658Y-8374174D01*
X11010658Y-8374174D02*
X11029705Y-8364650D01*
X11029705Y-8364650D02*
X11058277Y-8364650D01*
X11058277Y-8364650D02*
X11077325Y-8374174D01*
X11077325Y-8374174D02*
X11086848Y-8393222D01*
X11086848Y-8393222D02*
X11086848Y-8497984D01*
X11182086Y-8497984D02*
X11182086Y-8364650D01*
X11182086Y-8383698D02*
X11191610Y-8374174D01*
X11191610Y-8374174D02*
X11210658Y-8364650D01*
X11210658Y-8364650D02*
X11239229Y-8364650D01*
X11239229Y-8364650D02*
X11258277Y-8374174D01*
X11258277Y-8374174D02*
X11267801Y-8393222D01*
X11267801Y-8393222D02*
X11267801Y-8497984D01*
X11267801Y-8393222D02*
X11277324Y-8374174D01*
X11277324Y-8374174D02*
X11296372Y-8364650D01*
X11296372Y-8364650D02*
X11324943Y-8364650D01*
X11324943Y-8364650D02*
X11343991Y-8374174D01*
X11343991Y-8374174D02*
X11353515Y-8393222D01*
X11353515Y-8393222D02*
X11353515Y-8497984D01*
X11743991Y-8288460D02*
X11572563Y-8545603D01*
X12001134Y-8297984D02*
X12020182Y-8297984D01*
X12020182Y-8297984D02*
X12039229Y-8307508D01*
X12039229Y-8307508D02*
X12048753Y-8317031D01*
X12048753Y-8317031D02*
X12058277Y-8336079D01*
X12058277Y-8336079D02*
X12067801Y-8374174D01*
X12067801Y-8374174D02*
X12067801Y-8421793D01*
X12067801Y-8421793D02*
X12058277Y-8459889D01*
X12058277Y-8459889D02*
X12048753Y-8478936D01*
X12048753Y-8478936D02*
X12039229Y-8488460D01*
X12039229Y-8488460D02*
X12020182Y-8497984D01*
X12020182Y-8497984D02*
X12001134Y-8497984D01*
X12001134Y-8497984D02*
X11982086Y-8488460D01*
X11982086Y-8488460D02*
X11972563Y-8478936D01*
X11972563Y-8478936D02*
X11963039Y-8459889D01*
X11963039Y-8459889D02*
X11953515Y-8421793D01*
X11953515Y-8421793D02*
X11953515Y-8374174D01*
X11953515Y-8374174D02*
X11963039Y-8336079D01*
X11963039Y-8336079D02*
X11972563Y-8317031D01*
X11972563Y-8317031D02*
X11982086Y-8307508D01*
X11982086Y-8307508D02*
X12001134Y-8297984D01*
X12153515Y-8478936D02*
X12163039Y-8488460D01*
X12163039Y-8488460D02*
X12153515Y-8497984D01*
X12153515Y-8497984D02*
X12143991Y-8488460D01*
X12143991Y-8488460D02*
X12153515Y-8478936D01*
X12153515Y-8478936D02*
X12153515Y-8497984D01*
X12286848Y-8297984D02*
X12305896Y-8297984D01*
X12305896Y-8297984D02*
X12324944Y-8307508D01*
X12324944Y-8307508D02*
X12334467Y-8317031D01*
X12334467Y-8317031D02*
X12343991Y-8336079D01*
X12343991Y-8336079D02*
X12353515Y-8374174D01*
X12353515Y-8374174D02*
X12353515Y-8421793D01*
X12353515Y-8421793D02*
X12343991Y-8459889D01*
X12343991Y-8459889D02*
X12334467Y-8478936D01*
X12334467Y-8478936D02*
X12324944Y-8488460D01*
X12324944Y-8488460D02*
X12305896Y-8497984D01*
X12305896Y-8497984D02*
X12286848Y-8497984D01*
X12286848Y-8497984D02*
X12267801Y-8488460D01*
X12267801Y-8488460D02*
X12258277Y-8478936D01*
X12258277Y-8478936D02*
X12248753Y-8459889D01*
X12248753Y-8459889D02*
X12239229Y-8421793D01*
X12239229Y-8421793D02*
X12239229Y-8374174D01*
X12239229Y-8374174D02*
X12248753Y-8336079D01*
X12248753Y-8336079D02*
X12258277Y-8317031D01*
X12258277Y-8317031D02*
X12267801Y-8307508D01*
X12267801Y-8307508D02*
X12286848Y-8297984D01*
X12534467Y-8297984D02*
X12439229Y-8297984D01*
X12439229Y-8297984D02*
X12429706Y-8393222D01*
X12429706Y-8393222D02*
X12439229Y-8383698D01*
X12439229Y-8383698D02*
X12458277Y-8374174D01*
X12458277Y-8374174D02*
X12505896Y-8374174D01*
X12505896Y-8374174D02*
X12524944Y-8383698D01*
X12524944Y-8383698D02*
X12534467Y-8393222D01*
X12534467Y-8393222D02*
X12543991Y-8412270D01*
X12543991Y-8412270D02*
X12543991Y-8459889D01*
X12543991Y-8459889D02*
X12534467Y-8478936D01*
X12534467Y-8478936D02*
X12524944Y-8488460D01*
X12524944Y-8488460D02*
X12505896Y-8497984D01*
X12505896Y-8497984D02*
X12458277Y-8497984D01*
X12458277Y-8497984D02*
X12439229Y-8488460D01*
X12439229Y-8488460D02*
X12429706Y-8478936D01*
X12639229Y-8497984D02*
X12677325Y-8497984D01*
X12677325Y-8497984D02*
X12696372Y-8488460D01*
X12696372Y-8488460D02*
X12705896Y-8478936D01*
X12705896Y-8478936D02*
X12724944Y-8450365D01*
X12724944Y-8450365D02*
X12734467Y-8412270D01*
X12734467Y-8412270D02*
X12734467Y-8336079D01*
X12734467Y-8336079D02*
X12724944Y-8317031D01*
X12724944Y-8317031D02*
X12715420Y-8307508D01*
X12715420Y-8307508D02*
X12696372Y-8297984D01*
X12696372Y-8297984D02*
X12658277Y-8297984D01*
X12658277Y-8297984D02*
X12639229Y-8307508D01*
X12639229Y-8307508D02*
X12629706Y-8317031D01*
X12629706Y-8317031D02*
X12620182Y-8336079D01*
X12620182Y-8336079D02*
X12620182Y-8383698D01*
X12620182Y-8383698D02*
X12629706Y-8402746D01*
X12629706Y-8402746D02*
X12639229Y-8412270D01*
X12639229Y-8412270D02*
X12658277Y-8421793D01*
X12658277Y-8421793D02*
X12696372Y-8421793D01*
X12696372Y-8421793D02*
X12715420Y-8412270D01*
X12715420Y-8412270D02*
X12724944Y-8402746D01*
X12724944Y-8402746D02*
X12734467Y-8383698D01*
X12924944Y-8497984D02*
X12810658Y-8497984D01*
X12867801Y-8497984D02*
X12867801Y-8297984D01*
X12867801Y-8297984D02*
X12848753Y-8326555D01*
X12848753Y-8326555D02*
X12829706Y-8345603D01*
X12829706Y-8345603D02*
X12810658Y-8355127D01*
X13001134Y-8297984D02*
X13001134Y-8336079D01*
X13077325Y-8297984D02*
X13077325Y-8336079D01*
X13372563Y-8574174D02*
X13363039Y-8564650D01*
X13363039Y-8564650D02*
X13343991Y-8536079D01*
X13343991Y-8536079D02*
X13334468Y-8517031D01*
X13334468Y-8517031D02*
X13324944Y-8488460D01*
X13324944Y-8488460D02*
X13315420Y-8440841D01*
X13315420Y-8440841D02*
X13315420Y-8402746D01*
X13315420Y-8402746D02*
X13324944Y-8355127D01*
X13324944Y-8355127D02*
X13334468Y-8326555D01*
X13334468Y-8326555D02*
X13343991Y-8307508D01*
X13343991Y-8307508D02*
X13363039Y-8278936D01*
X13363039Y-8278936D02*
X13372563Y-8269412D01*
X13429706Y-8297984D02*
X13553515Y-8297984D01*
X13553515Y-8297984D02*
X13486848Y-8374174D01*
X13486848Y-8374174D02*
X13515420Y-8374174D01*
X13515420Y-8374174D02*
X13534468Y-8383698D01*
X13534468Y-8383698D02*
X13543991Y-8393222D01*
X13543991Y-8393222D02*
X13553515Y-8412270D01*
X13553515Y-8412270D02*
X13553515Y-8459889D01*
X13553515Y-8459889D02*
X13543991Y-8478936D01*
X13543991Y-8478936D02*
X13534468Y-8488460D01*
X13534468Y-8488460D02*
X13515420Y-8497984D01*
X13515420Y-8497984D02*
X13458277Y-8497984D01*
X13458277Y-8497984D02*
X13439229Y-8488460D01*
X13439229Y-8488460D02*
X13429706Y-8478936D01*
X13791610Y-8497984D02*
X13791610Y-8297984D01*
X13877325Y-8497984D02*
X13877325Y-8393222D01*
X13877325Y-8393222D02*
X13867801Y-8374174D01*
X13867801Y-8374174D02*
X13848753Y-8364650D01*
X13848753Y-8364650D02*
X13820182Y-8364650D01*
X13820182Y-8364650D02*
X13801134Y-8374174D01*
X13801134Y-8374174D02*
X13791610Y-8383698D01*
X14001134Y-8497984D02*
X13982087Y-8488460D01*
X13982087Y-8488460D02*
X13972563Y-8478936D01*
X13972563Y-8478936D02*
X13963039Y-8459889D01*
X13963039Y-8459889D02*
X13963039Y-8402746D01*
X13963039Y-8402746D02*
X13972563Y-8383698D01*
X13972563Y-8383698D02*
X13982087Y-8374174D01*
X13982087Y-8374174D02*
X14001134Y-8364650D01*
X14001134Y-8364650D02*
X14029706Y-8364650D01*
X14029706Y-8364650D02*
X14048753Y-8374174D01*
X14048753Y-8374174D02*
X14058277Y-8383698D01*
X14058277Y-8383698D02*
X14067801Y-8402746D01*
X14067801Y-8402746D02*
X14067801Y-8459889D01*
X14067801Y-8459889D02*
X14058277Y-8478936D01*
X14058277Y-8478936D02*
X14048753Y-8488460D01*
X14048753Y-8488460D02*
X14029706Y-8497984D01*
X14029706Y-8497984D02*
X14001134Y-8497984D01*
X14182087Y-8497984D02*
X14163039Y-8488460D01*
X14163039Y-8488460D02*
X14153515Y-8469412D01*
X14153515Y-8469412D02*
X14153515Y-8297984D01*
X14334468Y-8488460D02*
X14315420Y-8497984D01*
X14315420Y-8497984D02*
X14277325Y-8497984D01*
X14277325Y-8497984D02*
X14258277Y-8488460D01*
X14258277Y-8488460D02*
X14248753Y-8469412D01*
X14248753Y-8469412D02*
X14248753Y-8393222D01*
X14248753Y-8393222D02*
X14258277Y-8374174D01*
X14258277Y-8374174D02*
X14277325Y-8364650D01*
X14277325Y-8364650D02*
X14315420Y-8364650D01*
X14315420Y-8364650D02*
X14334468Y-8374174D01*
X14334468Y-8374174D02*
X14343991Y-8393222D01*
X14343991Y-8393222D02*
X14343991Y-8412270D01*
X14343991Y-8412270D02*
X14248753Y-8431317D01*
X14420182Y-8488460D02*
X14439230Y-8497984D01*
X14439230Y-8497984D02*
X14477325Y-8497984D01*
X14477325Y-8497984D02*
X14496372Y-8488460D01*
X14496372Y-8488460D02*
X14505896Y-8469412D01*
X14505896Y-8469412D02*
X14505896Y-8459889D01*
X14505896Y-8459889D02*
X14496372Y-8440841D01*
X14496372Y-8440841D02*
X14477325Y-8431317D01*
X14477325Y-8431317D02*
X14448753Y-8431317D01*
X14448753Y-8431317D02*
X14429706Y-8421793D01*
X14429706Y-8421793D02*
X14420182Y-8402746D01*
X14420182Y-8402746D02*
X14420182Y-8393222D01*
X14420182Y-8393222D02*
X14429706Y-8374174D01*
X14429706Y-8374174D02*
X14448753Y-8364650D01*
X14448753Y-8364650D02*
X14477325Y-8364650D01*
X14477325Y-8364650D02*
X14496372Y-8374174D01*
X14572563Y-8574174D02*
X14582087Y-8564650D01*
X14582087Y-8564650D02*
X14601134Y-8536079D01*
X14601134Y-8536079D02*
X14610658Y-8517031D01*
X14610658Y-8517031D02*
X14620182Y-8488460D01*
X14620182Y-8488460D02*
X14629706Y-8440841D01*
X14629706Y-8440841D02*
X14629706Y-8402746D01*
X14629706Y-8402746D02*
X14620182Y-8355127D01*
X14620182Y-8355127D02*
X14610658Y-8326555D01*
X14610658Y-8326555D02*
X14601134Y-8307508D01*
X14601134Y-8307508D02*
X14582087Y-8278936D01*
X14582087Y-8278936D02*
X14572563Y-8269412D01*
X9697500Y-8576500D02*
X9697500Y-8776500D01*
X9597500Y-8676500D02*
X9797500Y-8676500D01*
X10048753Y-8587031D02*
X10058277Y-8577508D01*
X10058277Y-8577508D02*
X10077324Y-8567984D01*
X10077324Y-8567984D02*
X10124944Y-8567984D01*
X10124944Y-8567984D02*
X10143991Y-8577508D01*
X10143991Y-8577508D02*
X10153515Y-8587031D01*
X10153515Y-8587031D02*
X10163039Y-8606079D01*
X10163039Y-8606079D02*
X10163039Y-8625127D01*
X10163039Y-8625127D02*
X10153515Y-8653698D01*
X10153515Y-8653698D02*
X10039229Y-8767984D01*
X10039229Y-8767984D02*
X10163039Y-8767984D01*
X10248753Y-8748936D02*
X10258277Y-8758460D01*
X10258277Y-8758460D02*
X10248753Y-8767984D01*
X10248753Y-8767984D02*
X10239229Y-8758460D01*
X10239229Y-8758460D02*
X10248753Y-8748936D01*
X10248753Y-8748936D02*
X10248753Y-8767984D01*
X10382086Y-8567984D02*
X10401134Y-8567984D01*
X10401134Y-8567984D02*
X10420182Y-8577508D01*
X10420182Y-8577508D02*
X10429705Y-8587031D01*
X10429705Y-8587031D02*
X10439229Y-8606079D01*
X10439229Y-8606079D02*
X10448753Y-8644174D01*
X10448753Y-8644174D02*
X10448753Y-8691793D01*
X10448753Y-8691793D02*
X10439229Y-8729889D01*
X10439229Y-8729889D02*
X10429705Y-8748936D01*
X10429705Y-8748936D02*
X10420182Y-8758460D01*
X10420182Y-8758460D02*
X10401134Y-8767984D01*
X10401134Y-8767984D02*
X10382086Y-8767984D01*
X10382086Y-8767984D02*
X10363039Y-8758460D01*
X10363039Y-8758460D02*
X10353515Y-8748936D01*
X10353515Y-8748936D02*
X10343991Y-8729889D01*
X10343991Y-8729889D02*
X10334467Y-8691793D01*
X10334467Y-8691793D02*
X10334467Y-8644174D01*
X10334467Y-8644174D02*
X10343991Y-8606079D01*
X10343991Y-8606079D02*
X10353515Y-8587031D01*
X10353515Y-8587031D02*
X10363039Y-8577508D01*
X10363039Y-8577508D02*
X10382086Y-8567984D01*
X10572563Y-8567984D02*
X10591610Y-8567984D01*
X10591610Y-8567984D02*
X10610658Y-8577508D01*
X10610658Y-8577508D02*
X10620182Y-8587031D01*
X10620182Y-8587031D02*
X10629705Y-8606079D01*
X10629705Y-8606079D02*
X10639229Y-8644174D01*
X10639229Y-8644174D02*
X10639229Y-8691793D01*
X10639229Y-8691793D02*
X10629705Y-8729889D01*
X10629705Y-8729889D02*
X10620182Y-8748936D01*
X10620182Y-8748936D02*
X10610658Y-8758460D01*
X10610658Y-8758460D02*
X10591610Y-8767984D01*
X10591610Y-8767984D02*
X10572563Y-8767984D01*
X10572563Y-8767984D02*
X10553515Y-8758460D01*
X10553515Y-8758460D02*
X10543991Y-8748936D01*
X10543991Y-8748936D02*
X10534467Y-8729889D01*
X10534467Y-8729889D02*
X10524944Y-8691793D01*
X10524944Y-8691793D02*
X10524944Y-8644174D01*
X10524944Y-8644174D02*
X10534467Y-8606079D01*
X10534467Y-8606079D02*
X10543991Y-8587031D01*
X10543991Y-8587031D02*
X10553515Y-8577508D01*
X10553515Y-8577508D02*
X10572563Y-8567984D01*
X10763039Y-8567984D02*
X10782086Y-8567984D01*
X10782086Y-8567984D02*
X10801134Y-8577508D01*
X10801134Y-8577508D02*
X10810658Y-8587031D01*
X10810658Y-8587031D02*
X10820182Y-8606079D01*
X10820182Y-8606079D02*
X10829705Y-8644174D01*
X10829705Y-8644174D02*
X10829705Y-8691793D01*
X10829705Y-8691793D02*
X10820182Y-8729889D01*
X10820182Y-8729889D02*
X10810658Y-8748936D01*
X10810658Y-8748936D02*
X10801134Y-8758460D01*
X10801134Y-8758460D02*
X10782086Y-8767984D01*
X10782086Y-8767984D02*
X10763039Y-8767984D01*
X10763039Y-8767984D02*
X10743991Y-8758460D01*
X10743991Y-8758460D02*
X10734467Y-8748936D01*
X10734467Y-8748936D02*
X10724944Y-8729889D01*
X10724944Y-8729889D02*
X10715420Y-8691793D01*
X10715420Y-8691793D02*
X10715420Y-8644174D01*
X10715420Y-8644174D02*
X10724944Y-8606079D01*
X10724944Y-8606079D02*
X10734467Y-8587031D01*
X10734467Y-8587031D02*
X10743991Y-8577508D01*
X10743991Y-8577508D02*
X10763039Y-8567984D01*
X10915420Y-8767984D02*
X10915420Y-8634650D01*
X10915420Y-8653698D02*
X10924944Y-8644174D01*
X10924944Y-8644174D02*
X10943991Y-8634650D01*
X10943991Y-8634650D02*
X10972563Y-8634650D01*
X10972563Y-8634650D02*
X10991610Y-8644174D01*
X10991610Y-8644174D02*
X11001134Y-8663222D01*
X11001134Y-8663222D02*
X11001134Y-8767984D01*
X11001134Y-8663222D02*
X11010658Y-8644174D01*
X11010658Y-8644174D02*
X11029705Y-8634650D01*
X11029705Y-8634650D02*
X11058277Y-8634650D01*
X11058277Y-8634650D02*
X11077325Y-8644174D01*
X11077325Y-8644174D02*
X11086848Y-8663222D01*
X11086848Y-8663222D02*
X11086848Y-8767984D01*
X11182086Y-8767984D02*
X11182086Y-8634650D01*
X11182086Y-8653698D02*
X11191610Y-8644174D01*
X11191610Y-8644174D02*
X11210658Y-8634650D01*
X11210658Y-8634650D02*
X11239229Y-8634650D01*
X11239229Y-8634650D02*
X11258277Y-8644174D01*
X11258277Y-8644174D02*
X11267801Y-8663222D01*
X11267801Y-8663222D02*
X11267801Y-8767984D01*
X11267801Y-8663222D02*
X11277324Y-8644174D01*
X11277324Y-8644174D02*
X11296372Y-8634650D01*
X11296372Y-8634650D02*
X11324943Y-8634650D01*
X11324943Y-8634650D02*
X11343991Y-8644174D01*
X11343991Y-8644174D02*
X11353515Y-8663222D01*
X11353515Y-8663222D02*
X11353515Y-8767984D01*
X11743991Y-8558460D02*
X11572563Y-8815603D01*
X12001134Y-8567984D02*
X12020182Y-8567984D01*
X12020182Y-8567984D02*
X12039229Y-8577508D01*
X12039229Y-8577508D02*
X12048753Y-8587031D01*
X12048753Y-8587031D02*
X12058277Y-8606079D01*
X12058277Y-8606079D02*
X12067801Y-8644174D01*
X12067801Y-8644174D02*
X12067801Y-8691793D01*
X12067801Y-8691793D02*
X12058277Y-8729889D01*
X12058277Y-8729889D02*
X12048753Y-8748936D01*
X12048753Y-8748936D02*
X12039229Y-8758460D01*
X12039229Y-8758460D02*
X12020182Y-8767984D01*
X12020182Y-8767984D02*
X12001134Y-8767984D01*
X12001134Y-8767984D02*
X11982086Y-8758460D01*
X11982086Y-8758460D02*
X11972563Y-8748936D01*
X11972563Y-8748936D02*
X11963039Y-8729889D01*
X11963039Y-8729889D02*
X11953515Y-8691793D01*
X11953515Y-8691793D02*
X11953515Y-8644174D01*
X11953515Y-8644174D02*
X11963039Y-8606079D01*
X11963039Y-8606079D02*
X11972563Y-8587031D01*
X11972563Y-8587031D02*
X11982086Y-8577508D01*
X11982086Y-8577508D02*
X12001134Y-8567984D01*
X12153515Y-8748936D02*
X12163039Y-8758460D01*
X12163039Y-8758460D02*
X12153515Y-8767984D01*
X12153515Y-8767984D02*
X12143991Y-8758460D01*
X12143991Y-8758460D02*
X12153515Y-8748936D01*
X12153515Y-8748936D02*
X12153515Y-8767984D01*
X12286848Y-8567984D02*
X12305896Y-8567984D01*
X12305896Y-8567984D02*
X12324944Y-8577508D01*
X12324944Y-8577508D02*
X12334467Y-8587031D01*
X12334467Y-8587031D02*
X12343991Y-8606079D01*
X12343991Y-8606079D02*
X12353515Y-8644174D01*
X12353515Y-8644174D02*
X12353515Y-8691793D01*
X12353515Y-8691793D02*
X12343991Y-8729889D01*
X12343991Y-8729889D02*
X12334467Y-8748936D01*
X12334467Y-8748936D02*
X12324944Y-8758460D01*
X12324944Y-8758460D02*
X12305896Y-8767984D01*
X12305896Y-8767984D02*
X12286848Y-8767984D01*
X12286848Y-8767984D02*
X12267801Y-8758460D01*
X12267801Y-8758460D02*
X12258277Y-8748936D01*
X12258277Y-8748936D02*
X12248753Y-8729889D01*
X12248753Y-8729889D02*
X12239229Y-8691793D01*
X12239229Y-8691793D02*
X12239229Y-8644174D01*
X12239229Y-8644174D02*
X12248753Y-8606079D01*
X12248753Y-8606079D02*
X12258277Y-8587031D01*
X12258277Y-8587031D02*
X12267801Y-8577508D01*
X12267801Y-8577508D02*
X12286848Y-8567984D01*
X12420182Y-8567984D02*
X12553515Y-8567984D01*
X12553515Y-8567984D02*
X12467801Y-8767984D01*
X12658277Y-8653698D02*
X12639229Y-8644174D01*
X12639229Y-8644174D02*
X12629706Y-8634650D01*
X12629706Y-8634650D02*
X12620182Y-8615603D01*
X12620182Y-8615603D02*
X12620182Y-8606079D01*
X12620182Y-8606079D02*
X12629706Y-8587031D01*
X12629706Y-8587031D02*
X12639229Y-8577508D01*
X12639229Y-8577508D02*
X12658277Y-8567984D01*
X12658277Y-8567984D02*
X12696372Y-8567984D01*
X12696372Y-8567984D02*
X12715420Y-8577508D01*
X12715420Y-8577508D02*
X12724944Y-8587031D01*
X12724944Y-8587031D02*
X12734467Y-8606079D01*
X12734467Y-8606079D02*
X12734467Y-8615603D01*
X12734467Y-8615603D02*
X12724944Y-8634650D01*
X12724944Y-8634650D02*
X12715420Y-8644174D01*
X12715420Y-8644174D02*
X12696372Y-8653698D01*
X12696372Y-8653698D02*
X12658277Y-8653698D01*
X12658277Y-8653698D02*
X12639229Y-8663222D01*
X12639229Y-8663222D02*
X12629706Y-8672746D01*
X12629706Y-8672746D02*
X12620182Y-8691793D01*
X12620182Y-8691793D02*
X12620182Y-8729889D01*
X12620182Y-8729889D02*
X12629706Y-8748936D01*
X12629706Y-8748936D02*
X12639229Y-8758460D01*
X12639229Y-8758460D02*
X12658277Y-8767984D01*
X12658277Y-8767984D02*
X12696372Y-8767984D01*
X12696372Y-8767984D02*
X12715420Y-8758460D01*
X12715420Y-8758460D02*
X12724944Y-8748936D01*
X12724944Y-8748936D02*
X12734467Y-8729889D01*
X12734467Y-8729889D02*
X12734467Y-8691793D01*
X12734467Y-8691793D02*
X12724944Y-8672746D01*
X12724944Y-8672746D02*
X12715420Y-8663222D01*
X12715420Y-8663222D02*
X12696372Y-8653698D01*
X12801134Y-8567984D02*
X12934467Y-8567984D01*
X12934467Y-8567984D02*
X12848753Y-8767984D01*
X13001134Y-8567984D02*
X13001134Y-8606079D01*
X13077325Y-8567984D02*
X13077325Y-8606079D01*
X13372563Y-8844174D02*
X13363039Y-8834650D01*
X13363039Y-8834650D02*
X13343991Y-8806079D01*
X13343991Y-8806079D02*
X13334468Y-8787031D01*
X13334468Y-8787031D02*
X13324944Y-8758460D01*
X13324944Y-8758460D02*
X13315420Y-8710841D01*
X13315420Y-8710841D02*
X13315420Y-8672746D01*
X13315420Y-8672746D02*
X13324944Y-8625127D01*
X13324944Y-8625127D02*
X13334468Y-8596555D01*
X13334468Y-8596555D02*
X13343991Y-8577508D01*
X13343991Y-8577508D02*
X13363039Y-8548936D01*
X13363039Y-8548936D02*
X13372563Y-8539412D01*
X13534468Y-8634650D02*
X13534468Y-8767984D01*
X13486848Y-8558460D02*
X13439229Y-8701317D01*
X13439229Y-8701317D02*
X13563039Y-8701317D01*
X13791610Y-8767984D02*
X13791610Y-8567984D01*
X13877325Y-8767984D02*
X13877325Y-8663222D01*
X13877325Y-8663222D02*
X13867801Y-8644174D01*
X13867801Y-8644174D02*
X13848753Y-8634650D01*
X13848753Y-8634650D02*
X13820182Y-8634650D01*
X13820182Y-8634650D02*
X13801134Y-8644174D01*
X13801134Y-8644174D02*
X13791610Y-8653698D01*
X14001134Y-8767984D02*
X13982087Y-8758460D01*
X13982087Y-8758460D02*
X13972563Y-8748936D01*
X13972563Y-8748936D02*
X13963039Y-8729889D01*
X13963039Y-8729889D02*
X13963039Y-8672746D01*
X13963039Y-8672746D02*
X13972563Y-8653698D01*
X13972563Y-8653698D02*
X13982087Y-8644174D01*
X13982087Y-8644174D02*
X14001134Y-8634650D01*
X14001134Y-8634650D02*
X14029706Y-8634650D01*
X14029706Y-8634650D02*
X14048753Y-8644174D01*
X14048753Y-8644174D02*
X14058277Y-8653698D01*
X14058277Y-8653698D02*
X14067801Y-8672746D01*
X14067801Y-8672746D02*
X14067801Y-8729889D01*
X14067801Y-8729889D02*
X14058277Y-8748936D01*
X14058277Y-8748936D02*
X14048753Y-8758460D01*
X14048753Y-8758460D02*
X14029706Y-8767984D01*
X14029706Y-8767984D02*
X14001134Y-8767984D01*
X14182087Y-8767984D02*
X14163039Y-8758460D01*
X14163039Y-8758460D02*
X14153515Y-8739412D01*
X14153515Y-8739412D02*
X14153515Y-8567984D01*
X14334468Y-8758460D02*
X14315420Y-8767984D01*
X14315420Y-8767984D02*
X14277325Y-8767984D01*
X14277325Y-8767984D02*
X14258277Y-8758460D01*
X14258277Y-8758460D02*
X14248753Y-8739412D01*
X14248753Y-8739412D02*
X14248753Y-8663222D01*
X14248753Y-8663222D02*
X14258277Y-8644174D01*
X14258277Y-8644174D02*
X14277325Y-8634650D01*
X14277325Y-8634650D02*
X14315420Y-8634650D01*
X14315420Y-8634650D02*
X14334468Y-8644174D01*
X14334468Y-8644174D02*
X14343991Y-8663222D01*
X14343991Y-8663222D02*
X14343991Y-8682270D01*
X14343991Y-8682270D02*
X14248753Y-8701317D01*
X14420182Y-8758460D02*
X14439230Y-8767984D01*
X14439230Y-8767984D02*
X14477325Y-8767984D01*
X14477325Y-8767984D02*
X14496372Y-8758460D01*
X14496372Y-8758460D02*
X14505896Y-8739412D01*
X14505896Y-8739412D02*
X14505896Y-8729889D01*
X14505896Y-8729889D02*
X14496372Y-8710841D01*
X14496372Y-8710841D02*
X14477325Y-8701317D01*
X14477325Y-8701317D02*
X14448753Y-8701317D01*
X14448753Y-8701317D02*
X14429706Y-8691793D01*
X14429706Y-8691793D02*
X14420182Y-8672746D01*
X14420182Y-8672746D02*
X14420182Y-8663222D01*
X14420182Y-8663222D02*
X14429706Y-8644174D01*
X14429706Y-8644174D02*
X14448753Y-8634650D01*
X14448753Y-8634650D02*
X14477325Y-8634650D01*
X14477325Y-8634650D02*
X14496372Y-8644174D01*
X14572563Y-8844174D02*
X14582087Y-8834650D01*
X14582087Y-8834650D02*
X14601134Y-8806079D01*
X14601134Y-8806079D02*
X14610658Y-8787031D01*
X14610658Y-8787031D02*
X14620182Y-8758460D01*
X14620182Y-8758460D02*
X14629706Y-8710841D01*
X14629706Y-8710841D02*
X14629706Y-8672746D01*
X14629706Y-8672746D02*
X14620182Y-8625127D01*
X14620182Y-8625127D02*
X14610658Y-8596555D01*
X14610658Y-8596555D02*
X14601134Y-8577508D01*
X14601134Y-8577508D02*
X14582087Y-8548936D01*
X14582087Y-8548936D02*
X14572563Y-8539412D01*
X9768211Y-9067211D02*
X9768211Y-8925789D01*
X9626789Y-8925789D01*
X9626789Y-9067211D01*
X9768211Y-9067211D01*
X10039229Y-8887984D02*
X10163039Y-8887984D01*
X10163039Y-8887984D02*
X10096372Y-8964174D01*
X10096372Y-8964174D02*
X10124944Y-8964174D01*
X10124944Y-8964174D02*
X10143991Y-8973698D01*
X10143991Y-8973698D02*
X10153515Y-8983222D01*
X10153515Y-8983222D02*
X10163039Y-9002270D01*
X10163039Y-9002270D02*
X10163039Y-9049889D01*
X10163039Y-9049889D02*
X10153515Y-9068936D01*
X10153515Y-9068936D02*
X10143991Y-9078460D01*
X10143991Y-9078460D02*
X10124944Y-9087984D01*
X10124944Y-9087984D02*
X10067801Y-9087984D01*
X10067801Y-9087984D02*
X10048753Y-9078460D01*
X10048753Y-9078460D02*
X10039229Y-9068936D01*
X10248753Y-9068936D02*
X10258277Y-9078460D01*
X10258277Y-9078460D02*
X10248753Y-9087984D01*
X10248753Y-9087984D02*
X10239229Y-9078460D01*
X10239229Y-9078460D02*
X10248753Y-9068936D01*
X10248753Y-9068936D02*
X10248753Y-9087984D01*
X10382086Y-8887984D02*
X10401134Y-8887984D01*
X10401134Y-8887984D02*
X10420182Y-8897508D01*
X10420182Y-8897508D02*
X10429705Y-8907031D01*
X10429705Y-8907031D02*
X10439229Y-8926079D01*
X10439229Y-8926079D02*
X10448753Y-8964174D01*
X10448753Y-8964174D02*
X10448753Y-9011793D01*
X10448753Y-9011793D02*
X10439229Y-9049889D01*
X10439229Y-9049889D02*
X10429705Y-9068936D01*
X10429705Y-9068936D02*
X10420182Y-9078460D01*
X10420182Y-9078460D02*
X10401134Y-9087984D01*
X10401134Y-9087984D02*
X10382086Y-9087984D01*
X10382086Y-9087984D02*
X10363039Y-9078460D01*
X10363039Y-9078460D02*
X10353515Y-9068936D01*
X10353515Y-9068936D02*
X10343991Y-9049889D01*
X10343991Y-9049889D02*
X10334467Y-9011793D01*
X10334467Y-9011793D02*
X10334467Y-8964174D01*
X10334467Y-8964174D02*
X10343991Y-8926079D01*
X10343991Y-8926079D02*
X10353515Y-8907031D01*
X10353515Y-8907031D02*
X10363039Y-8897508D01*
X10363039Y-8897508D02*
X10382086Y-8887984D01*
X10572563Y-8887984D02*
X10591610Y-8887984D01*
X10591610Y-8887984D02*
X10610658Y-8897508D01*
X10610658Y-8897508D02*
X10620182Y-8907031D01*
X10620182Y-8907031D02*
X10629705Y-8926079D01*
X10629705Y-8926079D02*
X10639229Y-8964174D01*
X10639229Y-8964174D02*
X10639229Y-9011793D01*
X10639229Y-9011793D02*
X10629705Y-9049889D01*
X10629705Y-9049889D02*
X10620182Y-9068936D01*
X10620182Y-9068936D02*
X10610658Y-9078460D01*
X10610658Y-9078460D02*
X10591610Y-9087984D01*
X10591610Y-9087984D02*
X10572563Y-9087984D01*
X10572563Y-9087984D02*
X10553515Y-9078460D01*
X10553515Y-9078460D02*
X10543991Y-9068936D01*
X10543991Y-9068936D02*
X10534467Y-9049889D01*
X10534467Y-9049889D02*
X10524944Y-9011793D01*
X10524944Y-9011793D02*
X10524944Y-8964174D01*
X10524944Y-8964174D02*
X10534467Y-8926079D01*
X10534467Y-8926079D02*
X10543991Y-8907031D01*
X10543991Y-8907031D02*
X10553515Y-8897508D01*
X10553515Y-8897508D02*
X10572563Y-8887984D01*
X10763039Y-8887984D02*
X10782086Y-8887984D01*
X10782086Y-8887984D02*
X10801134Y-8897508D01*
X10801134Y-8897508D02*
X10810658Y-8907031D01*
X10810658Y-8907031D02*
X10820182Y-8926079D01*
X10820182Y-8926079D02*
X10829705Y-8964174D01*
X10829705Y-8964174D02*
X10829705Y-9011793D01*
X10829705Y-9011793D02*
X10820182Y-9049889D01*
X10820182Y-9049889D02*
X10810658Y-9068936D01*
X10810658Y-9068936D02*
X10801134Y-9078460D01*
X10801134Y-9078460D02*
X10782086Y-9087984D01*
X10782086Y-9087984D02*
X10763039Y-9087984D01*
X10763039Y-9087984D02*
X10743991Y-9078460D01*
X10743991Y-9078460D02*
X10734467Y-9068936D01*
X10734467Y-9068936D02*
X10724944Y-9049889D01*
X10724944Y-9049889D02*
X10715420Y-9011793D01*
X10715420Y-9011793D02*
X10715420Y-8964174D01*
X10715420Y-8964174D02*
X10724944Y-8926079D01*
X10724944Y-8926079D02*
X10734467Y-8907031D01*
X10734467Y-8907031D02*
X10743991Y-8897508D01*
X10743991Y-8897508D02*
X10763039Y-8887984D01*
X10915420Y-9087984D02*
X10915420Y-8954650D01*
X10915420Y-8973698D02*
X10924944Y-8964174D01*
X10924944Y-8964174D02*
X10943991Y-8954650D01*
X10943991Y-8954650D02*
X10972563Y-8954650D01*
X10972563Y-8954650D02*
X10991610Y-8964174D01*
X10991610Y-8964174D02*
X11001134Y-8983222D01*
X11001134Y-8983222D02*
X11001134Y-9087984D01*
X11001134Y-8983222D02*
X11010658Y-8964174D01*
X11010658Y-8964174D02*
X11029705Y-8954650D01*
X11029705Y-8954650D02*
X11058277Y-8954650D01*
X11058277Y-8954650D02*
X11077325Y-8964174D01*
X11077325Y-8964174D02*
X11086848Y-8983222D01*
X11086848Y-8983222D02*
X11086848Y-9087984D01*
X11182086Y-9087984D02*
X11182086Y-8954650D01*
X11182086Y-8973698D02*
X11191610Y-8964174D01*
X11191610Y-8964174D02*
X11210658Y-8954650D01*
X11210658Y-8954650D02*
X11239229Y-8954650D01*
X11239229Y-8954650D02*
X11258277Y-8964174D01*
X11258277Y-8964174D02*
X11267801Y-8983222D01*
X11267801Y-8983222D02*
X11267801Y-9087984D01*
X11267801Y-8983222D02*
X11277324Y-8964174D01*
X11277324Y-8964174D02*
X11296372Y-8954650D01*
X11296372Y-8954650D02*
X11324943Y-8954650D01*
X11324943Y-8954650D02*
X11343991Y-8964174D01*
X11343991Y-8964174D02*
X11353515Y-8983222D01*
X11353515Y-8983222D02*
X11353515Y-9087984D01*
X11743991Y-8878460D02*
X11572563Y-9135603D01*
X12001134Y-8887984D02*
X12020182Y-8887984D01*
X12020182Y-8887984D02*
X12039229Y-8897508D01*
X12039229Y-8897508D02*
X12048753Y-8907031D01*
X12048753Y-8907031D02*
X12058277Y-8926079D01*
X12058277Y-8926079D02*
X12067801Y-8964174D01*
X12067801Y-8964174D02*
X12067801Y-9011793D01*
X12067801Y-9011793D02*
X12058277Y-9049889D01*
X12058277Y-9049889D02*
X12048753Y-9068936D01*
X12048753Y-9068936D02*
X12039229Y-9078460D01*
X12039229Y-9078460D02*
X12020182Y-9087984D01*
X12020182Y-9087984D02*
X12001134Y-9087984D01*
X12001134Y-9087984D02*
X11982086Y-9078460D01*
X11982086Y-9078460D02*
X11972563Y-9068936D01*
X11972563Y-9068936D02*
X11963039Y-9049889D01*
X11963039Y-9049889D02*
X11953515Y-9011793D01*
X11953515Y-9011793D02*
X11953515Y-8964174D01*
X11953515Y-8964174D02*
X11963039Y-8926079D01*
X11963039Y-8926079D02*
X11972563Y-8907031D01*
X11972563Y-8907031D02*
X11982086Y-8897508D01*
X11982086Y-8897508D02*
X12001134Y-8887984D01*
X12153515Y-9068936D02*
X12163039Y-9078460D01*
X12163039Y-9078460D02*
X12153515Y-9087984D01*
X12153515Y-9087984D02*
X12143991Y-9078460D01*
X12143991Y-9078460D02*
X12153515Y-9068936D01*
X12153515Y-9068936D02*
X12153515Y-9087984D01*
X12353515Y-9087984D02*
X12239229Y-9087984D01*
X12296372Y-9087984D02*
X12296372Y-8887984D01*
X12296372Y-8887984D02*
X12277325Y-8916555D01*
X12277325Y-8916555D02*
X12258277Y-8935603D01*
X12258277Y-8935603D02*
X12239229Y-8945127D01*
X12543991Y-9087984D02*
X12429706Y-9087984D01*
X12486848Y-9087984D02*
X12486848Y-8887984D01*
X12486848Y-8887984D02*
X12467801Y-8916555D01*
X12467801Y-8916555D02*
X12448753Y-8935603D01*
X12448753Y-8935603D02*
X12429706Y-8945127D01*
X12658277Y-8973698D02*
X12639229Y-8964174D01*
X12639229Y-8964174D02*
X12629706Y-8954650D01*
X12629706Y-8954650D02*
X12620182Y-8935603D01*
X12620182Y-8935603D02*
X12620182Y-8926079D01*
X12620182Y-8926079D02*
X12629706Y-8907031D01*
X12629706Y-8907031D02*
X12639229Y-8897508D01*
X12639229Y-8897508D02*
X12658277Y-8887984D01*
X12658277Y-8887984D02*
X12696372Y-8887984D01*
X12696372Y-8887984D02*
X12715420Y-8897508D01*
X12715420Y-8897508D02*
X12724944Y-8907031D01*
X12724944Y-8907031D02*
X12734467Y-8926079D01*
X12734467Y-8926079D02*
X12734467Y-8935603D01*
X12734467Y-8935603D02*
X12724944Y-8954650D01*
X12724944Y-8954650D02*
X12715420Y-8964174D01*
X12715420Y-8964174D02*
X12696372Y-8973698D01*
X12696372Y-8973698D02*
X12658277Y-8973698D01*
X12658277Y-8973698D02*
X12639229Y-8983222D01*
X12639229Y-8983222D02*
X12629706Y-8992746D01*
X12629706Y-8992746D02*
X12620182Y-9011793D01*
X12620182Y-9011793D02*
X12620182Y-9049889D01*
X12620182Y-9049889D02*
X12629706Y-9068936D01*
X12629706Y-9068936D02*
X12639229Y-9078460D01*
X12639229Y-9078460D02*
X12658277Y-9087984D01*
X12658277Y-9087984D02*
X12696372Y-9087984D01*
X12696372Y-9087984D02*
X12715420Y-9078460D01*
X12715420Y-9078460D02*
X12724944Y-9068936D01*
X12724944Y-9068936D02*
X12734467Y-9049889D01*
X12734467Y-9049889D02*
X12734467Y-9011793D01*
X12734467Y-9011793D02*
X12724944Y-8992746D01*
X12724944Y-8992746D02*
X12715420Y-8983222D01*
X12715420Y-8983222D02*
X12696372Y-8973698D01*
X12924944Y-9087984D02*
X12810658Y-9087984D01*
X12867801Y-9087984D02*
X12867801Y-8887984D01*
X12867801Y-8887984D02*
X12848753Y-8916555D01*
X12848753Y-8916555D02*
X12829706Y-8935603D01*
X12829706Y-8935603D02*
X12810658Y-8945127D01*
X13001134Y-8887984D02*
X13001134Y-8926079D01*
X13077325Y-8887984D02*
X13077325Y-8926079D01*
X13372563Y-9164174D02*
X13363039Y-9154650D01*
X13363039Y-9154650D02*
X13343991Y-9126079D01*
X13343991Y-9126079D02*
X13334468Y-9107031D01*
X13334468Y-9107031D02*
X13324944Y-9078460D01*
X13324944Y-9078460D02*
X13315420Y-9030841D01*
X13315420Y-9030841D02*
X13315420Y-8992746D01*
X13315420Y-8992746D02*
X13324944Y-8945127D01*
X13324944Y-8945127D02*
X13334468Y-8916555D01*
X13334468Y-8916555D02*
X13343991Y-8897508D01*
X13343991Y-8897508D02*
X13363039Y-8868936D01*
X13363039Y-8868936D02*
X13372563Y-8859412D01*
X13553515Y-9087984D02*
X13439229Y-9087984D01*
X13496372Y-9087984D02*
X13496372Y-8887984D01*
X13496372Y-8887984D02*
X13477325Y-8916555D01*
X13477325Y-8916555D02*
X13458277Y-8935603D01*
X13458277Y-8935603D02*
X13439229Y-8945127D01*
X13724944Y-8887984D02*
X13686848Y-8887984D01*
X13686848Y-8887984D02*
X13667801Y-8897508D01*
X13667801Y-8897508D02*
X13658277Y-8907031D01*
X13658277Y-8907031D02*
X13639229Y-8935603D01*
X13639229Y-8935603D02*
X13629706Y-8973698D01*
X13629706Y-8973698D02*
X13629706Y-9049889D01*
X13629706Y-9049889D02*
X13639229Y-9068936D01*
X13639229Y-9068936D02*
X13648753Y-9078460D01*
X13648753Y-9078460D02*
X13667801Y-9087984D01*
X13667801Y-9087984D02*
X13705896Y-9087984D01*
X13705896Y-9087984D02*
X13724944Y-9078460D01*
X13724944Y-9078460D02*
X13734468Y-9068936D01*
X13734468Y-9068936D02*
X13743991Y-9049889D01*
X13743991Y-9049889D02*
X13743991Y-9002270D01*
X13743991Y-9002270D02*
X13734468Y-8983222D01*
X13734468Y-8983222D02*
X13724944Y-8973698D01*
X13724944Y-8973698D02*
X13705896Y-8964174D01*
X13705896Y-8964174D02*
X13667801Y-8964174D01*
X13667801Y-8964174D02*
X13648753Y-8973698D01*
X13648753Y-8973698D02*
X13639229Y-8983222D01*
X13639229Y-8983222D02*
X13629706Y-9002270D01*
X13982087Y-9087984D02*
X13982087Y-8887984D01*
X14067801Y-9087984D02*
X14067801Y-8983222D01*
X14067801Y-8983222D02*
X14058277Y-8964174D01*
X14058277Y-8964174D02*
X14039230Y-8954650D01*
X14039230Y-8954650D02*
X14010658Y-8954650D01*
X14010658Y-8954650D02*
X13991610Y-8964174D01*
X13991610Y-8964174D02*
X13982087Y-8973698D01*
X14191610Y-9087984D02*
X14172563Y-9078460D01*
X14172563Y-9078460D02*
X14163039Y-9068936D01*
X14163039Y-9068936D02*
X14153515Y-9049889D01*
X14153515Y-9049889D02*
X14153515Y-8992746D01*
X14153515Y-8992746D02*
X14163039Y-8973698D01*
X14163039Y-8973698D02*
X14172563Y-8964174D01*
X14172563Y-8964174D02*
X14191610Y-8954650D01*
X14191610Y-8954650D02*
X14220182Y-8954650D01*
X14220182Y-8954650D02*
X14239230Y-8964174D01*
X14239230Y-8964174D02*
X14248753Y-8973698D01*
X14248753Y-8973698D02*
X14258277Y-8992746D01*
X14258277Y-8992746D02*
X14258277Y-9049889D01*
X14258277Y-9049889D02*
X14248753Y-9068936D01*
X14248753Y-9068936D02*
X14239230Y-9078460D01*
X14239230Y-9078460D02*
X14220182Y-9087984D01*
X14220182Y-9087984D02*
X14191610Y-9087984D01*
X14372563Y-9087984D02*
X14353515Y-9078460D01*
X14353515Y-9078460D02*
X14343991Y-9059412D01*
X14343991Y-9059412D02*
X14343991Y-8887984D01*
X14524944Y-9078460D02*
X14505896Y-9087984D01*
X14505896Y-9087984D02*
X14467801Y-9087984D01*
X14467801Y-9087984D02*
X14448753Y-9078460D01*
X14448753Y-9078460D02*
X14439230Y-9059412D01*
X14439230Y-9059412D02*
X14439230Y-8983222D01*
X14439230Y-8983222D02*
X14448753Y-8964174D01*
X14448753Y-8964174D02*
X14467801Y-8954650D01*
X14467801Y-8954650D02*
X14505896Y-8954650D01*
X14505896Y-8954650D02*
X14524944Y-8964174D01*
X14524944Y-8964174D02*
X14534468Y-8983222D01*
X14534468Y-8983222D02*
X14534468Y-9002270D01*
X14534468Y-9002270D02*
X14439230Y-9021317D01*
X14610658Y-9078460D02*
X14629706Y-9087984D01*
X14629706Y-9087984D02*
X14667801Y-9087984D01*
X14667801Y-9087984D02*
X14686849Y-9078460D01*
X14686849Y-9078460D02*
X14696372Y-9059412D01*
X14696372Y-9059412D02*
X14696372Y-9049889D01*
X14696372Y-9049889D02*
X14686849Y-9030841D01*
X14686849Y-9030841D02*
X14667801Y-9021317D01*
X14667801Y-9021317D02*
X14639230Y-9021317D01*
X14639230Y-9021317D02*
X14620182Y-9011793D01*
X14620182Y-9011793D02*
X14610658Y-8992746D01*
X14610658Y-8992746D02*
X14610658Y-8983222D01*
X14610658Y-8983222D02*
X14620182Y-8964174D01*
X14620182Y-8964174D02*
X14639230Y-8954650D01*
X14639230Y-8954650D02*
X14667801Y-8954650D01*
X14667801Y-8954650D02*
X14686849Y-8964174D01*
X14763039Y-9164174D02*
X14772563Y-9154650D01*
X14772563Y-9154650D02*
X14791611Y-9126079D01*
X14791611Y-9126079D02*
X14801134Y-9107031D01*
X14801134Y-9107031D02*
X14810658Y-9078460D01*
X14810658Y-9078460D02*
X14820182Y-9030841D01*
X14820182Y-9030841D02*
X14820182Y-8992746D01*
X14820182Y-8992746D02*
X14810658Y-8945127D01*
X14810658Y-8945127D02*
X14801134Y-8916555D01*
X14801134Y-8916555D02*
X14791611Y-8897508D01*
X14791611Y-8897508D02*
X14772563Y-8868936D01*
X14772563Y-8868936D02*
X14763039Y-8859412D01*
X9697500Y-9416500D02*
X9797500Y-9316500D01*
X9697500Y-9216500D01*
X9597500Y-9316500D01*
X9697500Y-9416500D01*
X10039229Y-9207984D02*
X10163039Y-9207984D01*
X10163039Y-9207984D02*
X10096372Y-9284174D01*
X10096372Y-9284174D02*
X10124944Y-9284174D01*
X10124944Y-9284174D02*
X10143991Y-9293698D01*
X10143991Y-9293698D02*
X10153515Y-9303222D01*
X10153515Y-9303222D02*
X10163039Y-9322270D01*
X10163039Y-9322270D02*
X10163039Y-9369889D01*
X10163039Y-9369889D02*
X10153515Y-9388936D01*
X10153515Y-9388936D02*
X10143991Y-9398460D01*
X10143991Y-9398460D02*
X10124944Y-9407984D01*
X10124944Y-9407984D02*
X10067801Y-9407984D01*
X10067801Y-9407984D02*
X10048753Y-9398460D01*
X10048753Y-9398460D02*
X10039229Y-9388936D01*
X10248753Y-9388936D02*
X10258277Y-9398460D01*
X10258277Y-9398460D02*
X10248753Y-9407984D01*
X10248753Y-9407984D02*
X10239229Y-9398460D01*
X10239229Y-9398460D02*
X10248753Y-9388936D01*
X10248753Y-9388936D02*
X10248753Y-9407984D01*
X10334467Y-9227031D02*
X10343991Y-9217508D01*
X10343991Y-9217508D02*
X10363039Y-9207984D01*
X10363039Y-9207984D02*
X10410658Y-9207984D01*
X10410658Y-9207984D02*
X10429705Y-9217508D01*
X10429705Y-9217508D02*
X10439229Y-9227031D01*
X10439229Y-9227031D02*
X10448753Y-9246079D01*
X10448753Y-9246079D02*
X10448753Y-9265127D01*
X10448753Y-9265127D02*
X10439229Y-9293698D01*
X10439229Y-9293698D02*
X10324944Y-9407984D01*
X10324944Y-9407984D02*
X10448753Y-9407984D01*
X10572563Y-9207984D02*
X10591610Y-9207984D01*
X10591610Y-9207984D02*
X10610658Y-9217508D01*
X10610658Y-9217508D02*
X10620182Y-9227031D01*
X10620182Y-9227031D02*
X10629705Y-9246079D01*
X10629705Y-9246079D02*
X10639229Y-9284174D01*
X10639229Y-9284174D02*
X10639229Y-9331793D01*
X10639229Y-9331793D02*
X10629705Y-9369889D01*
X10629705Y-9369889D02*
X10620182Y-9388936D01*
X10620182Y-9388936D02*
X10610658Y-9398460D01*
X10610658Y-9398460D02*
X10591610Y-9407984D01*
X10591610Y-9407984D02*
X10572563Y-9407984D01*
X10572563Y-9407984D02*
X10553515Y-9398460D01*
X10553515Y-9398460D02*
X10543991Y-9388936D01*
X10543991Y-9388936D02*
X10534467Y-9369889D01*
X10534467Y-9369889D02*
X10524944Y-9331793D01*
X10524944Y-9331793D02*
X10524944Y-9284174D01*
X10524944Y-9284174D02*
X10534467Y-9246079D01*
X10534467Y-9246079D02*
X10543991Y-9227031D01*
X10543991Y-9227031D02*
X10553515Y-9217508D01*
X10553515Y-9217508D02*
X10572563Y-9207984D01*
X10763039Y-9207984D02*
X10782086Y-9207984D01*
X10782086Y-9207984D02*
X10801134Y-9217508D01*
X10801134Y-9217508D02*
X10810658Y-9227031D01*
X10810658Y-9227031D02*
X10820182Y-9246079D01*
X10820182Y-9246079D02*
X10829705Y-9284174D01*
X10829705Y-9284174D02*
X10829705Y-9331793D01*
X10829705Y-9331793D02*
X10820182Y-9369889D01*
X10820182Y-9369889D02*
X10810658Y-9388936D01*
X10810658Y-9388936D02*
X10801134Y-9398460D01*
X10801134Y-9398460D02*
X10782086Y-9407984D01*
X10782086Y-9407984D02*
X10763039Y-9407984D01*
X10763039Y-9407984D02*
X10743991Y-9398460D01*
X10743991Y-9398460D02*
X10734467Y-9388936D01*
X10734467Y-9388936D02*
X10724944Y-9369889D01*
X10724944Y-9369889D02*
X10715420Y-9331793D01*
X10715420Y-9331793D02*
X10715420Y-9284174D01*
X10715420Y-9284174D02*
X10724944Y-9246079D01*
X10724944Y-9246079D02*
X10734467Y-9227031D01*
X10734467Y-9227031D02*
X10743991Y-9217508D01*
X10743991Y-9217508D02*
X10763039Y-9207984D01*
X10915420Y-9407984D02*
X10915420Y-9274650D01*
X10915420Y-9293698D02*
X10924944Y-9284174D01*
X10924944Y-9284174D02*
X10943991Y-9274650D01*
X10943991Y-9274650D02*
X10972563Y-9274650D01*
X10972563Y-9274650D02*
X10991610Y-9284174D01*
X10991610Y-9284174D02*
X11001134Y-9303222D01*
X11001134Y-9303222D02*
X11001134Y-9407984D01*
X11001134Y-9303222D02*
X11010658Y-9284174D01*
X11010658Y-9284174D02*
X11029705Y-9274650D01*
X11029705Y-9274650D02*
X11058277Y-9274650D01*
X11058277Y-9274650D02*
X11077325Y-9284174D01*
X11077325Y-9284174D02*
X11086848Y-9303222D01*
X11086848Y-9303222D02*
X11086848Y-9407984D01*
X11182086Y-9407984D02*
X11182086Y-9274650D01*
X11182086Y-9293698D02*
X11191610Y-9284174D01*
X11191610Y-9284174D02*
X11210658Y-9274650D01*
X11210658Y-9274650D02*
X11239229Y-9274650D01*
X11239229Y-9274650D02*
X11258277Y-9284174D01*
X11258277Y-9284174D02*
X11267801Y-9303222D01*
X11267801Y-9303222D02*
X11267801Y-9407984D01*
X11267801Y-9303222D02*
X11277324Y-9284174D01*
X11277324Y-9284174D02*
X11296372Y-9274650D01*
X11296372Y-9274650D02*
X11324943Y-9274650D01*
X11324943Y-9274650D02*
X11343991Y-9284174D01*
X11343991Y-9284174D02*
X11353515Y-9303222D01*
X11353515Y-9303222D02*
X11353515Y-9407984D01*
X11743991Y-9198460D02*
X11572563Y-9455603D01*
X12001134Y-9207984D02*
X12020182Y-9207984D01*
X12020182Y-9207984D02*
X12039229Y-9217508D01*
X12039229Y-9217508D02*
X12048753Y-9227031D01*
X12048753Y-9227031D02*
X12058277Y-9246079D01*
X12058277Y-9246079D02*
X12067801Y-9284174D01*
X12067801Y-9284174D02*
X12067801Y-9331793D01*
X12067801Y-9331793D02*
X12058277Y-9369889D01*
X12058277Y-9369889D02*
X12048753Y-9388936D01*
X12048753Y-9388936D02*
X12039229Y-9398460D01*
X12039229Y-9398460D02*
X12020182Y-9407984D01*
X12020182Y-9407984D02*
X12001134Y-9407984D01*
X12001134Y-9407984D02*
X11982086Y-9398460D01*
X11982086Y-9398460D02*
X11972563Y-9388936D01*
X11972563Y-9388936D02*
X11963039Y-9369889D01*
X11963039Y-9369889D02*
X11953515Y-9331793D01*
X11953515Y-9331793D02*
X11953515Y-9284174D01*
X11953515Y-9284174D02*
X11963039Y-9246079D01*
X11963039Y-9246079D02*
X11972563Y-9227031D01*
X11972563Y-9227031D02*
X11982086Y-9217508D01*
X11982086Y-9217508D02*
X12001134Y-9207984D01*
X12153515Y-9388936D02*
X12163039Y-9398460D01*
X12163039Y-9398460D02*
X12153515Y-9407984D01*
X12153515Y-9407984D02*
X12143991Y-9398460D01*
X12143991Y-9398460D02*
X12153515Y-9388936D01*
X12153515Y-9388936D02*
X12153515Y-9407984D01*
X12353515Y-9407984D02*
X12239229Y-9407984D01*
X12296372Y-9407984D02*
X12296372Y-9207984D01*
X12296372Y-9207984D02*
X12277325Y-9236555D01*
X12277325Y-9236555D02*
X12258277Y-9255603D01*
X12258277Y-9255603D02*
X12239229Y-9265127D01*
X12429706Y-9227031D02*
X12439229Y-9217508D01*
X12439229Y-9217508D02*
X12458277Y-9207984D01*
X12458277Y-9207984D02*
X12505896Y-9207984D01*
X12505896Y-9207984D02*
X12524944Y-9217508D01*
X12524944Y-9217508D02*
X12534467Y-9227031D01*
X12534467Y-9227031D02*
X12543991Y-9246079D01*
X12543991Y-9246079D02*
X12543991Y-9265127D01*
X12543991Y-9265127D02*
X12534467Y-9293698D01*
X12534467Y-9293698D02*
X12420182Y-9407984D01*
X12420182Y-9407984D02*
X12543991Y-9407984D01*
X12715420Y-9207984D02*
X12677325Y-9207984D01*
X12677325Y-9207984D02*
X12658277Y-9217508D01*
X12658277Y-9217508D02*
X12648753Y-9227031D01*
X12648753Y-9227031D02*
X12629706Y-9255603D01*
X12629706Y-9255603D02*
X12620182Y-9293698D01*
X12620182Y-9293698D02*
X12620182Y-9369889D01*
X12620182Y-9369889D02*
X12629706Y-9388936D01*
X12629706Y-9388936D02*
X12639229Y-9398460D01*
X12639229Y-9398460D02*
X12658277Y-9407984D01*
X12658277Y-9407984D02*
X12696372Y-9407984D01*
X12696372Y-9407984D02*
X12715420Y-9398460D01*
X12715420Y-9398460D02*
X12724944Y-9388936D01*
X12724944Y-9388936D02*
X12734467Y-9369889D01*
X12734467Y-9369889D02*
X12734467Y-9322270D01*
X12734467Y-9322270D02*
X12724944Y-9303222D01*
X12724944Y-9303222D02*
X12715420Y-9293698D01*
X12715420Y-9293698D02*
X12696372Y-9284174D01*
X12696372Y-9284174D02*
X12658277Y-9284174D01*
X12658277Y-9284174D02*
X12639229Y-9293698D01*
X12639229Y-9293698D02*
X12629706Y-9303222D01*
X12629706Y-9303222D02*
X12620182Y-9322270D01*
X12858277Y-9207984D02*
X12877325Y-9207984D01*
X12877325Y-9207984D02*
X12896372Y-9217508D01*
X12896372Y-9217508D02*
X12905896Y-9227031D01*
X12905896Y-9227031D02*
X12915420Y-9246079D01*
X12915420Y-9246079D02*
X12924944Y-9284174D01*
X12924944Y-9284174D02*
X12924944Y-9331793D01*
X12924944Y-9331793D02*
X12915420Y-9369889D01*
X12915420Y-9369889D02*
X12905896Y-9388936D01*
X12905896Y-9388936D02*
X12896372Y-9398460D01*
X12896372Y-9398460D02*
X12877325Y-9407984D01*
X12877325Y-9407984D02*
X12858277Y-9407984D01*
X12858277Y-9407984D02*
X12839229Y-9398460D01*
X12839229Y-9398460D02*
X12829706Y-9388936D01*
X12829706Y-9388936D02*
X12820182Y-9369889D01*
X12820182Y-9369889D02*
X12810658Y-9331793D01*
X12810658Y-9331793D02*
X12810658Y-9284174D01*
X12810658Y-9284174D02*
X12820182Y-9246079D01*
X12820182Y-9246079D02*
X12829706Y-9227031D01*
X12829706Y-9227031D02*
X12839229Y-9217508D01*
X12839229Y-9217508D02*
X12858277Y-9207984D01*
X13001134Y-9207984D02*
X13001134Y-9246079D01*
X13077325Y-9207984D02*
X13077325Y-9246079D01*
X13372563Y-9484174D02*
X13363039Y-9474650D01*
X13363039Y-9474650D02*
X13343991Y-9446079D01*
X13343991Y-9446079D02*
X13334468Y-9427031D01*
X13334468Y-9427031D02*
X13324944Y-9398460D01*
X13324944Y-9398460D02*
X13315420Y-9350841D01*
X13315420Y-9350841D02*
X13315420Y-9312746D01*
X13315420Y-9312746D02*
X13324944Y-9265127D01*
X13324944Y-9265127D02*
X13334468Y-9236555D01*
X13334468Y-9236555D02*
X13343991Y-9217508D01*
X13343991Y-9217508D02*
X13363039Y-9188936D01*
X13363039Y-9188936D02*
X13372563Y-9179412D01*
X13543991Y-9207984D02*
X13448753Y-9207984D01*
X13448753Y-9207984D02*
X13439229Y-9303222D01*
X13439229Y-9303222D02*
X13448753Y-9293698D01*
X13448753Y-9293698D02*
X13467801Y-9284174D01*
X13467801Y-9284174D02*
X13515420Y-9284174D01*
X13515420Y-9284174D02*
X13534468Y-9293698D01*
X13534468Y-9293698D02*
X13543991Y-9303222D01*
X13543991Y-9303222D02*
X13553515Y-9322270D01*
X13553515Y-9322270D02*
X13553515Y-9369889D01*
X13553515Y-9369889D02*
X13543991Y-9388936D01*
X13543991Y-9388936D02*
X13534468Y-9398460D01*
X13534468Y-9398460D02*
X13515420Y-9407984D01*
X13515420Y-9407984D02*
X13467801Y-9407984D01*
X13467801Y-9407984D02*
X13448753Y-9398460D01*
X13448753Y-9398460D02*
X13439229Y-9388936D01*
X13791610Y-9407984D02*
X13791610Y-9207984D01*
X13877325Y-9407984D02*
X13877325Y-9303222D01*
X13877325Y-9303222D02*
X13867801Y-9284174D01*
X13867801Y-9284174D02*
X13848753Y-9274650D01*
X13848753Y-9274650D02*
X13820182Y-9274650D01*
X13820182Y-9274650D02*
X13801134Y-9284174D01*
X13801134Y-9284174D02*
X13791610Y-9293698D01*
X14001134Y-9407984D02*
X13982087Y-9398460D01*
X13982087Y-9398460D02*
X13972563Y-9388936D01*
X13972563Y-9388936D02*
X13963039Y-9369889D01*
X13963039Y-9369889D02*
X13963039Y-9312746D01*
X13963039Y-9312746D02*
X13972563Y-9293698D01*
X13972563Y-9293698D02*
X13982087Y-9284174D01*
X13982087Y-9284174D02*
X14001134Y-9274650D01*
X14001134Y-9274650D02*
X14029706Y-9274650D01*
X14029706Y-9274650D02*
X14048753Y-9284174D01*
X14048753Y-9284174D02*
X14058277Y-9293698D01*
X14058277Y-9293698D02*
X14067801Y-9312746D01*
X14067801Y-9312746D02*
X14067801Y-9369889D01*
X14067801Y-9369889D02*
X14058277Y-9388936D01*
X14058277Y-9388936D02*
X14048753Y-9398460D01*
X14048753Y-9398460D02*
X14029706Y-9407984D01*
X14029706Y-9407984D02*
X14001134Y-9407984D01*
X14182087Y-9407984D02*
X14163039Y-9398460D01*
X14163039Y-9398460D02*
X14153515Y-9379412D01*
X14153515Y-9379412D02*
X14153515Y-9207984D01*
X14334468Y-9398460D02*
X14315420Y-9407984D01*
X14315420Y-9407984D02*
X14277325Y-9407984D01*
X14277325Y-9407984D02*
X14258277Y-9398460D01*
X14258277Y-9398460D02*
X14248753Y-9379412D01*
X14248753Y-9379412D02*
X14248753Y-9303222D01*
X14248753Y-9303222D02*
X14258277Y-9284174D01*
X14258277Y-9284174D02*
X14277325Y-9274650D01*
X14277325Y-9274650D02*
X14315420Y-9274650D01*
X14315420Y-9274650D02*
X14334468Y-9284174D01*
X14334468Y-9284174D02*
X14343991Y-9303222D01*
X14343991Y-9303222D02*
X14343991Y-9322270D01*
X14343991Y-9322270D02*
X14248753Y-9341317D01*
X14420182Y-9398460D02*
X14439230Y-9407984D01*
X14439230Y-9407984D02*
X14477325Y-9407984D01*
X14477325Y-9407984D02*
X14496372Y-9398460D01*
X14496372Y-9398460D02*
X14505896Y-9379412D01*
X14505896Y-9379412D02*
X14505896Y-9369889D01*
X14505896Y-9369889D02*
X14496372Y-9350841D01*
X14496372Y-9350841D02*
X14477325Y-9341317D01*
X14477325Y-9341317D02*
X14448753Y-9341317D01*
X14448753Y-9341317D02*
X14429706Y-9331793D01*
X14429706Y-9331793D02*
X14420182Y-9312746D01*
X14420182Y-9312746D02*
X14420182Y-9303222D01*
X14420182Y-9303222D02*
X14429706Y-9284174D01*
X14429706Y-9284174D02*
X14448753Y-9274650D01*
X14448753Y-9274650D02*
X14477325Y-9274650D01*
X14477325Y-9274650D02*
X14496372Y-9284174D01*
X14572563Y-9484174D02*
X14582087Y-9474650D01*
X14582087Y-9474650D02*
X14601134Y-9446079D01*
X14601134Y-9446079D02*
X14610658Y-9427031D01*
X14610658Y-9427031D02*
X14620182Y-9398460D01*
X14620182Y-9398460D02*
X14629706Y-9350841D01*
X14629706Y-9350841D02*
X14629706Y-9312746D01*
X14629706Y-9312746D02*
X14620182Y-9265127D01*
X14620182Y-9265127D02*
X14610658Y-9236555D01*
X14610658Y-9236555D02*
X14601134Y-9217508D01*
X14601134Y-9217508D02*
X14582087Y-9188936D01*
X14582087Y-9188936D02*
X14572563Y-9179412D01*
M02*
