%TF.GenerationSoftware,KiCad,Pcbnew,8.0.7-8.0.7-0~ubuntu22.04.1*%
%TF.CreationDate,2024-12-28T18:58:49+01:00*%
%TF.ProjectId,CrowBar,43726f77-4261-4722-9e6b-696361645f70,1.0A*%
%TF.SameCoordinates,Original*%
%TF.FileFunction,Copper,L1,Top*%
%TF.FilePolarity,Positive*%
%FSLAX46Y46*%
G04 Gerber Fmt 4.6, Leading zero omitted, Abs format (unit mm)*
G04 Created by KiCad (PCBNEW 8.0.7-8.0.7-0~ubuntu22.04.1) date 2024-12-28 18:58:49*
%MOMM*%
%LPD*%
G01*
G04 APERTURE LIST*
G04 Aperture macros list*
%AMRoundRect*
0 Rectangle with rounded corners*
0 $1 Rounding radius*
0 $2 $3 $4 $5 $6 $7 $8 $9 X,Y pos of 4 corners*
0 Add a 4 corners polygon primitive as box body*
4,1,4,$2,$3,$4,$5,$6,$7,$8,$9,$2,$3,0*
0 Add four circle primitives for the rounded corners*
1,1,$1+$1,$2,$3*
1,1,$1+$1,$4,$5*
1,1,$1+$1,$6,$7*
1,1,$1+$1,$8,$9*
0 Add four rect primitives between the rounded corners*
20,1,$1+$1,$2,$3,$4,$5,0*
20,1,$1+$1,$4,$5,$6,$7,0*
20,1,$1+$1,$6,$7,$8,$9,0*
20,1,$1+$1,$8,$9,$2,$3,0*%
%AMFreePoly0*
4,1,9,3.862500,-0.866500,0.737500,-0.866500,0.737500,-0.450000,-0.737500,-0.450000,-0.737500,0.450000,0.737500,0.450000,0.737500,0.866500,3.862500,0.866500,3.862500,-0.866500,3.862500,-0.866500,$1*%
G04 Aperture macros list end*
%TA.AperFunction,Conductor*%
%ADD10C,4.100000*%
%TD*%
%TA.AperFunction,SMDPad,CuDef*%
%ADD11RoundRect,0.250000X-0.625000X0.400000X-0.625000X-0.400000X0.625000X-0.400000X0.625000X0.400000X0*%
%TD*%
%TA.AperFunction,SMDPad,CuDef*%
%ADD12RoundRect,0.250000X0.450000X-0.350000X0.450000X0.350000X-0.450000X0.350000X-0.450000X-0.350000X0*%
%TD*%
%TA.AperFunction,ComponentPad*%
%ADD13C,5.000000*%
%TD*%
%TA.AperFunction,SMDPad,CuDef*%
%ADD14R,16.000000X16.000000*%
%TD*%
%TA.AperFunction,SMDPad,CuDef*%
%ADD15RoundRect,0.250000X-0.450000X0.350000X-0.450000X-0.350000X0.450000X-0.350000X0.450000X0.350000X0*%
%TD*%
%TA.AperFunction,SMDPad,CuDef*%
%ADD16RoundRect,0.250000X0.475000X-0.250000X0.475000X0.250000X-0.475000X0.250000X-0.475000X-0.250000X0*%
%TD*%
%TA.AperFunction,SMDPad,CuDef*%
%ADD17RoundRect,0.250000X-0.475000X0.250000X-0.475000X-0.250000X0.475000X-0.250000X0.475000X0.250000X0*%
%TD*%
%TA.AperFunction,SMDPad,CuDef*%
%ADD18RoundRect,0.250000X0.625000X-0.400000X0.625000X0.400000X-0.625000X0.400000X-0.625000X-0.400000X0*%
%TD*%
%TA.AperFunction,ComponentPad*%
%ADD19R,2.500000X4.500000*%
%TD*%
%TA.AperFunction,ComponentPad*%
%ADD20O,2.500000X4.500000*%
%TD*%
%TA.AperFunction,SMDPad,CuDef*%
%ADD21RoundRect,0.250000X0.300000X-0.300000X0.300000X0.300000X-0.300000X0.300000X-0.300000X-0.300000X0*%
%TD*%
%TA.AperFunction,SMDPad,CuDef*%
%ADD22RoundRect,0.225000X-0.425000X-0.225000X0.425000X-0.225000X0.425000X0.225000X-0.425000X0.225000X0*%
%TD*%
%TA.AperFunction,SMDPad,CuDef*%
%ADD23FreePoly0,0.000000*%
%TD*%
%TA.AperFunction,SMDPad,CuDef*%
%ADD24RoundRect,0.250000X-1.400000X-1.000000X1.400000X-1.000000X1.400000X1.000000X-1.400000X1.000000X0*%
%TD*%
%TA.AperFunction,ViaPad*%
%ADD25C,1.800000*%
%TD*%
%TA.AperFunction,ViaPad*%
%ADD26C,5.000000*%
%TD*%
%TA.AperFunction,Conductor*%
%ADD27C,0.800000*%
%TD*%
%TA.AperFunction,Conductor*%
%ADD28C,1.200000*%
%TD*%
%TA.AperFunction,Conductor*%
%ADD29C,0.600000*%
%TD*%
G04 APERTURE END LIST*
%TO.N,GND*%
D10*
X188050000Y-21000000D02*
G75*
G02*
X183950000Y-21000000I-2050000J0D01*
G01*
X183950000Y-21000000D02*
G75*
G02*
X188050000Y-21000000I2050000J0D01*
G01*
%TD*%
D11*
%TO.P,R4,1*%
%TO.N,Net-(J1-Pin_1)*%
X146500000Y-36950000D03*
%TO.P,R4,2*%
%TO.N,GND*%
X146500000Y-40050000D03*
%TD*%
D12*
%TO.P,R1,1*%
%TO.N,Net-(D1-A)*%
X175450000Y-27550000D03*
%TO.P,R1,2*%
%TO.N,GND*%
X175450000Y-25550000D03*
%TD*%
D13*
%TO.P,J2,1,Pin_1*%
%TO.N,GND*%
X122250000Y-25000000D03*
X111750000Y-25000000D03*
D14*
X117000000Y-30000000D03*
D13*
X122250000Y-35000000D03*
X111750000Y-35000000D03*
%TD*%
%TO.P,J1,1,Pin_1*%
%TO.N,Net-(J1-Pin_1)*%
X142250000Y-25000000D03*
X131750000Y-25000000D03*
D14*
X137000000Y-30000000D03*
D13*
X142250000Y-35000000D03*
X131750000Y-35000000D03*
%TD*%
D15*
%TO.P,R3,1*%
%TO.N,Net-(D2-G)*%
X169500000Y-36700000D03*
%TO.P,R3,2*%
%TO.N,GND*%
X169500000Y-38700000D03*
%TD*%
D16*
%TO.P,C3,1*%
%TO.N,Net-(D1-K)*%
X151800000Y-50950000D03*
%TO.P,C3,2*%
%TO.N,GND*%
X151800000Y-49050000D03*
%TD*%
D17*
%TO.P,C4,1*%
%TO.N,Net-(D1-K)*%
X154000000Y-65050000D03*
%TO.P,C4,2*%
%TO.N,GND*%
X154000000Y-66950000D03*
%TD*%
D18*
%TO.P,R2,1*%
%TO.N,Net-(D1-K)*%
X154200000Y-51500000D03*
%TO.P,R2,2*%
%TO.N,GND*%
X154200000Y-48400000D03*
%TD*%
D19*
%TO.P,D2,1,K*%
%TO.N,GND*%
X185450000Y-38110000D03*
D20*
%TO.P,D2,2,A*%
%TO.N,Net-(D1-K)*%
X180000000Y-38110000D03*
%TO.P,D2,3,G*%
%TO.N,Net-(D2-G)*%
X174550000Y-38110000D03*
%TD*%
D21*
%TO.P,D1,1,K*%
%TO.N,Net-(D1-K)*%
X180000000Y-32700000D03*
%TO.P,D1,2,A*%
%TO.N,Net-(D1-A)*%
X180000000Y-29900000D03*
%TD*%
D16*
%TO.P,C2,1*%
%TO.N,Net-(D1-K)*%
X149700000Y-50950000D03*
%TO.P,C2,2*%
%TO.N,GND*%
X149700000Y-49050000D03*
%TD*%
D22*
%TO.P,Q1,1,B*%
%TO.N,Net-(D1-A)*%
X171350000Y-30037500D03*
D23*
%TO.P,Q1,2,C*%
%TO.N,Net-(D1-K)*%
X171437500Y-31537500D03*
D22*
%TO.P,Q1,3,E*%
%TO.N,Net-(D2-G)*%
X171350000Y-33037500D03*
%TD*%
D16*
%TO.P,C5,1*%
%TO.N,Net-(D1-K)*%
X147600000Y-50950000D03*
%TO.P,C5,2*%
%TO.N,GND*%
X147600000Y-49050000D03*
%TD*%
%TO.P,C1,1*%
%TO.N,Net-(D1-A)*%
X178350000Y-27550000D03*
%TO.P,C1,2*%
%TO.N,GND*%
X178350000Y-25650000D03*
%TD*%
D13*
%TO.P,J4,1,Pin_1*%
%TO.N,GND*%
X122250000Y-55000000D03*
X111750000Y-55000000D03*
D14*
X117000000Y-60000000D03*
D13*
X122250000Y-65000000D03*
X111750000Y-65000000D03*
%TD*%
%TO.P,F1,1*%
%TO.N,Net-(D1-K)*%
X162500000Y-61450000D03*
X162500000Y-53850000D03*
%TO.P,F1,2*%
%TO.N,Net-(J1-Pin_1)*%
X162500000Y-34150000D03*
X162500000Y-26550000D03*
%TD*%
D24*
%TO.P,D3,1,A1*%
%TO.N,Net-(D1-K)*%
X149000000Y-63100000D03*
%TO.P,D3,2,A2*%
%TO.N,GND*%
X149000000Y-69900000D03*
%TD*%
D13*
%TO.P,J3,1,Pin_1*%
%TO.N,Net-(D1-K)*%
X142250000Y-55000000D03*
X131750000Y-55000000D03*
D14*
X137000000Y-60000000D03*
D13*
X142250000Y-65000000D03*
X131750000Y-65000000D03*
%TD*%
D25*
%TO.N,GND*%
X106100000Y-29363044D03*
X175250000Y-22250000D03*
X118139132Y-72950000D03*
X111300000Y-49350000D03*
X103800000Y-53086956D03*
X187300000Y-30950000D03*
X111400000Y-42058696D03*
X124500000Y-40400000D03*
X158208696Y-18000000D03*
X152500000Y-69000000D03*
X106100000Y-65819564D03*
X103800000Y-34858696D03*
X128300000Y-45745652D03*
X129208696Y-18000000D03*
X149000000Y-40500000D03*
X180082608Y-18000000D03*
X106100000Y-47591304D03*
X119300000Y-40408696D03*
X124400000Y-47691304D03*
X101200000Y-32991304D03*
X103800000Y-31213044D03*
X176436956Y-18000000D03*
X101200000Y-36636956D03*
X106100000Y-62173912D03*
X110847828Y-72950000D03*
X107202176Y-72950000D03*
X140013044Y-72950000D03*
X114493480Y-73000000D03*
X116650000Y-42058696D03*
D26*
X104000000Y-70000000D03*
D25*
X110917392Y-19150000D03*
X154000000Y-40500000D03*
X135666666Y-42100000D03*
X136500000Y-18000000D03*
X125430436Y-72950000D03*
X103800000Y-49441304D03*
X147304348Y-73050000D03*
X103800000Y-64023912D03*
X150917392Y-18000000D03*
X101200000Y-62156520D03*
X158241304Y-72950000D03*
X101200000Y-51219564D03*
X121750000Y-49341304D03*
X161886956Y-72950000D03*
X184700000Y-29000000D03*
X190000000Y-50500000D03*
X176436956Y-73000000D03*
X103800000Y-38504348D03*
X132854348Y-18000000D03*
X143708696Y-18000000D03*
X125500000Y-19150000D03*
X103900000Y-45795652D03*
X135666666Y-45745652D03*
X106100000Y-36654348D03*
X190000000Y-61436956D03*
X172791304Y-18000000D03*
X190000000Y-54145652D03*
X129076088Y-72950000D03*
X156000000Y-70500000D03*
X116650000Y-45704348D03*
X190000000Y-47500000D03*
X116550000Y-49350000D03*
X190000000Y-40208696D03*
X172791304Y-73000000D03*
X101300000Y-43928260D03*
X106100000Y-54882608D03*
X157000000Y-42000000D03*
X190000000Y-33000000D03*
X132721740Y-72950000D03*
X178250000Y-22250000D03*
X101200000Y-54865216D03*
X101300000Y-40282608D03*
X106200000Y-40300000D03*
X106100000Y-25717392D03*
X121850000Y-45695652D03*
X118208696Y-19150000D03*
X154595652Y-72950000D03*
X150950000Y-72950000D03*
X140063044Y-18000000D03*
X119300000Y-44054348D03*
X101200000Y-65802172D03*
X103800000Y-56732608D03*
X190000000Y-43854348D03*
X151500000Y-46500000D03*
X172250000Y-22250000D03*
X131983333Y-42150000D03*
X190000000Y-57791304D03*
D26*
X186000000Y-69000000D03*
D25*
X121784784Y-72950000D03*
X128300000Y-42100000D03*
X103800000Y-27567392D03*
X190000000Y-29000000D03*
X143658696Y-72950000D03*
X165500000Y-18000000D03*
X139350000Y-45795652D03*
X165532608Y-72950000D03*
X114563044Y-19200000D03*
X114050000Y-44054348D03*
X131983333Y-45795652D03*
X107271740Y-19150000D03*
D26*
X104000000Y-22000000D03*
D25*
X119200000Y-47700000D03*
X145500000Y-71000000D03*
X111400000Y-45704348D03*
X136367392Y-72950000D03*
X124500000Y-44045652D03*
X113950000Y-47700000D03*
D26*
X145000000Y-45500000D03*
X186000000Y-21000000D03*
D25*
X101200000Y-25700000D03*
X103800000Y-60378260D03*
X190000000Y-36563044D03*
X147354348Y-18000000D03*
X101200000Y-58510868D03*
X103900000Y-42150000D03*
X190000000Y-65500000D03*
X101200000Y-47573912D03*
X106100000Y-51236956D03*
X114050000Y-40408696D03*
X169145652Y-73000000D03*
X181000000Y-25500000D03*
X184700000Y-33000000D03*
X106200000Y-43945652D03*
X121850000Y-42050000D03*
X101200000Y-29345652D03*
X149000000Y-46500000D03*
X161854348Y-18000000D03*
X169145652Y-18000000D03*
X106100000Y-33008696D03*
X106100000Y-58528260D03*
X139350000Y-42150000D03*
X157000000Y-47000000D03*
X154563044Y-18000000D03*
X121854348Y-19150000D03*
X160000000Y-70500000D03*
X180082608Y-73000000D03*
%TO.N,Net-(D1-K)*%
X166500000Y-54500000D03*
X181500000Y-44500000D03*
X186500000Y-54500000D03*
X166500000Y-44500000D03*
X186500000Y-49500000D03*
X166500000Y-49500000D03*
X176500000Y-44500000D03*
X166500000Y-59500000D03*
X148500000Y-59500000D03*
X171500000Y-59500000D03*
X152500000Y-54500000D03*
X186500000Y-59500000D03*
X156500000Y-59500000D03*
X171500000Y-54500000D03*
X181500000Y-49500000D03*
X171500000Y-44500000D03*
X156500000Y-54500000D03*
X148500000Y-54500000D03*
X176500000Y-49500000D03*
X171500000Y-49500000D03*
X186500000Y-44500000D03*
X152500000Y-59500000D03*
%TD*%
D27*
%TO.N,Net-(D1-A)*%
X173267395Y-28120104D02*
X171350000Y-30037500D01*
X174643750Y-27550000D02*
X175450000Y-27550000D01*
X178625000Y-27550000D02*
X178075000Y-27550000D01*
X180000000Y-29275000D02*
X180000000Y-29900000D01*
X179558058Y-28208058D02*
X179094454Y-27744454D01*
X178075000Y-27550000D02*
X175450000Y-27550000D01*
X179558058Y-28208058D02*
G75*
G02*
X179999995Y-29275000I-1066958J-1066942D01*
G01*
X179094454Y-27744454D02*
G75*
G03*
X178625000Y-27549997I-469454J-469446D01*
G01*
X174643750Y-27550000D02*
G75*
G03*
X173267362Y-28120071I-50J-1946500D01*
G01*
D28*
%TO.N,GND*%
X157000000Y-47000000D02*
X157375000Y-47000000D01*
X167775000Y-38700000D02*
X169500000Y-38700000D01*
X158015165Y-46734834D02*
X164830240Y-39919759D01*
X167775000Y-38700000D02*
G75*
G03*
X164830244Y-39919763I0J-4164500D01*
G01*
X158015165Y-46734834D02*
G75*
G02*
X157375000Y-47000008I-640165J640134D01*
G01*
D27*
%TO.N,Net-(D1-K)*%
X180000000Y-32700000D02*
X180000000Y-38110000D01*
X178015488Y-31537500D02*
X171437500Y-31537500D01*
X180000000Y-32700000D02*
X179418750Y-32118750D01*
X179418750Y-32118750D02*
G75*
G03*
X178015488Y-31537505I-1403250J-1403250D01*
G01*
%TO.N,Net-(D2-G)*%
X174528786Y-38028786D02*
X171990815Y-35490815D01*
D29*
X174550000Y-38080000D02*
X174550000Y-38110000D01*
D27*
X171350000Y-33943750D02*
X171350000Y-33037500D01*
X169500000Y-36700000D02*
X173140000Y-36700000D01*
X171350000Y-33943750D02*
G75*
G03*
X171990786Y-35490844I2187900J-50D01*
G01*
X174528786Y-38028786D02*
G75*
G02*
X174550008Y-38080000I-51186J-51214D01*
G01*
%TD*%
%TA.AperFunction,Conductor*%
%TO.N,Net-(J1-Pin_1)*%
G36*
X163262967Y-20519685D02*
G01*
X163286792Y-20539622D01*
X163365143Y-20624000D01*
X166466866Y-23964317D01*
X166498059Y-24026838D01*
X166500000Y-24048693D01*
X166500000Y-35945146D01*
X166480315Y-36012185D01*
X166459411Y-36036899D01*
X163785472Y-38467753D01*
X163722626Y-38498283D01*
X163702061Y-38500000D01*
X129124000Y-38500000D01*
X129056961Y-38480315D01*
X129011206Y-38427511D01*
X129000000Y-38376000D01*
X129000000Y-20624000D01*
X129019685Y-20556961D01*
X129072489Y-20511206D01*
X129124000Y-20500000D01*
X163195928Y-20500000D01*
X163262967Y-20519685D01*
G37*
%TD.AperFunction*%
%TD*%
%TA.AperFunction,Conductor*%
%TO.N,GND*%
G36*
X128500000Y-39500000D02*
G01*
X156149532Y-39500000D01*
X156216571Y-39519685D01*
X156236124Y-39535243D01*
X158212592Y-41463504D01*
X158246832Y-41524409D01*
X158250000Y-41552261D01*
X158250000Y-47951041D01*
X158230315Y-48018080D01*
X158216554Y-48035752D01*
X156836843Y-49510615D01*
X156776669Y-49546125D01*
X156746070Y-49549904D01*
X152777927Y-49542893D01*
X152726865Y-49531792D01*
X152689692Y-49514907D01*
X152689672Y-49514900D01*
X152471420Y-49459905D01*
X152471413Y-49459904D01*
X152427347Y-49456436D01*
X152339217Y-49449500D01*
X152339215Y-49449500D01*
X151260791Y-49449500D01*
X151260776Y-49449501D01*
X151128586Y-49459904D01*
X151128579Y-49459905D01*
X150910327Y-49514900D01*
X150910312Y-49514905D01*
X150880710Y-49528351D01*
X150829213Y-49539450D01*
X150669727Y-49539168D01*
X150618666Y-49528068D01*
X150589687Y-49514905D01*
X150589672Y-49514900D01*
X150371420Y-49459905D01*
X150371413Y-49459904D01*
X150327347Y-49456436D01*
X150239217Y-49449500D01*
X150239215Y-49449500D01*
X149160791Y-49449500D01*
X149160776Y-49449501D01*
X149028586Y-49459904D01*
X149028579Y-49459905D01*
X148810319Y-49514902D01*
X148788847Y-49524655D01*
X148737351Y-49535754D01*
X148561526Y-49535444D01*
X148510464Y-49524343D01*
X148489681Y-49514903D01*
X148489678Y-49514902D01*
X148271420Y-49459905D01*
X148271413Y-49459904D01*
X148227347Y-49456436D01*
X148139217Y-49449500D01*
X148139215Y-49449500D01*
X147060791Y-49449500D01*
X147060776Y-49449501D01*
X146928586Y-49459904D01*
X146928579Y-49459905D01*
X146710321Y-49514902D01*
X146696983Y-49520960D01*
X146645488Y-49532058D01*
X128554818Y-49500096D01*
X128500000Y-49500000D01*
X128499999Y-49500000D01*
X128499998Y-49500000D01*
X128499997Y-49500000D01*
X126500001Y-50499998D01*
X126500000Y-50500000D01*
X126500000Y-39000000D01*
X128500000Y-39500000D01*
G37*
%TD.AperFunction*%
%TD*%
%TA.AperFunction,Conductor*%
%TO.N,GND*%
G36*
X186002562Y-16500605D02*
G01*
X186449036Y-16519072D01*
X186459209Y-16519915D01*
X186900114Y-16574873D01*
X186910194Y-16576555D01*
X187345042Y-16667733D01*
X187354950Y-16670242D01*
X187780786Y-16797019D01*
X187790454Y-16800338D01*
X188131430Y-16933388D01*
X188204339Y-16961838D01*
X188213724Y-16965954D01*
X188612869Y-17161083D01*
X188621877Y-17165958D01*
X189003544Y-17393383D01*
X189012123Y-17398989D01*
X189373693Y-17657144D01*
X189381775Y-17663435D01*
X189720796Y-17950571D01*
X189728336Y-17957512D01*
X190042487Y-18271663D01*
X190049428Y-18279203D01*
X190336564Y-18618224D01*
X190342859Y-18626312D01*
X190601010Y-18987876D01*
X190606616Y-18996455D01*
X190834041Y-19378122D01*
X190838919Y-19387136D01*
X191034045Y-19786275D01*
X191038161Y-19795660D01*
X191199656Y-20209533D01*
X191202984Y-20219226D01*
X191329753Y-20645036D01*
X191332269Y-20654971D01*
X191423441Y-21089791D01*
X191425128Y-21099900D01*
X191480082Y-21540769D01*
X191480928Y-21550983D01*
X191499394Y-21997437D01*
X191499500Y-22002561D01*
X191499500Y-68997438D01*
X191499394Y-69002562D01*
X191480928Y-69449016D01*
X191480082Y-69459230D01*
X191425128Y-69900099D01*
X191423441Y-69910208D01*
X191332269Y-70345028D01*
X191329753Y-70354963D01*
X191202984Y-70780773D01*
X191199656Y-70790466D01*
X191038161Y-71204339D01*
X191034045Y-71213724D01*
X190838919Y-71612863D01*
X190834041Y-71621877D01*
X190606616Y-72003544D01*
X190601010Y-72012123D01*
X190342859Y-72373687D01*
X190336564Y-72381775D01*
X190049428Y-72720796D01*
X190042487Y-72728336D01*
X189728336Y-73042487D01*
X189720796Y-73049428D01*
X189381775Y-73336564D01*
X189373687Y-73342859D01*
X189012123Y-73601010D01*
X189003544Y-73606616D01*
X188621877Y-73834041D01*
X188612863Y-73838919D01*
X188213724Y-74034045D01*
X188204339Y-74038161D01*
X187790466Y-74199656D01*
X187780773Y-74202984D01*
X187354963Y-74329753D01*
X187345028Y-74332269D01*
X186910208Y-74423441D01*
X186900099Y-74425128D01*
X186459230Y-74480082D01*
X186449016Y-74480928D01*
X186002563Y-74499394D01*
X185997439Y-74499500D01*
X126500000Y-74499500D01*
X126500000Y-69500000D01*
X146000000Y-69500000D01*
X148463681Y-67036319D01*
X148525004Y-67002834D01*
X148551362Y-67000000D01*
X168400000Y-67000000D01*
X169462841Y-65550671D01*
X169518359Y-65508251D01*
X169562835Y-65500000D01*
X187899999Y-65500000D01*
X187900000Y-65500000D01*
X189100000Y-64100000D01*
X189000000Y-42750000D01*
X187000000Y-41000000D01*
X186999998Y-41000000D01*
X183624000Y-41000000D01*
X183556961Y-40980315D01*
X183511206Y-40927511D01*
X183500000Y-40876000D01*
X183500000Y-34500000D01*
X183500000Y-26000000D01*
X178000000Y-19000000D01*
X166750000Y-19000000D01*
X126500000Y-19000000D01*
X126500000Y-16500500D01*
X185934108Y-16500500D01*
X185997439Y-16500500D01*
X186002562Y-16500605D01*
G37*
%TD.AperFunction*%
%TD*%
%TA.AperFunction,Conductor*%
%TO.N,GND*%
G36*
X183500000Y-26000000D02*
G01*
X183500000Y-34500000D01*
X182286319Y-33286319D01*
X182252834Y-33224996D01*
X182250000Y-33198638D01*
X182250000Y-29000000D01*
X179250000Y-26000000D01*
X173552689Y-26000000D01*
X173485650Y-25980315D01*
X173463428Y-25962073D01*
X166750000Y-19000000D01*
X178000000Y-19000000D01*
X183500000Y-26000000D01*
G37*
%TD.AperFunction*%
%TD*%
%TA.AperFunction,Conductor*%
%TO.N,GND*%
G36*
X126500000Y-74499500D02*
G01*
X104002561Y-74499500D01*
X103997437Y-74499394D01*
X103550983Y-74480928D01*
X103540769Y-74480082D01*
X103099900Y-74425128D01*
X103089791Y-74423441D01*
X102654971Y-74332269D01*
X102645036Y-74329753D01*
X102219226Y-74202984D01*
X102209533Y-74199656D01*
X101795660Y-74038161D01*
X101786275Y-74034045D01*
X101387136Y-73838919D01*
X101378122Y-73834041D01*
X100996455Y-73606616D01*
X100987876Y-73601010D01*
X100626312Y-73342859D01*
X100618224Y-73336564D01*
X100279203Y-73049428D01*
X100271663Y-73042487D01*
X99957512Y-72728336D01*
X99950571Y-72720796D01*
X99663435Y-72381775D01*
X99657140Y-72373687D01*
X99398989Y-72012123D01*
X99393383Y-72003544D01*
X99165958Y-71621877D01*
X99161080Y-71612863D01*
X98965954Y-71213724D01*
X98961838Y-71204339D01*
X98933388Y-71131430D01*
X98800338Y-70790454D01*
X98797019Y-70780786D01*
X98670242Y-70354950D01*
X98667733Y-70345042D01*
X98576555Y-69910194D01*
X98574873Y-69900114D01*
X98519915Y-69459209D01*
X98519072Y-69449036D01*
X98500606Y-69002562D01*
X98500500Y-68997438D01*
X98500500Y-22002561D01*
X98500606Y-21997437D01*
X98510560Y-21756768D01*
X98519072Y-21550961D01*
X98519915Y-21540792D01*
X98574874Y-21099881D01*
X98576554Y-21089809D01*
X98667734Y-20654951D01*
X98670241Y-20645055D01*
X98797022Y-20219205D01*
X98800336Y-20209553D01*
X98961840Y-19795654D01*
X98965954Y-19786275D01*
X99161088Y-19387120D01*
X99165949Y-19378136D01*
X99393389Y-18996445D01*
X99398982Y-18987885D01*
X99657153Y-18626294D01*
X99663422Y-18618240D01*
X99950581Y-18279191D01*
X99957500Y-18271675D01*
X100271675Y-17957500D01*
X100279191Y-17950581D01*
X100618240Y-17663422D01*
X100626294Y-17657153D01*
X100987885Y-17398982D01*
X100996445Y-17393389D01*
X101378136Y-17165949D01*
X101387120Y-17161088D01*
X101786280Y-16965951D01*
X101795654Y-16961840D01*
X102209553Y-16800336D01*
X102219205Y-16797022D01*
X102645055Y-16670241D01*
X102654951Y-16667734D01*
X103089809Y-16576554D01*
X103099881Y-16574874D01*
X103540792Y-16519915D01*
X103550961Y-16519072D01*
X103997437Y-16500605D01*
X104002561Y-16500500D01*
X126500000Y-16500500D01*
X126500000Y-74499500D01*
G37*
%TD.AperFunction*%
%TD*%
%TA.AperFunction,Conductor*%
%TO.N,Net-(D1-K)*%
G36*
X182015677Y-34519685D02*
G01*
X182036319Y-34536319D01*
X182963681Y-35463681D01*
X182997166Y-35525004D01*
X183000000Y-35551362D01*
X183000000Y-41500000D01*
X183500000Y-42000000D01*
X186198638Y-42000000D01*
X186265677Y-42019685D01*
X186286319Y-42036319D01*
X187963681Y-43713681D01*
X187997166Y-43775004D01*
X188000000Y-43801362D01*
X188000000Y-63048638D01*
X187980315Y-63115677D01*
X187963681Y-63136319D01*
X187136319Y-63963681D01*
X187074996Y-63997166D01*
X187048638Y-64000000D01*
X168500000Y-64000000D01*
X167536811Y-65444783D01*
X167483246Y-65489644D01*
X167433637Y-65500000D01*
X147599999Y-65500000D01*
X145136319Y-67963681D01*
X145074996Y-67997166D01*
X145048638Y-68000000D01*
X129124000Y-68000000D01*
X129056961Y-67980315D01*
X129011206Y-67927511D01*
X129000000Y-67876000D01*
X129000000Y-57835602D01*
X177949500Y-57835602D01*
X177949500Y-58104397D01*
X177984582Y-58370880D01*
X177984583Y-58370885D01*
X177984584Y-58370891D01*
X177984585Y-58370893D01*
X178054152Y-58630524D01*
X178157011Y-58878850D01*
X178157019Y-58878866D01*
X178237830Y-59018832D01*
X178291413Y-59111641D01*
X178291415Y-59111644D01*
X178291416Y-59111645D01*
X178455042Y-59324888D01*
X178455048Y-59324895D01*
X178645104Y-59514951D01*
X178645110Y-59514956D01*
X178858359Y-59678587D01*
X179007968Y-59764964D01*
X179091133Y-59812980D01*
X179091149Y-59812988D01*
X179246008Y-59877132D01*
X179339474Y-59915847D01*
X179599109Y-59985416D01*
X179787319Y-60010193D01*
X179865602Y-60020500D01*
X179865603Y-60020500D01*
X180134398Y-60020500D01*
X180194905Y-60012534D01*
X180400891Y-59985416D01*
X180660526Y-59915847D01*
X180847457Y-59838417D01*
X180908850Y-59812988D01*
X180908853Y-59812986D01*
X180908859Y-59812984D01*
X181141641Y-59678587D01*
X181354890Y-59514956D01*
X181544956Y-59324890D01*
X181708587Y-59111641D01*
X181842984Y-58878859D01*
X181945847Y-58630526D01*
X182015416Y-58370891D01*
X182050500Y-58104397D01*
X182050500Y-57835603D01*
X182015416Y-57569109D01*
X181945847Y-57309474D01*
X181907132Y-57216008D01*
X181842988Y-57061149D01*
X181842980Y-57061133D01*
X181794964Y-56977968D01*
X181708587Y-56828359D01*
X181544956Y-56615110D01*
X181544951Y-56615104D01*
X181354895Y-56425048D01*
X181354888Y-56425042D01*
X181141645Y-56261416D01*
X181141644Y-56261415D01*
X181141641Y-56261413D01*
X181048832Y-56207830D01*
X180908866Y-56127019D01*
X180908850Y-56127011D01*
X180660524Y-56024152D01*
X180530708Y-55989368D01*
X180400891Y-55954584D01*
X180400885Y-55954583D01*
X180400880Y-55954582D01*
X180134398Y-55919500D01*
X180134397Y-55919500D01*
X179865603Y-55919500D01*
X179865602Y-55919500D01*
X179599119Y-55954582D01*
X179599112Y-55954583D01*
X179599109Y-55954584D01*
X179544239Y-55969286D01*
X179339475Y-56024152D01*
X179091149Y-56127011D01*
X179091133Y-56127019D01*
X178858354Y-56261416D01*
X178645111Y-56425042D01*
X178645104Y-56425048D01*
X178455048Y-56615104D01*
X178455042Y-56615111D01*
X178291416Y-56828354D01*
X178157019Y-57061133D01*
X178157011Y-57061149D01*
X178054152Y-57309475D01*
X177984585Y-57569106D01*
X177984582Y-57569119D01*
X177949500Y-57835602D01*
X129000000Y-57835602D01*
X129000000Y-50630602D01*
X129019685Y-50563563D01*
X129072489Y-50517808D01*
X129124214Y-50506602D01*
X130256085Y-50508602D01*
X158018546Y-50698757D01*
X158199999Y-50700000D01*
X158200000Y-50700000D01*
X158200001Y-50700000D01*
X160499986Y-48600013D01*
X160499989Y-48600009D01*
X160500000Y-48600000D01*
X161700000Y-47400000D01*
X166763300Y-42038859D01*
X166823642Y-42003636D01*
X166853450Y-42000000D01*
X176500000Y-42000000D01*
X177000000Y-41500000D01*
X177000000Y-35551362D01*
X177019685Y-35484323D01*
X177036319Y-35463681D01*
X177963681Y-34536319D01*
X178025004Y-34502834D01*
X178051362Y-34500000D01*
X181948638Y-34500000D01*
X182015677Y-34519685D01*
G37*
%TD.AperFunction*%
%TD*%
M02*
